<svg id="Layer_1" data-name="Layer 1" xmlns="http://www.w3.org/2000/svg" viewBox="0 0 1920 1080">
  <title>render-pipeline</title>
  <rect width="1920" height="1080" style="fill: #1e1f21"/>
  <rect width="294.62" height="1080" style="fill: #171819"/>
  <g>
    <polyline points="1150.14 366.19 1149.67 360.21 1145.22 364.24" style="fill: none;stroke: #abb2a4;stroke-miterlimit: 10;stroke-width: 3px"/>
    <line x1="1136.01" y1="372.61" x2="974.67" y2="519.02" style="fill: none;stroke: #abb2a4;stroke-miterlimit: 10;stroke-width: 3px;stroke-dasharray: 12.449332237243652,12.449332237243652"/>
    <polyline points="970.07 523.2 965.62 527.24 970.4 530.86" style="fill: none;stroke: #abb2a4;stroke-miterlimit: 10;stroke-width: 3px"/>
    <line x1="979.95" y1="538.1" x2="1166.11" y2="679.21" style="fill: none;stroke: #abb2a4;stroke-miterlimit: 10;stroke-width: 3px;stroke-dasharray: 11.97939682006836,11.97939682006836"/>
    <polyline points="1170.88 682.83 1175.66 686.46 1175.18 680.47" style="fill: none;stroke: #abb2a4;stroke-miterlimit: 10;stroke-width: 3px"/>
    <line x1="1174.26" y1="668.83" x2="1150.61" y2="372.01" style="fill: none;stroke: #abb2a4;stroke-miterlimit: 10;stroke-width: 3px;stroke-dasharray: 11.677010536193848,11.677010536193848"/>
  </g>
  <rect x="1379.31" y="417.94" width="58.98" height="58.98" style="fill-opacity: 0.75"/>
  <rect x="1497.28" y="417.94" width="58.98" height="58.98" style="fill: #05f;fill-opacity: 0.75;opacity: 0.34"/>
  <rect x="1438.29" y="417.94" width="58.98" height="58.98" style="fill-opacity: 0.35000000000000003"/>
  <rect x="1615.24" y="417.94" width="58.98" height="58.98" style="fill: #05f;fill-opacity: 0.75;opacity: 0.19"/>
  <rect x="1733.22" y="417.94" width="58.98" height="58.98" style="fill-opacity: 0.75"/>
  <rect x="1674.23" y="417.94" width="58.98" height="58.98" style="fill-opacity: 0.35000000000000003"/>
  <rect x="1438.29" y="358.96" width="58.98" height="58.98" style="fill-opacity: 0.75"/>
  <rect x="1556.26" y="358.96" width="58.98" height="58.98" style="fill: #05f;fill-opacity: 0.75;opacity: 0.34"/>
  <rect x="1379.31" y="358.96" width="58.98" height="58.98" style="fill-opacity: 0.35000000000000003"/>
  <rect x="1497.28" y="358.96" width="58.98" height="58.98" style="fill-opacity: 0.35000000000000003"/>
  <rect x="1615.24" y="358.96" width="58.98" height="58.98" style="fill: #05f;fill-opacity: 0.75;opacity: 0.19"/>
  <rect x="1674.23" y="358.96" width="58.98" height="58.98" style="fill-opacity: 0.75"/>
  <rect x="1733.22" y="358.96" width="58.98" height="58.98" style="fill-opacity: 0.35000000000000003"/>
  <rect x="1379.31" y="299.97" width="58.98" height="58.98" style="fill-opacity: 0.75"/>
  <rect x="1497.28" y="299.97" width="58.98" height="58.98" style="fill-opacity: 0.75"/>
  <rect x="1438.29" y="299.97" width="58.98" height="58.98" style="fill-opacity: 0.35000000000000003"/>
  <rect x="1615.24" y="299.97" width="58.98" height="58.98" style="fill-opacity: 0.75"/>
  <rect x="1556.26" y="299.97" width="58.98" height="58.98" style="fill-opacity: 0.35000000000000003"/>
  <rect x="1733.22" y="299.97" width="58.98" height="58.98" style="fill-opacity: 0.75"/>
  <rect x="1674.23" y="299.97" width="58.98" height="58.98" style="fill-opacity: 0.35000000000000003"/>
  <rect x="1379.31" y="535.91" width="58.98" height="58.98" style="fill-opacity: 0.75"/>
  <rect x="1497.28" y="535.91" width="58.98" height="58.98" style="fill: #05f;fill-opacity: 0.75"/>
  <rect x="1438.29" y="535.91" width="58.98" height="58.98" style="fill: #05f;fill-opacity: 0.75;opacity: 0.34"/>
  <rect x="1615.24" y="535.91" width="58.98" height="58.98" style="fill: #05f;fill-opacity: 0.75;opacity: 0.19"/>
  <rect x="1733.22" y="535.91" width="58.98" height="58.98" style="fill-opacity: 0.75"/>
  <rect x="1674.23" y="535.91" width="58.98" height="58.98" style="fill-opacity: 0.35000000000000003"/>
  <rect x="1438.29" y="476.92" width="58.98" height="58.98" style="fill: #05f;fill-opacity: 0.75;opacity: 0.34"/>
  <rect x="1556.26" y="476.92" width="58.98" height="58.98" style="fill: #05f;fill-opacity: 0.75"/>
  <rect x="1379.31" y="476.92" width="58.98" height="58.98" style="fill-opacity: 0.35000000000000003"/>
  <rect x="1497.28" y="476.92" width="58.98" height="58.98" style="fill: #05f;fill-opacity: 0.75"/>
  <rect x="1615.24" y="476.92" width="58.98" height="58.98" style="fill: #05f;fill-opacity: 0.75;opacity: 0.19"/>
  <rect x="1674.23" y="476.92" width="58.98" height="58.98" style="fill-opacity: 0.75"/>
  <rect x="1733.22" y="476.92" width="58.98" height="58.98" style="fill-opacity: 0.35000000000000003"/>
  <rect x="1379.31" y="653.87" width="58.98" height="58.98" style="fill-opacity: 0.75"/>
  <rect x="1497.28" y="653.87" width="58.98" height="58.98" style="fill-opacity: 0.75"/>
  <rect x="1438.29" y="653.87" width="58.98" height="58.98" style="fill-opacity: 0.35000000000000003"/>
  <rect x="1556.26" y="417.94" width="58.98" height="58.98" style="fill: #05f;fill-opacity: 0.75"/>
  <rect x="1556.26" y="299.97" width="58.98" height="58.98" style="fill-opacity: 0.35000000000000003"/>
  <rect x="1556.26" y="535.91" width="58.98" height="58.98" style="fill: #05f;fill-opacity: 0.75"/>
  <rect x="1556.26" y="653.87" width="58.98" height="58.98" style="fill: #05f;fill-opacity: 0.75;opacity: 0.34"/>
  <rect x="1615.24" y="653.87" width="58.98" height="58.98" style="fill: #05f;fill-opacity: 0.75"/>
  <rect x="1733.22" y="653.87" width="58.98" height="58.98" style="fill-opacity: 0.75"/>
  <rect x="1674.23" y="653.87" width="58.98" height="58.98" style="fill-opacity: 0.35000000000000003"/>
  <rect x="1438.29" y="594.89" width="58.98" height="58.98" style="fill-opacity: 0.75"/>
  <rect x="1556.26" y="594.89" width="58.98" height="58.98" style="fill: #05f;fill-opacity: 0.75"/>
  <rect x="1379.31" y="594.89" width="58.98" height="58.98" style="fill-opacity: 0.35000000000000003"/>
  <rect x="1497.28" y="594.89" width="58.98" height="58.98" style="fill: #05f;fill-opacity: 0.75;opacity: 0.34"/>
  <rect x="1615.24" y="594.89" width="58.98" height="58.98" style="fill: #05f;fill-opacity: 0.75"/>
  <rect x="1674.23" y="594.89" width="58.98" height="58.98" style="fill-opacity: 0.75"/>
  <rect x="1733.22" y="594.89" width="58.98" height="58.98" style="fill-opacity: 0.35000000000000003"/>
  <rect x="1438.29" y="712.86" width="58.98" height="58.98" style="fill-opacity: 0.75"/>
  <rect x="1556.26" y="712.86" width="58.98" height="58.98" style="fill-opacity: 0.75"/>
  <rect x="1379.31" y="712.86" width="58.98" height="58.98" style="fill-opacity: 0.35000000000000003"/>
  <rect x="1497.28" y="712.86" width="58.98" height="58.98" style="fill-opacity: 0.35000000000000003"/>
  <rect x="1615.24" y="712.86" width="58.98" height="58.98" style="fill-opacity: 0.35000000000000003"/>
  <rect x="1674.23" y="712.86" width="58.98" height="58.98" style="fill-opacity: 0.75"/>
  <rect x="1733.22" y="712.86" width="58.98" height="58.98" style="fill-opacity: 0.35000000000000003"/>
  <circle cx="615.15" cy="400.53" r="7.38" style="fill: #fff"/>
  <circle cx="487.09" cy="648.64" r="7.38" style="fill: #fff"/>
  <circle cx="741.47" cy="648.64" r="7.38" style="fill: #fff"/>
  <g>
    <path d="M68.9,161.67h2l4.51,13.43,4.23-13.4H81.6l-5.86,17.58h-.9Z" style="fill: #fff"/>
    <path d="M89.47,166a5.47,5.47,0,0,1,2,.36,4.55,4.55,0,0,1,1.67,1.11,5.51,5.51,0,0,1,1.15,1.89,7.69,7.69,0,0,1,.43,2.72c0,.15,0,.3,0,.46s0,.31,0,.46H85.52a6.17,6.17,0,0,0,.46,2.26,4.36,4.36,0,0,0,1,1.47,3.66,3.66,0,0,0,1.37.8,5,5,0,0,0,1.51.24,4.31,4.31,0,0,0,3.31-1.43l1.12,1.09a5.51,5.51,0,0,1-4.49,2,7.27,7.27,0,0,1-2.57-.43,5.26,5.26,0,0,1-2-1.28A5.76,5.76,0,0,1,84,175.65a9.26,9.26,0,0,1,0-5.73,6.18,6.18,0,0,1,1.26-2.12,5.41,5.41,0,0,1,1.86-1.3A5.87,5.87,0,0,1,89.47,166Zm-3.87,5.38h7a1.4,1.4,0,0,1,0-.21,1.67,1.67,0,0,0,0-.23,3.29,3.29,0,0,0-.27-1.31,3.49,3.49,0,0,0-.71-1.08,3.53,3.53,0,0,0-1.05-.73,3.1,3.1,0,0,0-1.3-.28,3.54,3.54,0,0,0-2.38.93A4.55,4.55,0,0,0,85.6,171.43Z" style="fill: #fff"/>
    <path d="M99,166.36h2.07l-.06,2.47a4.27,4.27,0,0,1,1.87-2.06,5.54,5.54,0,0,1,2.74-.71,4.56,4.56,0,0,1,3.43,1.4l-.93,1.93q-.31-.42-.56-.7a3,3,0,0,0-.55-.48,2.6,2.6,0,0,0-.65-.31,2.87,2.87,0,0,0-.86-.11,3.67,3.67,0,0,0-1.75.43,4.81,4.81,0,0,0-1.42,1.15,5.82,5.82,0,0,0-1,1.64,5.21,5.21,0,0,0-.37,1.93v6.25H99Z" style="fill: #fff"/>
    <path d="M115.52,162.93l2.19-.36a1.34,1.34,0,0,1-.07.45c0,.13-.08.23-.1.31l-.34,3h4.21V168H117.2q-.25,2.51-.25,4.71,0,1.35.06,2.29a4.31,4.31,0,0,0,.3,1.47,1.89,1.89,0,0,0,.69.83,2.17,2.17,0,0,0,1.21.3,5,5,0,0,0,2.87-1.18l.62,1.6a6.63,6.63,0,0,1-4,1.43,3.45,3.45,0,0,1-2.94-1.22,6.34,6.34,0,0,1-.84-4q0-1,.06-2.59t.22-3.65h-3v-1.63h3.08Z" style="fill: #fff"/>
    <path d="M131.53,166a5.47,5.47,0,0,1,2,.36,4.55,4.55,0,0,1,1.67,1.11,5.51,5.51,0,0,1,1.15,1.89,7.69,7.69,0,0,1,.43,2.72c0,.15,0,.3,0,.46s0,.31,0,.46h-9.11a6.17,6.17,0,0,0,.46,2.26,4.36,4.36,0,0,0,1,1.47,3.66,3.66,0,0,0,1.37.8,5,5,0,0,0,1.51.24,4.31,4.31,0,0,0,3.31-1.43l1.12,1.09a5.51,5.51,0,0,1-4.49,2,7.27,7.27,0,0,1-2.57-.43,5.26,5.26,0,0,1-2-1.28,5.76,5.76,0,0,1-1.26-2.09,9.26,9.26,0,0,1,0-5.73,6.18,6.18,0,0,1,1.26-2.12,5.41,5.41,0,0,1,1.86-1.3A5.87,5.87,0,0,1,131.53,166Zm-3.87,5.38h7a1.4,1.4,0,0,1,0-.21,1.67,1.67,0,0,0,0-.23,3.29,3.29,0,0,0-.27-1.31,3.49,3.49,0,0,0-.71-1.08,3.53,3.53,0,0,0-1.05-.73,3.1,3.1,0,0,0-1.3-.28,3.54,3.54,0,0,0-2.38.93A4.55,4.55,0,0,0,127.66,171.43Z" style="fill: #fff"/>
    <path d="M148.44,166.36h2.07l-4.15,6.22,4.71,6.59h-2.3l-3.53-5-3.34,5h-2.3l4.51-6.5-4.43-6.31h2.22l3.34,4.74Z" style="fill: #fff"/>
    <path d="M69.7,195.35h4.07a8,8,0,0,1,3.49.62,5.94,5.94,0,0,1,2.12,1.77,7.78,7.78,0,0,1,1.29,2.78,14.7,14.7,0,0,1,.42,3.67,12,12,0,0,1-.5,3.62,8.65,8.65,0,0,1-1.39,2.73,5.57,5.57,0,0,1-2.29,1.72,9,9,0,0,1-3.48.59H69.7ZM71.55,197V211.3h1.78a5.12,5.12,0,0,0,4.35-1.81,8.48,8.48,0,0,0,1.38-5.21,10.08,10.08,0,0,0-1.27-5.37A4.55,4.55,0,0,0,73.64,197Z" style="fill: #fff"/>
    <path d="M84.76,201.52a6,6,0,0,1,4.57-1.79A5.45,5.45,0,0,1,93,200.91a5,5,0,0,1,1.36,4v7.93H92.5v-1.4a7,7,0,0,1-4.6,1.71,5,5,0,0,1-1.81-.31,4.33,4.33,0,0,1-1.36-.81,3.47,3.47,0,0,1-.85-1.15,3.08,3.08,0,0,1-.29-1.29,3.5,3.5,0,0,1,1.67-3.06,9.22,9.22,0,0,1,4.81-1.23h2.41v-.48a3.63,3.63,0,0,0-.8-2.68,3.49,3.49,0,0,0-2.48-.76,4.54,4.54,0,0,0-3.45,1.46Zm7.79,5.3H90.65a12.45,12.45,0,0,0-2.52.21,4.64,4.64,0,0,0-1.54.58,2,2,0,0,0-.77.83,2.38,2.38,0,0,0-.21,1,1.94,1.94,0,0,0,.79,1.54,2.94,2.94,0,0,0,1.93.65,4.08,4.08,0,0,0,1.51-.27,5.06,5.06,0,0,0,1.18-.64,4.13,4.13,0,0,0,.81-.79,4,4,0,0,0,.45-.71,3.43,3.43,0,0,0,.28-1.51Z" style="fill: #fff"/>
    <path d="M101.5,196.58l2.19-.36a1.34,1.34,0,0,1-.07.45c0,.13-.08.23-.1.31l-.34,3h4.21v1.63h-4.21q-.25,2.51-.25,4.71,0,1.35.06,2.29a4.31,4.31,0,0,0,.3,1.47,1.89,1.89,0,0,0,.69.83,2.17,2.17,0,0,0,1.21.3,5,5,0,0,0,2.87-1.18l.62,1.6a6.63,6.63,0,0,1-4,1.43,3.45,3.45,0,0,1-2.94-1.22,6.34,6.34,0,0,1-.84-4q0-1,.06-2.59t.22-3.65h-3V200h3.08Z" style="fill: #fff"/>
    <path d="M112.8,201.52a6,6,0,0,1,4.57-1.79,5.45,5.45,0,0,1,3.72,1.19,5,5,0,0,1,1.36,4v7.93h-1.91v-1.4a7,7,0,0,1-4.6,1.71,5,5,0,0,1-1.81-.31,4.33,4.33,0,0,1-1.36-.81,3.47,3.47,0,0,1-.85-1.15,3.08,3.08,0,0,1-.29-1.29,3.5,3.5,0,0,1,1.67-3.06,9.22,9.22,0,0,1,4.81-1.23h2.41v-.48a3.63,3.63,0,0,0-.8-2.68,3.49,3.49,0,0,0-2.48-.76,4.54,4.54,0,0,0-3.45,1.46Zm7.79,5.3h-1.91a12.45,12.45,0,0,0-2.52.21,4.64,4.64,0,0,0-1.54.58,2,2,0,0,0-.77.83,2.38,2.38,0,0,0-.21,1,1.94,1.94,0,0,0,.79,1.54,2.94,2.94,0,0,0,1.93.65,4.08,4.08,0,0,0,1.51-.27,5.06,5.06,0,0,0,1.18-.64,4.13,4.13,0,0,0,.81-.79,4,4,0,0,0,.45-.71,3.43,3.43,0,0,0,.28-1.51Z" style="fill: #fff"/>
  </g>
  <g>
    <path d="M68.9,321.33h2l4.51,13.43,4.23-13.4H81.6l-5.86,17.58h-.9Z" style="fill: #fff"/>
    <path d="M89.47,325.7a5.47,5.47,0,0,1,2,.36,4.55,4.55,0,0,1,1.67,1.11,5.51,5.51,0,0,1,1.15,1.89,7.69,7.69,0,0,1,.43,2.72c0,.15,0,.3,0,.46s0,.31,0,.46H85.52A6.17,6.17,0,0,0,86,335a4.36,4.36,0,0,0,1,1.47,3.66,3.66,0,0,0,1.37.8,5,5,0,0,0,1.51.24,4.31,4.31,0,0,0,3.31-1.43l1.12,1.09a5.51,5.51,0,0,1-4.49,2,7.27,7.27,0,0,1-2.57-.43,5.26,5.26,0,0,1-2-1.28A5.76,5.76,0,0,1,84,335.31a9.26,9.26,0,0,1,0-5.73,6.18,6.18,0,0,1,1.26-2.12,5.41,5.41,0,0,1,1.86-1.3A5.87,5.87,0,0,1,89.47,325.7Zm-3.87,5.38h7a1.4,1.4,0,0,1,0-.21,1.67,1.67,0,0,0,0-.23,3.29,3.29,0,0,0-.27-1.31,3.49,3.49,0,0,0-.71-1.08,3.53,3.53,0,0,0-1.05-.73,3.1,3.1,0,0,0-1.3-.28,3.54,3.54,0,0,0-2.38.93A4.55,4.55,0,0,0,85.6,331.09Z" style="fill: #fff"/>
    <path d="M99,326h2.07l-.06,2.47a4.27,4.27,0,0,1,1.87-2.06,5.54,5.54,0,0,1,2.74-.71,4.56,4.56,0,0,1,3.43,1.4l-.93,1.93q-.31-.42-.56-.7a3,3,0,0,0-.55-.48,2.6,2.6,0,0,0-.65-.31,2.87,2.87,0,0,0-.86-.11,3.67,3.67,0,0,0-1.75.43,4.81,4.81,0,0,0-1.42,1.15,5.82,5.82,0,0,0-1,1.64,5.21,5.21,0,0,0-.37,1.93v6.25H99Z" style="fill: #fff"/>
    <path d="M115.52,322.59l2.19-.36a1.34,1.34,0,0,1-.07.45c0,.13-.08.23-.1.31l-.34,3h4.21v1.63H117.2q-.25,2.51-.25,4.71,0,1.35.06,2.29a4.31,4.31,0,0,0,.3,1.47,1.89,1.89,0,0,0,.69.83,2.17,2.17,0,0,0,1.21.3,5,5,0,0,0,2.87-1.18l.62,1.6a6.63,6.63,0,0,1-4,1.43,3.45,3.45,0,0,1-2.94-1.22,6.34,6.34,0,0,1-.84-4q0-1,.06-2.59t.22-3.65h-3V326h3.08Z" style="fill: #fff"/>
    <path d="M131.53,325.7a5.47,5.47,0,0,1,2,.36,4.55,4.55,0,0,1,1.67,1.11,5.51,5.51,0,0,1,1.15,1.89,7.69,7.69,0,0,1,.43,2.72c0,.15,0,.3,0,.46s0,.31,0,.46h-9.11A6.17,6.17,0,0,0,128,335a4.36,4.36,0,0,0,1,1.47,3.66,3.66,0,0,0,1.37.8,5,5,0,0,0,1.51.24,4.31,4.31,0,0,0,3.31-1.43l1.12,1.09a5.51,5.51,0,0,1-4.49,2,7.27,7.27,0,0,1-2.57-.43,5.26,5.26,0,0,1-2-1.28,5.76,5.76,0,0,1-1.26-2.09,9.26,9.26,0,0,1,0-5.73,6.18,6.18,0,0,1,1.26-2.12,5.41,5.41,0,0,1,1.86-1.3A5.87,5.87,0,0,1,131.53,325.7Zm-3.87,5.38h7a1.4,1.4,0,0,1,0-.21,1.67,1.67,0,0,0,0-.23,3.29,3.29,0,0,0-.27-1.31,3.49,3.49,0,0,0-.71-1.08,3.53,3.53,0,0,0-1.05-.73,3.1,3.1,0,0,0-1.3-.28,3.54,3.54,0,0,0-2.38.93A4.55,4.55,0,0,0,127.66,331.09Z" style="fill: #fff"/>
    <path d="M148.44,326h2.07l-4.15,6.22,4.71,6.59h-2.3l-3.53-5-3.34,5h-2.3l4.51-6.5L139.69,326h2.22l3.34,4.74Z" style="fill: #fff"/>
    <path d="M80.39,357.08l-1.23,1.68a.25.25,0,0,1-.15-.24.59.59,0,0,0-.07-.27A3.9,3.9,0,0,0,77.48,357a4.84,4.84,0,0,0-2.26-.48,3.12,3.12,0,0,0-2.15.76,2.32,2.32,0,0,0-.85,1.79,2.48,2.48,0,0,0,.21,1.07,3,3,0,0,0,.64.87,5.47,5.47,0,0,0,1.28.86q.84.44,2.19,1a15.15,15.15,0,0,1,2.13,1.05A5.68,5.68,0,0,1,80,365a3.59,3.59,0,0,1,.71,1.25,4.83,4.83,0,0,1,.21,1.47,5.18,5.18,0,0,1-.34,1.81,4.47,4.47,0,0,1-1.05,1.63,5.44,5.44,0,0,1-1.81,1.16,7,7,0,0,1-2.64.45,7.09,7.09,0,0,1-5.47-2.24l1.15-2a.3.3,0,0,1,.14.28.5.5,0,0,0,.08.31,5.06,5.06,0,0,0,1.74,1.36,5.83,5.83,0,0,0,2.64.55,3.82,3.82,0,0,0,1.44-.27A3.76,3.76,0,0,0,78,370a3.24,3.24,0,0,0,.76-1,3,3,0,0,0,.28-1.28,2.48,2.48,0,0,0-.18-1,2.3,2.3,0,0,0-.6-.81,5.24,5.24,0,0,0-1.19-.76q-.77-.38-2-.88a15,15,0,0,1-2.29-1.08,7.59,7.59,0,0,1-1.47-1.11,3.34,3.34,0,0,1-.8-1.21,4,4,0,0,1-.24-1.4,4.07,4.07,0,0,1,.41-1.79,4.63,4.63,0,0,1,1.12-1.47,5.14,5.14,0,0,1,1.7-1,6.21,6.21,0,0,1,2.1-.35,6.42,6.42,0,0,1,2.69.57A6.25,6.25,0,0,1,80.39,357.08Z" style="fill: #fff"/>
    <path d="M84.17,372.47V353.83h2.3s0,0,0,0,0,0,0,0a.45.45,0,0,1-.13.24,1,1,0,0,0-.18.38v7.43a6,6,0,0,1,1.9-1.88,4.39,4.39,0,0,1,2.32-.7,4.17,4.17,0,0,1,1.59.29,3.19,3.19,0,0,1,1.25.94,4.42,4.42,0,0,1,.82,1.65,9.32,9.32,0,0,1,.28,2.47v7.77h-2v-7.71a4.46,4.46,0,0,0-.69-2.83,2.11,2.11,0,0,0-1.67-.81,3.22,3.22,0,0,0-1.29.28,5.14,5.14,0,0,0-1.25.79,3.36,3.36,0,0,0-.93,1.23,4.13,4.13,0,0,0-.32,1.68v7.37Z" style="fill: #fff"/>
    <path d="M98.78,361.17a6,6,0,0,1,4.57-1.79,5.45,5.45,0,0,1,3.72,1.19,5,5,0,0,1,1.36,4v7.93h-1.91v-1.4a7,7,0,0,1-4.6,1.71,5,5,0,0,1-1.81-.31,4.33,4.33,0,0,1-1.36-.81,3.47,3.47,0,0,1-.85-1.15,3.08,3.08,0,0,1-.29-1.29,3.5,3.5,0,0,1,1.67-3.06,9.22,9.22,0,0,1,4.81-1.23h2.41v-.48a3.63,3.63,0,0,0-.8-2.68,3.49,3.49,0,0,0-2.48-.76,4.54,4.54,0,0,0-3.45,1.46Zm7.79,5.3h-1.91a12.45,12.45,0,0,0-2.52.21,4.64,4.64,0,0,0-1.54.58,2,2,0,0,0-.77.83,2.38,2.38,0,0,0-.21,1,1.94,1.94,0,0,0,.79,1.54,2.94,2.94,0,0,0,1.93.65,4.08,4.08,0,0,0,1.51-.27,5.06,5.06,0,0,0,1.18-.64,4.13,4.13,0,0,0,.81-.79,4,4,0,0,0,.45-.71,3.43,3.43,0,0,0,.28-1.51Z" style="fill: #fff"/>
    <path d="M120.62,361.54v-7.71h2.19a.7.7,0,0,1-.14.38.74.74,0,0,0-.14.41l0,16.68a4.41,4.41,0,0,0,.14,1.18h-2a3.08,3.08,0,0,1-.11-1v-1.09a4.64,4.64,0,0,1-1.68,1.7,4.17,4.17,0,0,1-2.15.63,4.81,4.81,0,0,1-2-.42,4.64,4.64,0,0,1-1.65-1.26,6.25,6.25,0,0,1-1.13-2.12,9.68,9.68,0,0,1-.42-3,8.48,8.48,0,0,1,.48-3,6,6,0,0,1,1.24-2,4.87,4.87,0,0,1,1.72-1.18,5.18,5.18,0,0,1,1.93-.38,4.26,4.26,0,0,1,2.31.6A3.75,3.75,0,0,1,120.62,361.54Zm-5.9.37a4.87,4.87,0,0,0-1.19,3.71,7.32,7.32,0,0,0,.91,3.89,3,3,0,0,0,2.69,1.48,2.84,2.84,0,0,0,.89-.15,3.09,3.09,0,0,0,.89-.46,4,4,0,0,0,.75-.73,2.94,2.94,0,0,0,.5-1,9.64,9.64,0,0,0,.31-2.7,15.87,15.87,0,0,0-.08-1.79,5.59,5.59,0,0,0-.26-1.22,2.6,2.6,0,0,0-.46-.83,2.88,2.88,0,0,0-.69-.58,5.06,5.06,0,0,0-.93-.46,2.43,2.43,0,0,0-.82-.15,3.31,3.31,0,0,0-2.49,1Z" style="fill: #fff"/>
    <path d="M131.53,359.35a5.47,5.47,0,0,1,2,.36,4.55,4.55,0,0,1,1.67,1.11,5.51,5.51,0,0,1,1.15,1.89,7.69,7.69,0,0,1,.43,2.72c0,.15,0,.3,0,.46s0,.31,0,.46h-9.11a6.17,6.17,0,0,0,.46,2.26,4.36,4.36,0,0,0,1,1.47,3.66,3.66,0,0,0,1.37.8,5,5,0,0,0,1.51.24,4.31,4.31,0,0,0,3.31-1.43l1.12,1.09a5.51,5.51,0,0,1-4.49,2,7.27,7.27,0,0,1-2.57-.43,5.26,5.26,0,0,1-2-1.28,5.76,5.76,0,0,1-1.26-2.09,9.26,9.26,0,0,1,0-5.73,6.18,6.18,0,0,1,1.26-2.12,5.41,5.41,0,0,1,1.86-1.3A5.87,5.87,0,0,1,131.53,359.35Zm-3.87,5.38h7a1.4,1.4,0,0,1,0-.21,1.67,1.67,0,0,0,0-.23,3.29,3.29,0,0,0-.27-1.31,3.49,3.49,0,0,0-.71-1.08,3.53,3.53,0,0,0-1.05-.73,3.1,3.1,0,0,0-1.3-.28,3.54,3.54,0,0,0-2.38.93A4.55,4.55,0,0,0,127.66,364.73Z" style="fill: #fff"/>
    <path d="M141.06,359.66h2.07l-.06,2.47a4.27,4.27,0,0,1,1.87-2.06,5.54,5.54,0,0,1,2.74-.71,4.56,4.56,0,0,1,3.43,1.4l-.93,1.93q-.31-.42-.56-.7a3,3,0,0,0-.55-.48,2.6,2.6,0,0,0-.65-.31,2.87,2.87,0,0,0-.86-.11,3.67,3.67,0,0,0-1.75.43,4.81,4.81,0,0,0-1.42,1.15,5.82,5.82,0,0,0-1,1.64,5.21,5.21,0,0,0-.37,1.93v6.25h-2Z" style="fill: #fff"/>
  </g>
  <g>
    <path d="M70.38,870.3H80.44V872h-8v5.5h6.48v1.71H72.39v8.58h-2Z" style="fill: #fff"/>
    <path d="M85,875h2.07L87,877.45a4.27,4.27,0,0,1,1.87-2.06,5.54,5.54,0,0,1,2.74-.71,4.56,4.56,0,0,1,3.43,1.4L94.12,878q-.31-.42-.56-.7a3,3,0,0,0-.55-.48,2.6,2.6,0,0,0-.65-.31,2.87,2.87,0,0,0-.86-.11,3.67,3.67,0,0,0-1.75.43A4.81,4.81,0,0,0,88.34,878a5.82,5.82,0,0,0-1,1.64,5.21,5.21,0,0,0-.37,1.93v6.25H85Z" style="fill: #fff"/>
    <path d="M98.78,876.5a6,6,0,0,1,4.57-1.79,5.45,5.45,0,0,1,3.72,1.19,5,5,0,0,1,1.36,4v7.93h-1.91v-1.4a7,7,0,0,1-4.6,1.71,5,5,0,0,1-1.81-.31,4.33,4.33,0,0,1-1.36-.81,3.47,3.47,0,0,1-.85-1.15,3.08,3.08,0,0,1-.29-1.29,3.5,3.5,0,0,1,1.67-3.06,9.22,9.22,0,0,1,4.81-1.23h2.41v-.48a3.63,3.63,0,0,0-.8-2.68,3.49,3.49,0,0,0-2.48-.76,4.54,4.54,0,0,0-3.45,1.46Zm7.79,5.3h-1.91a12.45,12.45,0,0,0-2.52.21,4.64,4.64,0,0,0-1.54.58,2,2,0,0,0-.77.83,2.38,2.38,0,0,0-.21,1,1.94,1.94,0,0,0,.79,1.54,2.94,2.94,0,0,0,1.93.65,4.08,4.08,0,0,0,1.51-.27,5.06,5.06,0,0,0,1.18-.64,4.13,4.13,0,0,0,.81-.79,4,4,0,0,0,.45-.71,3.43,3.43,0,0,0,.28-1.51Z" style="fill: #fff"/>
    <path d="M119.75,875.8a4.77,4.77,0,0,1,3.2-1.15h.36l.25,1.68-.38,0h-.38a4.22,4.22,0,0,0-2.22.59,3.85,3.85,0,0,1,.65,2.16,4,4,0,0,1-.36,1.7,4.5,4.5,0,0,1-1,1.4,4.74,4.74,0,0,1-1.47,1,4.61,4.61,0,0,1-1.79.35,4.71,4.71,0,0,1-1.63-.31,2.36,2.36,0,0,0-.9,1.46.82.82,0,0,0,.55.74,3.47,3.47,0,0,0,1.5.27c.35,0,.71,0,1.08,0s.71,0,1,0a8.66,8.66,0,0,1,2.17.24,4.07,4.07,0,0,1,1.47.67,2.83,2.83,0,0,1,.84,1,2.9,2.9,0,0,1,.28,1.26,3.21,3.21,0,0,1-.36,1.47,3.66,3.66,0,0,1-1.09,1.26,5.69,5.69,0,0,1-1.84.87,9.33,9.33,0,0,1-2.59.32,12.75,12.75,0,0,1-2.65-.24,5.6,5.6,0,0,1-1.78-.66,3.21,3.21,0,0,1-1-1,2.12,2.12,0,0,1-.35-1.16q0-1.51,2.1-2.83a1.84,1.84,0,0,1-1-1.77,3.29,3.29,0,0,1,1.46-2.41,4.18,4.18,0,0,1-1.4-1.51,4,4,0,0,1-.5-2,4.1,4.1,0,0,1,.39-1.78,4.75,4.75,0,0,1,1.05-1.44,4.94,4.94,0,0,1,1.51-1,4.58,4.58,0,0,1,1.75-.35A4.22,4.22,0,0,1,119.75,875.8Zm-5,11.33q-1.6.9-1.6,2a1.4,1.4,0,0,0,.32.94,2.36,2.36,0,0,0,.87.62,5.17,5.17,0,0,0,1.29.35,10.49,10.49,0,0,0,1.56.11,5.83,5.83,0,0,0,2.83-.62,1.86,1.86,0,0,0,1.12-1.65,1.53,1.53,0,0,0-.63-1.18,3.09,3.09,0,0,0-1.81-.42h-.56q-1.07,0-1.91,0Zm-.17-10.1a2.68,2.68,0,0,0-.62.92,2.89,2.89,0,0,0-.2,1.06,2.66,2.66,0,0,0,.22,1.07,2.8,2.8,0,0,0,1.5,1.49,2.69,2.69,0,0,0,1.08.22,2.66,2.66,0,0,0,1.09-.22,3,3,0,0,0,1.51-1.51,2.57,2.57,0,0,0,.22-1.06,2.67,2.67,0,0,0-.22-1.07,2.9,2.9,0,0,0-1.53-1.52,2.76,2.76,0,0,0-3.07.61Z" style="fill: #fff"/>
    <path d="M125.33,887.8V875h1.85v1.26a3.61,3.61,0,0,1,1.15-1.14,2.78,2.78,0,0,1,1.49-.43,2.17,2.17,0,0,1,1.44.53,2.33,2.33,0,0,1,.8,1.35,3.15,3.15,0,0,1,2.86-1.88,2.15,2.15,0,0,1,1.93.94,3.88,3.88,0,0,1,.56,2.34v9.84h-1.85v-9.08a8.76,8.76,0,0,0-.08-1.37,1.81,1.81,0,0,0-.28-.77.9.9,0,0,0-.39-.34,1.52,1.52,0,0,0-.5-.07,1.16,1.16,0,0,0-.73.29,3,3,0,0,0-.64.74,4.09,4.09,0,0,0-.45,1,3.94,3.94,0,0,0-.17,1.11v8.47h-1.88v-8.92a5.05,5.05,0,0,0-.29-2.13,1.07,1.07,0,0,0-1-.53,1.73,1.73,0,0,0-1.3.8,3.52,3.52,0,0,0-.63,2.23v8.55Z" style="fill: #fff"/>
    <path d="M145.55,874.68a5.47,5.47,0,0,1,2,.36,4.55,4.55,0,0,1,1.67,1.11,5.51,5.51,0,0,1,1.15,1.89,7.69,7.69,0,0,1,.43,2.72c0,.15,0,.3,0,.46s0,.31,0,.46h-9.11a6.17,6.17,0,0,0,.46,2.26,4.36,4.36,0,0,0,1,1.47,3.66,3.66,0,0,0,1.37.8,5,5,0,0,0,1.51.24,4.31,4.31,0,0,0,3.31-1.43l1.12,1.09a5.51,5.51,0,0,1-4.49,2,7.27,7.27,0,0,1-2.57-.43,5.26,5.26,0,0,1-2-1.28,5.76,5.76,0,0,1-1.26-2.09,9.26,9.26,0,0,1,0-5.73,6.18,6.18,0,0,1,1.26-2.12,5.41,5.41,0,0,1,1.86-1.3A5.87,5.87,0,0,1,145.55,874.68Zm-3.87,5.38h7a1.4,1.4,0,0,1,0-.21,1.67,1.67,0,0,0,0-.23,3.29,3.29,0,0,0-.27-1.31,3.49,3.49,0,0,0-.71-1.08,3.53,3.53,0,0,0-1.05-.73,3.1,3.1,0,0,0-1.3-.28,3.54,3.54,0,0,0-2.38.93A4.55,4.55,0,0,0,141.68,880.06Z" style="fill: #fff"/>
    <path d="M154.21,887.8V875h2v2.27a5.71,5.71,0,0,1,1.88-1.88,4.41,4.41,0,0,1,2.33-.7A4.23,4.23,0,0,1,162,875a3.18,3.18,0,0,1,1.27.94,4.57,4.57,0,0,1,.83,1.65,8.86,8.86,0,0,1,.3,2.47v7.77h-2v-7.71a4.44,4.44,0,0,0-.69-2.83,2.13,2.13,0,0,0-1.68-.81,3.44,3.44,0,0,0-1.32.28,4,4,0,0,0-1.23.8,4.23,4.23,0,0,0-.9,1.25,3.75,3.75,0,0,0-.35,1.65v7.37Z" style="fill: #fff"/>
    <path d="M171.59,871.56l2.19-.36a1.34,1.34,0,0,1-.07.45c0,.13-.08.23-.1.31l-.34,3h4.21v1.63h-4.21q-.25,2.51-.25,4.71,0,1.35.06,2.29a4.31,4.31,0,0,0,.3,1.47,1.89,1.89,0,0,0,.69.83,2.17,2.17,0,0,0,1.21.3,5,5,0,0,0,2.87-1.18l.62,1.6a6.63,6.63,0,0,1-4,1.43,3.45,3.45,0,0,1-2.94-1.22,6.34,6.34,0,0,1-.84-4q0-1,.06-2.59t.22-3.65h-3V875h3.08Z" style="fill: #fff"/>
    <path d="M80.39,906.05l-1.23,1.68a.25.25,0,0,1-.15-.24.59.59,0,0,0-.07-.27A3.9,3.9,0,0,0,77.48,906a4.84,4.84,0,0,0-2.26-.48,3.12,3.12,0,0,0-2.15.76,2.32,2.32,0,0,0-.85,1.79,2.48,2.48,0,0,0,.21,1.07,3,3,0,0,0,.64.87,5.47,5.47,0,0,0,1.28.86q.84.44,2.19,1a15.15,15.15,0,0,1,2.13,1.05A5.68,5.68,0,0,1,80,914a3.59,3.59,0,0,1,.71,1.25,4.83,4.83,0,0,1,.21,1.47,5.18,5.18,0,0,1-.34,1.81,4.47,4.47,0,0,1-1.05,1.63,5.44,5.44,0,0,1-1.81,1.16,7,7,0,0,1-2.64.45,7.09,7.09,0,0,1-5.47-2.24l1.15-2a.3.3,0,0,1,.14.28.5.5,0,0,0,.08.31,5.06,5.06,0,0,0,1.74,1.36,5.83,5.83,0,0,0,2.64.55,3.82,3.82,0,0,0,1.44-.27A3.76,3.76,0,0,0,78,919a3.24,3.24,0,0,0,.76-1,3,3,0,0,0,.28-1.28,2.48,2.48,0,0,0-.18-1,2.3,2.3,0,0,0-.6-.81,5.24,5.24,0,0,0-1.19-.76q-.77-.38-2-.88a15,15,0,0,1-2.29-1.08,7.59,7.59,0,0,1-1.47-1.11,3.34,3.34,0,0,1-.8-1.21,4,4,0,0,1-.24-1.4,4.07,4.07,0,0,1,.41-1.79,4.63,4.63,0,0,1,1.12-1.47,5.14,5.14,0,0,1,1.7-1,6.21,6.21,0,0,1,2.1-.35,6.42,6.42,0,0,1,2.69.57A6.25,6.25,0,0,1,80.39,906.05Z" style="fill: #fff"/>
    <path d="M84.17,921.44V902.8h2.3s0,0,0,0,0,0,0,0a.45.45,0,0,1-.13.24,1,1,0,0,0-.18.38v7.43a6,6,0,0,1,1.9-1.88,4.39,4.39,0,0,1,2.32-.7,4.17,4.17,0,0,1,1.59.29,3.19,3.19,0,0,1,1.25.94,4.42,4.42,0,0,1,.82,1.65,9.32,9.32,0,0,1,.28,2.47v7.77h-2v-7.71a4.46,4.46,0,0,0-.69-2.83,2.11,2.11,0,0,0-1.67-.81,3.22,3.22,0,0,0-1.29.28,5.14,5.14,0,0,0-1.25.79,3.36,3.36,0,0,0-.93,1.23,4.13,4.13,0,0,0-.32,1.68v7.37Z" style="fill: #fff"/>
    <path d="M98.78,910.14a6,6,0,0,1,4.57-1.79,5.45,5.45,0,0,1,3.72,1.19,5,5,0,0,1,1.36,4v7.93h-1.91V920a7,7,0,0,1-4.6,1.71,5,5,0,0,1-1.81-.31,4.33,4.33,0,0,1-1.36-.81,3.47,3.47,0,0,1-.85-1.15,3.08,3.08,0,0,1-.29-1.29,3.5,3.5,0,0,1,1.67-3.06,9.22,9.22,0,0,1,4.81-1.23h2.41v-.48a3.63,3.63,0,0,0-.8-2.68,3.49,3.49,0,0,0-2.48-.76,4.54,4.54,0,0,0-3.45,1.46Zm7.79,5.3h-1.91a12.45,12.45,0,0,0-2.52.21,4.64,4.64,0,0,0-1.54.58,2,2,0,0,0-.77.83,2.38,2.38,0,0,0-.21,1,1.94,1.94,0,0,0,.79,1.54,2.94,2.94,0,0,0,1.93.65,4.08,4.08,0,0,0,1.51-.27,5.06,5.06,0,0,0,1.18-.64,4.13,4.13,0,0,0,.81-.79,4,4,0,0,0,.45-.71,3.43,3.43,0,0,0,.28-1.51Z" style="fill: #fff"/>
    <path d="M120.62,910.51V902.8h2.19a.7.7,0,0,1-.14.38.74.74,0,0,0-.14.41l0,16.68a4.41,4.41,0,0,0,.14,1.18h-2a3.08,3.08,0,0,1-.11-1V919.4a4.64,4.64,0,0,1-1.68,1.7,4.17,4.17,0,0,1-2.15.63,4.81,4.81,0,0,1-2-.42,4.64,4.64,0,0,1-1.65-1.26,6.25,6.25,0,0,1-1.13-2.12,9.68,9.68,0,0,1-.42-3,8.48,8.48,0,0,1,.48-3,6,6,0,0,1,1.24-2,4.87,4.87,0,0,1,1.72-1.18,5.18,5.18,0,0,1,1.93-.38,4.26,4.26,0,0,1,2.31.6A3.75,3.75,0,0,1,120.62,910.51Zm-5.9.37a4.87,4.87,0,0,0-1.19,3.71,7.32,7.32,0,0,0,.91,3.89,3,3,0,0,0,2.69,1.48,2.84,2.84,0,0,0,.89-.15,3.09,3.09,0,0,0,.89-.46,4,4,0,0,0,.75-.73,2.94,2.94,0,0,0,.5-1,9.64,9.64,0,0,0,.31-2.7,15.87,15.87,0,0,0-.08-1.79,5.59,5.59,0,0,0-.26-1.22,2.6,2.6,0,0,0-.46-.83,2.88,2.88,0,0,0-.69-.58,5.06,5.06,0,0,0-.93-.46,2.43,2.43,0,0,0-.82-.15,3.31,3.31,0,0,0-2.49,1Z" style="fill: #fff"/>
    <path d="M131.53,908.32a5.47,5.47,0,0,1,2,.36,4.55,4.55,0,0,1,1.67,1.11,5.51,5.51,0,0,1,1.15,1.89,7.69,7.69,0,0,1,.43,2.72c0,.15,0,.3,0,.46s0,.31,0,.46h-9.11a6.17,6.17,0,0,0,.46,2.26,4.36,4.36,0,0,0,1,1.47,3.66,3.66,0,0,0,1.37.8,5,5,0,0,0,1.51.24,4.31,4.31,0,0,0,3.31-1.43l1.12,1.09a5.51,5.51,0,0,1-4.49,2,7.27,7.27,0,0,1-2.57-.43,5.26,5.26,0,0,1-2-1.28,5.76,5.76,0,0,1-1.26-2.09,9.26,9.26,0,0,1,0-5.73,6.18,6.18,0,0,1,1.26-2.12,5.41,5.41,0,0,1,1.86-1.3A5.87,5.87,0,0,1,131.53,908.32Zm-3.87,5.38h7a1.4,1.4,0,0,1,0-.21,1.67,1.67,0,0,0,0-.23,3.29,3.29,0,0,0-.27-1.31,3.49,3.49,0,0,0-.71-1.08,3.53,3.53,0,0,0-1.05-.73,3.1,3.1,0,0,0-1.3-.28,3.54,3.54,0,0,0-2.38.93A4.55,4.55,0,0,0,127.66,913.71Z" style="fill: #fff"/>
    <path d="M141.06,908.63h2.07l-.06,2.47A4.27,4.27,0,0,1,145,909a5.54,5.54,0,0,1,2.74-.71,4.56,4.56,0,0,1,3.43,1.4l-.93,1.93q-.31-.42-.56-.7a3,3,0,0,0-.55-.48,2.6,2.6,0,0,0-.65-.31,2.87,2.87,0,0,0-.86-.11,3.67,3.67,0,0,0-1.75.43,4.81,4.81,0,0,0-1.42,1.15,5.82,5.82,0,0,0-1,1.64,5.21,5.21,0,0,0-.37,1.93v6.25h-2Z" style="fill: #fff"/>
  </g>
  <g>
    <path d="M69.06,511H81.2v1.77H76v15.73H74V512.75h-5Z" style="fill: #fff"/>
    <path d="M85,515.67h2.07L87,518.14a4.27,4.27,0,0,1,1.87-2.06,5.54,5.54,0,0,1,2.74-.71,4.56,4.56,0,0,1,3.43,1.4l-.93,1.93q-.31-.42-.56-.7a3,3,0,0,0-.55-.48,2.6,2.6,0,0,0-.65-.31,2.87,2.87,0,0,0-.86-.11,3.67,3.67,0,0,0-1.75.43,4.81,4.81,0,0,0-1.42,1.15,5.82,5.82,0,0,0-1,1.64,5.21,5.21,0,0,0-.37,1.93v6.25H85Z" style="fill: #fff"/>
    <path d="M99.2,515.67h5.13v11.19h3v1.63H99v-1.63h3.28V517.3H99.2Zm3.14-5.16a1.38,1.38,0,0,1,1-.42,1.48,1.48,0,0,1,1.46,1.46,1.36,1.36,0,0,1-.43,1,1.42,1.42,0,0,1-1,.42,1.44,1.44,0,0,1-1.43-1.43A1.41,1.41,0,0,1,102.34,510.51Z" style="fill: #fff"/>
    <path d="M112.8,517.18a6,6,0,0,1,4.57-1.79,5.45,5.45,0,0,1,3.72,1.19,5,5,0,0,1,1.36,4v7.93h-1.91v-1.4a7,7,0,0,1-4.6,1.71,5,5,0,0,1-1.81-.31,4.33,4.33,0,0,1-1.36-.81,3.47,3.47,0,0,1-.85-1.15,3.08,3.08,0,0,1-.29-1.29,3.5,3.5,0,0,1,1.67-3.06,9.22,9.22,0,0,1,4.81-1.23h2.41v-.48a3.63,3.63,0,0,0-.8-2.68,3.49,3.49,0,0,0-2.48-.76,4.54,4.54,0,0,0-3.45,1.46Zm7.79,5.3h-1.91a12.45,12.45,0,0,0-2.52.21,4.64,4.64,0,0,0-1.54.58,2,2,0,0,0-.77.83,2.38,2.38,0,0,0-.21,1,1.94,1.94,0,0,0,.79,1.54,2.94,2.94,0,0,0,1.93.65,4.08,4.08,0,0,0,1.51-.27,5.06,5.06,0,0,0,1.18-.64,4.13,4.13,0,0,0,.81-.79,4,4,0,0,0,.45-.71,3.43,3.43,0,0,0,.28-1.51Z" style="fill: #fff"/>
    <path d="M126.17,528.48V515.67h2v2.27a5.71,5.71,0,0,1,1.88-1.88,4.41,4.41,0,0,1,2.33-.7,4.23,4.23,0,0,1,1.58.29,3.18,3.18,0,0,1,1.27.94,4.57,4.57,0,0,1,.83,1.65,8.86,8.86,0,0,1,.3,2.47v7.77h-2v-7.71a4.44,4.44,0,0,0-.69-2.83,2.13,2.13,0,0,0-1.68-.81,3.44,3.44,0,0,0-1.32.28,4,4,0,0,0-1.23.8,4.23,4.23,0,0,0-.9,1.25,3.75,3.75,0,0,0-.35,1.65v7.37Z" style="fill: #fff"/>
    <path d="M147.79,516.48a4.77,4.77,0,0,1,3.2-1.15h.36l.25,1.68-.38,0h-.38a4.22,4.22,0,0,0-2.22.59,3.85,3.85,0,0,1,.65,2.16,4,4,0,0,1-.36,1.7,4.5,4.5,0,0,1-1,1.4,4.74,4.74,0,0,1-1.47,1,4.61,4.61,0,0,1-1.79.35,4.71,4.71,0,0,1-1.63-.31,2.36,2.36,0,0,0-.9,1.46.82.82,0,0,0,.55.74,3.47,3.47,0,0,0,1.5.27c.35,0,.71,0,1.08,0s.71,0,1,0a8.66,8.66,0,0,1,2.17.24,4.07,4.07,0,0,1,1.47.67,2.83,2.83,0,0,1,.84,1,2.9,2.9,0,0,1,.28,1.26,3.21,3.21,0,0,1-.36,1.47,3.66,3.66,0,0,1-1.09,1.26,5.69,5.69,0,0,1-1.84.87,9.33,9.33,0,0,1-2.59.32,12.75,12.75,0,0,1-2.65-.24,5.6,5.6,0,0,1-1.78-.66,3.21,3.21,0,0,1-1-1,2.12,2.12,0,0,1-.35-1.16q0-1.51,2.1-2.83a1.84,1.84,0,0,1-1-1.77,3.29,3.29,0,0,1,1.46-2.41,4.18,4.18,0,0,1-1.4-1.51,4,4,0,0,1-.5-2,4.1,4.1,0,0,1,.39-1.78,4.75,4.75,0,0,1,1.05-1.44,4.94,4.94,0,0,1,1.51-1,4.58,4.58,0,0,1,1.75-.35A4.22,4.22,0,0,1,147.79,516.48Zm-5,11.33q-1.6.9-1.6,2a1.4,1.4,0,0,0,.32.94,2.36,2.36,0,0,0,.87.62,5.17,5.17,0,0,0,1.29.35,10.49,10.49,0,0,0,1.56.11,5.83,5.83,0,0,0,2.83-.62,1.86,1.86,0,0,0,1.12-1.65,1.53,1.53,0,0,0-.63-1.18,3.09,3.09,0,0,0-1.81-.42h-.56q-1.07,0-1.91,0Zm-.17-10.1a2.68,2.68,0,0,0-.62.92,2.89,2.89,0,0,0-.2,1.06,2.66,2.66,0,0,0,.22,1.07,2.8,2.8,0,0,0,1.5,1.49,2.69,2.69,0,0,0,1.08.22,2.66,2.66,0,0,0,1.09-.22,3,3,0,0,0,1.51-1.51,2.57,2.57,0,0,0,.22-1.06,2.67,2.67,0,0,0-.22-1.07,2.9,2.9,0,0,0-1.53-1.52,2.76,2.76,0,0,0-3.07.61Z" style="fill: #fff"/>
    <path d="M154.69,509.84h5.64v17h3.76v1.63h-9.56v-1.63h3.79V511.46h-3.62Z" style="fill: #fff"/>
    <path d="M173.59,515.36a5.47,5.47,0,0,1,2,.36,4.55,4.55,0,0,1,1.67,1.11,5.51,5.51,0,0,1,1.15,1.89,7.69,7.69,0,0,1,.43,2.72c0,.15,0,.3,0,.46s0,.31,0,.46h-9.11a6.17,6.17,0,0,0,.46,2.26,4.36,4.36,0,0,0,1,1.47,3.66,3.66,0,0,0,1.37.8,5,5,0,0,0,1.51.24,4.31,4.31,0,0,0,3.31-1.43l1.12,1.09a5.51,5.51,0,0,1-4.49,2,7.27,7.27,0,0,1-2.57-.43,5.26,5.26,0,0,1-2-1.28,5.76,5.76,0,0,1-1.26-2.09,9.26,9.26,0,0,1,0-5.73,6.18,6.18,0,0,1,1.26-2.12,5.41,5.41,0,0,1,1.86-1.3A5.87,5.87,0,0,1,173.59,515.36Zm-3.87,5.38h7a1.4,1.4,0,0,1,0-.21,1.67,1.67,0,0,0,0-.23,3.29,3.29,0,0,0-.27-1.31,3.49,3.49,0,0,0-.71-1.08,3.53,3.53,0,0,0-1.05-.73,3.1,3.1,0,0,0-1.3-.28,3.54,3.54,0,0,0-2.38.93A4.55,4.55,0,0,0,169.72,520.75Z" style="fill: #fff"/>
    <path d="M79.35,548.62a1.13,1.13,0,0,0-.08-.5,4.27,4.27,0,0,0-1.46-1.44,3.66,3.66,0,0,0-1.91-.54,3.5,3.5,0,0,0-1.79.49,4.68,4.68,0,0,0-1.49,1.43,7.44,7.44,0,0,0-1,2.29,12.81,12.81,0,0,0,0,6.07,7.57,7.57,0,0,0,1,2.33,5,5,0,0,0,1.54,1.5,3.6,3.6,0,0,0,1.89.53,3.8,3.8,0,0,0,2-.59,4.5,4.5,0,0,0,1.56-1.6l1.46,1a5.42,5.42,0,0,1-1,1.23,6.68,6.68,0,0,1-1.25.9,6,6,0,0,1-1.32.55,5,5,0,0,1-1.33.18,6.52,6.52,0,0,1-2.68-.52,6.24,6.24,0,0,1-2.13-1.61,7.57,7.57,0,0,1-1.5-2.78,13.36,13.36,0,0,1-.53-4,12.9,12.9,0,0,1,.62-4.3,7.52,7.52,0,0,1,1.63-2.76A6,6,0,0,1,73.73,545a6.15,6.15,0,0,1,2.2-.43,5.76,5.76,0,0,1,1.7.25,6.4,6.4,0,0,1,1.54.7,5.9,5.9,0,0,1,1.28,1.08,5.19,5.19,0,0,1,.9,1.42l-1.88.92A.32.32,0,0,1,79.35,548.62Z" style="fill: #fff"/>
    <path d="M85,549.32h2.07L87,551.78a4.27,4.27,0,0,1,1.87-2.06,5.54,5.54,0,0,1,2.74-.71,4.56,4.56,0,0,1,3.43,1.4l-.93,1.93q-.31-.42-.56-.7a3,3,0,0,0-.55-.48,2.6,2.6,0,0,0-.65-.31,2.87,2.87,0,0,0-.86-.11,3.67,3.67,0,0,0-1.75.43,4.81,4.81,0,0,0-1.42,1.15,5.82,5.82,0,0,0-1,1.64,5.21,5.21,0,0,0-.37,1.93v6.25H85Z" style="fill: #fff"/>
    <path d="M103.49,549a5.47,5.47,0,0,1,2,.36,4.55,4.55,0,0,1,1.67,1.11,5.51,5.51,0,0,1,1.15,1.89,7.69,7.69,0,0,1,.43,2.72c0,.15,0,.3,0,.46s0,.31,0,.46H99.54a6.17,6.17,0,0,0,.46,2.26,4.36,4.36,0,0,0,1,1.47,3.66,3.66,0,0,0,1.37.8,5,5,0,0,0,1.51.24,4.31,4.31,0,0,0,3.31-1.43l1.12,1.09a5.51,5.51,0,0,1-4.49,2,7.27,7.27,0,0,1-2.57-.43,5.26,5.26,0,0,1-2-1.28A5.76,5.76,0,0,1,98,558.61a9.26,9.26,0,0,1,0-5.73,6.18,6.18,0,0,1,1.26-2.12,5.41,5.41,0,0,1,1.86-1.3A5.87,5.87,0,0,1,103.49,549Zm-3.87,5.38h7a1.4,1.4,0,0,1,0-.21,1.67,1.67,0,0,0,0-.23,3.29,3.29,0,0,0-.27-1.31,3.49,3.49,0,0,0-.71-1.08,3.53,3.53,0,0,0-1.05-.73,3.1,3.1,0,0,0-1.3-.28,3.54,3.54,0,0,0-2.38.93A4.55,4.55,0,0,0,99.62,554.39Z" style="fill: #fff"/>
    <path d="M112.8,550.83a6,6,0,0,1,4.57-1.79,5.45,5.45,0,0,1,3.72,1.19,5,5,0,0,1,1.36,4v7.93h-1.91v-1.4a7,7,0,0,1-4.6,1.71,5,5,0,0,1-1.81-.31,4.33,4.33,0,0,1-1.36-.81,3.47,3.47,0,0,1-.85-1.15,3.08,3.08,0,0,1-.29-1.29,3.5,3.5,0,0,1,1.67-3.06,9.22,9.22,0,0,1,4.81-1.23h2.41v-.48a3.63,3.63,0,0,0-.8-2.68,3.49,3.49,0,0,0-2.48-.76,4.54,4.54,0,0,0-3.45,1.46Zm7.79,5.3h-1.91a12.45,12.45,0,0,0-2.52.21,4.64,4.64,0,0,0-1.54.58,2,2,0,0,0-.77.83,2.38,2.38,0,0,0-.21,1,1.94,1.94,0,0,0,.79,1.54,2.94,2.94,0,0,0,1.93.65,4.08,4.08,0,0,0,1.51-.27,5.06,5.06,0,0,0,1.18-.64,4.13,4.13,0,0,0,.81-.79,4,4,0,0,0,.45-.71,3.43,3.43,0,0,0,.28-1.51Z" style="fill: #fff"/>
    <path d="M129.54,545.9l2.19-.36a1.34,1.34,0,0,1-.07.45c0,.13-.08.23-.1.31l-.34,3h4.21v1.63h-4.21q-.25,2.51-.25,4.71,0,1.35.06,2.29a4.31,4.31,0,0,0,.3,1.47,1.89,1.89,0,0,0,.69.83,2.17,2.17,0,0,0,1.21.3,5,5,0,0,0,2.87-1.18l.62,1.6a6.63,6.63,0,0,1-4,1.43,3.45,3.45,0,0,1-2.94-1.22,6.34,6.34,0,0,1-.84-4q0-1,.06-2.59t.22-3.65h-3v-1.63h3.08Z" style="fill: #fff"/>
    <path d="M141.26,549.32h5.13V560.5h3v1.63h-8.3V560.5h3.28v-9.56h-3.11Zm3.14-5.16a1.38,1.38,0,0,1,1-.42,1.48,1.48,0,0,1,1.46,1.46,1.36,1.36,0,0,1-.43,1,1.42,1.42,0,0,1-1,.42,1.44,1.44,0,0,1-1.43-1.43A1.41,1.41,0,0,1,144.4,544.16Z" style="fill: #fff"/>
    <path d="M159.43,549a5.49,5.49,0,0,1,2.23.46,5.37,5.37,0,0,1,1.84,1.33,6.5,6.5,0,0,1,1.25,2.12,8,8,0,0,1,.46,2.79,8.17,8.17,0,0,1-.45,2.8,6.5,6.5,0,0,1-1.23,2.12,5.25,5.25,0,0,1-1.85,1.35,5.64,5.64,0,0,1-2.27.46,5.4,5.4,0,0,1-2.31-.5,6,6,0,0,1-1.89-1.39,6.6,6.6,0,0,1-1.29-2.12,7.65,7.65,0,0,1,0-5.36,6.58,6.58,0,0,1,1.32-2.15,6.32,6.32,0,0,1,1.92-1.4A5.24,5.24,0,0,1,159.43,549Zm3.76,6.76a6.6,6.6,0,0,0-.32-2.14,5,5,0,0,0-.86-1.58,3.66,3.66,0,0,0-1.22-1,3.26,3.26,0,0,0-2.89,0,3.52,3.52,0,0,0-1.21,1,5,5,0,0,0-.83,1.56,7,7,0,0,0,0,4.11,5.38,5.38,0,0,0,.83,1.6,3.66,3.66,0,0,0,1.22,1,3.17,3.17,0,0,0,1.49.36,3.41,3.41,0,0,0,1.47-.32,3.45,3.45,0,0,0,1.21-1,4.64,4.64,0,0,0,.81-1.56A6.93,6.93,0,0,0,163.18,555.79Z" style="fill: #fff"/>
    <path d="M168.23,562.13V549.32h2v2.27a5.71,5.71,0,0,1,1.88-1.88,4.41,4.41,0,0,1,2.33-.7,4.23,4.23,0,0,1,1.58.29,3.18,3.18,0,0,1,1.27.94,4.57,4.57,0,0,1,.83,1.65,8.86,8.86,0,0,1,.3,2.47v7.77h-2v-7.71a4.44,4.44,0,0,0-.69-2.83,2.13,2.13,0,0,0-1.68-.81,3.44,3.44,0,0,0-1.32.28,4,4,0,0,0-1.23.8,4.23,4.23,0,0,0-.9,1.25,3.75,3.75,0,0,0-.35,1.65v7.37Z" style="fill: #fff"/>
  </g>
  <g>
    <path d="M70.38,690.64H80.44v1.71h-8v5.5h6.48v1.71H72.39v8.58h-2Z" style="fill: #fff"/>
    <path d="M85,695.33h2.07L87,697.79a4.27,4.27,0,0,1,1.87-2.06,5.54,5.54,0,0,1,2.74-.71,4.56,4.56,0,0,1,3.43,1.4l-.93,1.93q-.31-.42-.56-.7a3,3,0,0,0-.55-.48,2.6,2.6,0,0,0-.65-.31,2.87,2.87,0,0,0-.86-.11,3.67,3.67,0,0,0-1.75.43,4.81,4.81,0,0,0-1.42,1.15,5.82,5.82,0,0,0-1,1.64,5.21,5.21,0,0,0-.37,1.93v6.25H85Z" style="fill: #fff"/>
    <path d="M98.78,696.84a6,6,0,0,1,4.57-1.79,5.45,5.45,0,0,1,3.72,1.19,5,5,0,0,1,1.36,4v7.93h-1.91v-1.4a7,7,0,0,1-4.6,1.71,5,5,0,0,1-1.81-.31,4.33,4.33,0,0,1-1.36-.81,3.47,3.47,0,0,1-.85-1.15,3.08,3.08,0,0,1-.29-1.29,3.5,3.5,0,0,1,1.67-3.06,9.22,9.22,0,0,1,4.81-1.23h2.41v-.48a3.63,3.63,0,0,0-.8-2.68,3.49,3.49,0,0,0-2.48-.76,4.54,4.54,0,0,0-3.45,1.46Zm7.79,5.3h-1.91a12.45,12.45,0,0,0-2.52.21,4.64,4.64,0,0,0-1.54.58,2,2,0,0,0-.77.83,2.38,2.38,0,0,0-.21,1,1.94,1.94,0,0,0,.79,1.54,2.94,2.94,0,0,0,1.93.65,4.08,4.08,0,0,0,1.51-.27A5.06,5.06,0,0,0,105,706a4.13,4.13,0,0,0,.81-.79,4,4,0,0,0,.45-.71,3.43,3.43,0,0,0,.28-1.51Z" style="fill: #fff"/>
    <path d="M119.75,696.14a4.77,4.77,0,0,1,3.2-1.15h.36l.25,1.68-.38,0h-.38a4.22,4.22,0,0,0-2.22.59,3.85,3.85,0,0,1,.65,2.16,4,4,0,0,1-.36,1.7,4.5,4.5,0,0,1-1,1.4,4.74,4.74,0,0,1-1.47,1,4.61,4.61,0,0,1-1.79.35,4.71,4.71,0,0,1-1.63-.31,2.36,2.36,0,0,0-.9,1.46.82.82,0,0,0,.55.74,3.47,3.47,0,0,0,1.5.27c.35,0,.71,0,1.08,0s.71,0,1,0a8.66,8.66,0,0,1,2.17.24,4.07,4.07,0,0,1,1.47.67,2.83,2.83,0,0,1,.84,1A2.9,2.9,0,0,1,123,709a3.21,3.21,0,0,1-.36,1.47,3.66,3.66,0,0,1-1.09,1.26,5.69,5.69,0,0,1-1.84.87,9.33,9.33,0,0,1-2.59.32,12.75,12.75,0,0,1-2.65-.24,5.6,5.6,0,0,1-1.78-.66,3.21,3.21,0,0,1-1-1,2.12,2.12,0,0,1-.35-1.16q0-1.51,2.1-2.83a1.84,1.84,0,0,1-1-1.77,3.29,3.29,0,0,1,1.46-2.41,4.18,4.18,0,0,1-1.4-1.51,4,4,0,0,1-.5-2,4.1,4.1,0,0,1,.39-1.78,4.75,4.75,0,0,1,1.05-1.44,4.94,4.94,0,0,1,1.51-1,4.58,4.58,0,0,1,1.75-.35A4.22,4.22,0,0,1,119.75,696.14Zm-5,11.33q-1.6.9-1.6,2a1.4,1.4,0,0,0,.32.94,2.36,2.36,0,0,0,.87.62,5.17,5.17,0,0,0,1.29.35,10.49,10.49,0,0,0,1.56.11,5.83,5.83,0,0,0,2.83-.62,1.86,1.86,0,0,0,1.12-1.65,1.53,1.53,0,0,0-.63-1.18,3.09,3.09,0,0,0-1.81-.42h-.56q-1.07,0-1.91,0Zm-.17-10.1a2.68,2.68,0,0,0-.62.92,2.89,2.89,0,0,0-.2,1.06,2.66,2.66,0,0,0,.22,1.07,2.8,2.8,0,0,0,1.5,1.49,2.69,2.69,0,0,0,1.08.22,2.66,2.66,0,0,0,1.09-.22,3,3,0,0,0,1.51-1.51,2.57,2.57,0,0,0,.22-1.06,2.67,2.67,0,0,0-.22-1.07,2.9,2.9,0,0,0-1.53-1.52,2.76,2.76,0,0,0-3.07.61Z" style="fill: #fff"/>
    <path d="M125.33,708.14V695.33h1.85v1.26a3.61,3.61,0,0,1,1.15-1.14,2.78,2.78,0,0,1,1.49-.43,2.17,2.17,0,0,1,1.44.53,2.33,2.33,0,0,1,.8,1.35,3.15,3.15,0,0,1,2.86-1.88,2.15,2.15,0,0,1,1.93.94,3.88,3.88,0,0,1,.56,2.34v9.84h-1.85v-9.08a8.76,8.76,0,0,0-.08-1.37,1.81,1.81,0,0,0-.28-.77.9.9,0,0,0-.39-.34,1.52,1.52,0,0,0-.5-.07,1.16,1.16,0,0,0-.73.29,3,3,0,0,0-.64.74,4.09,4.09,0,0,0-.45,1,3.94,3.94,0,0,0-.17,1.11v8.47h-1.88v-8.92a5.05,5.05,0,0,0-.29-2.13,1.07,1.07,0,0,0-1-.53,1.73,1.73,0,0,0-1.3.8,3.52,3.52,0,0,0-.63,2.23v8.55Z" style="fill: #fff"/>
    <path d="M145.55,695a5.47,5.47,0,0,1,2,.36,4.55,4.55,0,0,1,1.67,1.11,5.51,5.51,0,0,1,1.15,1.89,7.69,7.69,0,0,1,.43,2.72c0,.15,0,.3,0,.46s0,.31,0,.46h-9.11a6.17,6.17,0,0,0,.46,2.26,4.36,4.36,0,0,0,1,1.47,3.66,3.66,0,0,0,1.37.8,5,5,0,0,0,1.51.24,4.31,4.31,0,0,0,3.31-1.43l1.12,1.09a5.51,5.51,0,0,1-4.49,2,7.27,7.27,0,0,1-2.57-.43,5.26,5.26,0,0,1-2-1.28,5.76,5.76,0,0,1-1.26-2.09,9.26,9.26,0,0,1,0-5.73,6.18,6.18,0,0,1,1.26-2.12,5.41,5.41,0,0,1,1.86-1.3A5.87,5.87,0,0,1,145.55,695Zm-3.87,5.38h7a1.4,1.4,0,0,1,0-.21,1.67,1.67,0,0,0,0-.23,3.29,3.29,0,0,0-.27-1.31,3.49,3.49,0,0,0-.71-1.08,3.53,3.53,0,0,0-1.05-.73,3.1,3.1,0,0,0-1.3-.28,3.54,3.54,0,0,0-2.38.93A4.55,4.55,0,0,0,141.68,700.4Z" style="fill: #fff"/>
    <path d="M154.21,708.14V695.33h2v2.27a5.71,5.71,0,0,1,1.88-1.88,4.41,4.41,0,0,1,2.33-.7,4.23,4.23,0,0,1,1.58.29,3.18,3.18,0,0,1,1.27.94,4.57,4.57,0,0,1,.83,1.65,8.86,8.86,0,0,1,.3,2.47v7.77h-2v-7.71a4.44,4.44,0,0,0-.69-2.83,2.13,2.13,0,0,0-1.68-.81,3.44,3.44,0,0,0-1.32.28,4,4,0,0,0-1.23.8,4.23,4.23,0,0,0-.9,1.25,3.75,3.75,0,0,0-.35,1.65v7.37Z" style="fill: #fff"/>
    <path d="M171.59,691.91l2.19-.36a1.34,1.34,0,0,1-.07.45c0,.13-.08.23-.1.31l-.34,3h4.21V697h-4.21q-.25,2.51-.25,4.71,0,1.35.06,2.29a4.31,4.31,0,0,0,.3,1.47,1.89,1.89,0,0,0,.69.83,2.17,2.17,0,0,0,1.21.3,5,5,0,0,0,2.87-1.18l.62,1.6a6.63,6.63,0,0,1-4,1.43,3.45,3.45,0,0,1-2.94-1.22,6.34,6.34,0,0,1-.84-4q0-1,.06-2.59t.22-3.65h-3v-1.63h3.08Z" style="fill: #fff"/>
    <path d="M69.06,724.29H81.2v1.77H76v15.73H74V726.06h-5Z" style="fill: #fff"/>
    <path d="M89.47,728.67a5.47,5.47,0,0,1,2,.36,4.55,4.55,0,0,1,1.67,1.11A5.51,5.51,0,0,1,94.25,732a7.69,7.69,0,0,1,.43,2.72c0,.15,0,.3,0,.46s0,.31,0,.46H85.52a6.17,6.17,0,0,0,.46,2.26,4.36,4.36,0,0,0,1,1.47,3.66,3.66,0,0,0,1.37.8,5,5,0,0,0,1.51.24A4.31,4.31,0,0,0,93.2,739l1.12,1.09a5.51,5.51,0,0,1-4.49,2,7.27,7.27,0,0,1-2.57-.43,5.26,5.26,0,0,1-2-1.28A5.76,5.76,0,0,1,84,738.27a9.26,9.26,0,0,1,0-5.73,6.18,6.18,0,0,1,1.26-2.12,5.41,5.41,0,0,1,1.86-1.3A5.87,5.87,0,0,1,89.47,728.67ZM85.6,734h7a1.4,1.4,0,0,1,0-.21,1.67,1.67,0,0,0,0-.23,3.29,3.29,0,0,0-.27-1.31,3.49,3.49,0,0,0-.71-1.08,3.53,3.53,0,0,0-1.05-.73,3.1,3.1,0,0,0-1.3-.28,3.54,3.54,0,0,0-2.38.93A4.55,4.55,0,0,0,85.6,734Z" style="fill: #fff"/>
    <path d="M108.34,730.68l-1.18,1.77c-.09,0-.14-.09-.14-.22a.52.52,0,0,0-.06-.28,5.08,5.08,0,0,0-1.44-1.19,4.12,4.12,0,0,0-2.12-.55,4.17,4.17,0,0,0-1,.13,3.36,3.36,0,0,0-.88.35,1.8,1.8,0,0,0-.61.58,1.44,1.44,0,0,0-.23.8,1.1,1.1,0,0,0,.17.6,1.89,1.89,0,0,0,.54.52,5,5,0,0,0,1,.5q.66.25,1.74.56a8.71,8.71,0,0,1,3.43,1.53,2.79,2.79,0,0,1,1,2.17,3.64,3.64,0,0,1-.36,1.6,3.79,3.79,0,0,1-1.07,1.32,5.32,5.32,0,0,1-1.68.88,7.08,7.08,0,0,1-2.21.32,7.68,7.68,0,0,1-5.41-2L99,738a.49.49,0,0,1,.11.27,1.17,1.17,0,0,0,.2.44,2.52,2.52,0,0,0,.62.59,7.4,7.4,0,0,0,1.38.73,3.55,3.55,0,0,0,1,.29,6.74,6.74,0,0,0,1.07.09,4.79,4.79,0,0,0,1.14-.14,4,4,0,0,0,1-.41,2.41,2.41,0,0,0,.75-.65,1.41,1.41,0,0,0,.28-.86,1.51,1.51,0,0,0-.68-1.24,8.55,8.55,0,0,0-2.48-1q-1.24-.37-1.64-.51a8.5,8.5,0,0,1-1.47-.69,4.16,4.16,0,0,1-.82-.7,3.4,3.4,0,0,1-.59-.93,2.83,2.83,0,0,1-.23-1.14,2.52,2.52,0,0,1,.36-1.29,3.66,3.66,0,0,1,1-1.1,5.6,5.6,0,0,1,1.57-.77,6.36,6.36,0,0,1,2-.3A6.12,6.12,0,0,1,108.34,730.68Z" style="fill: #fff"/>
    <path d="M115.52,725.55l2.19-.36a1.34,1.34,0,0,1-.07.45c0,.13-.08.23-.1.31l-.34,3h4.21v1.63H117.2q-.25,2.51-.25,4.71,0,1.35.06,2.29a4.31,4.31,0,0,0,.3,1.47,1.89,1.89,0,0,0,.69.83,2.17,2.17,0,0,0,1.21.3,5,5,0,0,0,2.87-1.18l.62,1.6a6.63,6.63,0,0,1-4,1.43,3.45,3.45,0,0,1-2.94-1.22,6.34,6.34,0,0,1-.84-4q0-1,.06-2.59t.22-3.65h-3V729h3.08Z" style="fill: #fff"/>
    <path d="M127.24,729h5.13v11.19h3v1.63h-8.3v-1.63h3.28V730.6h-3.11Zm3.14-5.16a1.38,1.38,0,0,1,1-.42,1.48,1.48,0,0,1,1.46,1.46,1.36,1.36,0,0,1-.43,1,1.42,1.42,0,0,1-1,.42,1.44,1.44,0,0,1-1.43-1.43A1.41,1.41,0,0,1,130.38,723.81Z" style="fill: #fff"/>
    <path d="M140.19,741.79V729h2v2.27a5.71,5.71,0,0,1,1.88-1.88,4.41,4.41,0,0,1,2.33-.7A4.23,4.23,0,0,1,148,729a3.18,3.18,0,0,1,1.27.94,4.57,4.57,0,0,1,.83,1.65,8.86,8.86,0,0,1,.3,2.47v7.77h-2v-7.71a4.44,4.44,0,0,0-.69-2.83,2.13,2.13,0,0,0-1.68-.81,3.44,3.44,0,0,0-1.32.28,4,4,0,0,0-1.23.8,4.23,4.23,0,0,0-.9,1.25,3.75,3.75,0,0,0-.35,1.65v7.37Z" style="fill: #fff"/>
    <path d="M161.81,729.79a4.77,4.77,0,0,1,3.2-1.15h.36l.25,1.68-.38,0h-.38a4.22,4.22,0,0,0-2.22.59,3.85,3.85,0,0,1,.65,2.16,4,4,0,0,1-.36,1.7,4.5,4.5,0,0,1-1,1.4,4.74,4.74,0,0,1-1.47,1,4.61,4.61,0,0,1-1.79.35,4.71,4.71,0,0,1-1.63-.31,2.36,2.36,0,0,0-.9,1.46.82.82,0,0,0,.55.74,3.47,3.47,0,0,0,1.5.27c.35,0,.71,0,1.08,0s.71,0,1,0a8.66,8.66,0,0,1,2.17.24,4.07,4.07,0,0,1,1.47.67,2.83,2.83,0,0,1,.84,1,2.9,2.9,0,0,1,.28,1.26,3.21,3.21,0,0,1-.36,1.47,3.66,3.66,0,0,1-1.09,1.26,5.69,5.69,0,0,1-1.84.87,9.33,9.33,0,0,1-2.59.32,12.75,12.75,0,0,1-2.65-.24,5.6,5.6,0,0,1-1.78-.66,3.21,3.21,0,0,1-1-1,2.12,2.12,0,0,1-.35-1.16q0-1.51,2.1-2.83a1.84,1.84,0,0,1-1-1.77,3.29,3.29,0,0,1,1.46-2.41,4.18,4.18,0,0,1-1.4-1.51,4,4,0,0,1-.5-2,4.1,4.1,0,0,1,.39-1.78,4.75,4.75,0,0,1,1.05-1.44,4.94,4.94,0,0,1,1.51-1,4.58,4.58,0,0,1,1.75-.35A4.22,4.22,0,0,1,161.81,729.79Zm-5,11.33q-1.6.9-1.6,2a1.4,1.4,0,0,0,.32.94,2.36,2.36,0,0,0,.87.62,5.17,5.17,0,0,0,1.29.35,10.49,10.49,0,0,0,1.56.11,5.83,5.83,0,0,0,2.83-.62,1.86,1.86,0,0,0,1.12-1.65,1.53,1.53,0,0,0-.63-1.18,3.09,3.09,0,0,0-1.81-.42h-.56q-1.07,0-1.91,0Zm-.17-10.1a2.68,2.68,0,0,0-.62.92,2.89,2.89,0,0,0-.2,1.06,2.66,2.66,0,0,0,.22,1.07,2.8,2.8,0,0,0,1.5,1.49,2.69,2.69,0,0,0,1.08.22,2.66,2.66,0,0,0,1.09-.22,3,3,0,0,0,1.51-1.51,2.57,2.57,0,0,0,.22-1.06,2.67,2.67,0,0,0-.22-1.07,2.9,2.9,0,0,0-1.53-1.52,2.76,2.76,0,0,0-3.07.61Z" style="fill: #fff"/>
  </g>
  <g>
    <path d="M549.35,345h8v1.63h-6.22v18h6.25v1.63h-8Z" style="fill: #abb2a4"/>
    <path d="M570.52,348.55a8.65,8.65,0,0,1,1.3,2.86,14.76,14.76,0,0,1,.49,4,13.52,13.52,0,0,1-.49,3.86,9,9,0,0,1-1.29,2.73,5.35,5.35,0,0,1-1.81,1.63,4.34,4.34,0,0,1-2,.53,3.8,3.8,0,0,1-2.07-.65,6.24,6.24,0,0,1-1.79-1.81,9.67,9.67,0,0,1-1.25-2.8,13.34,13.34,0,0,1-.46-3.63,13.5,13.5,0,0,1,.46-3.64,10.06,10.06,0,0,1,1.25-2.85,6.29,6.29,0,0,1,1.79-1.85,3.75,3.75,0,0,1,2.07-.66A4.71,4.71,0,0,1,570.52,348.55Zm-1,1.65a4.9,4.9,0,0,0-1.29-1.69,2.39,2.39,0,0,0-1.49-.57,2.34,2.34,0,0,0-1.39.5,4.63,4.63,0,0,0-1.22,1.4,8.1,8.1,0,0,0-.85,2.18,11.56,11.56,0,0,0-.32,2.82,13.47,13.47,0,0,0,.39,3.3Zm.64,1.87L564,359.89a5.46,5.46,0,0,0,1.42,1.82,2.45,2.45,0,0,0,1.47.56,2.42,2.42,0,0,0,1.42-.46,4,4,0,0,0,1.15-1.33,8,8,0,0,0,.79-2.11,12.21,12.21,0,0,0,.29-2.81q0-1-.08-1.84A11.22,11.22,0,0,0,570.13,352.07Z" style="fill: #abb2a4"/>
    <path d="M581.57,361.37a1.58,1.58,0,0,1,.5,1.15,1.52,1.52,0,0,1-.49,1.12,1.65,1.65,0,0,1-1.19.48,1.62,1.62,0,0,1-1.18-.46,1.58,1.58,0,0,1,0-2.29,1.63,1.63,0,0,1,1.15-.48A1.73,1.73,0,0,1,581.57,361.37Z" style="fill: #abb2a4"/>
    <path d="M590.71,346.34h8.86v1.77h-7.21l-.28,5a6.43,6.43,0,0,1,2.86-.67,5.35,5.35,0,0,1,2.09.41,4.82,4.82,0,0,1,1.68,1.18,5.4,5.4,0,0,1,1.11,1.85,7.06,7.06,0,0,1,.39,2.43,6.64,6.64,0,0,1-.42,2.42,5.37,5.37,0,0,1-1.16,1.84,5,5,0,0,1-1.74,1.15,5.87,5.87,0,0,1-2.17.39,6.37,6.37,0,0,1-3-.7,5.92,5.92,0,0,1-2.23-2l1.74-1.29a.39.39,0,0,1,.15.34,1.09,1.09,0,0,0,0,.31,2.44,2.44,0,0,0,.39.48,3.41,3.41,0,0,0,.71.53,5,5,0,0,0,1,.43,4.06,4.06,0,0,0,1.24.18,2.94,2.94,0,0,0,1.28-.29,3.29,3.29,0,0,0,1.08-.83,4.09,4.09,0,0,0,.74-1.3,5.63,5.63,0,0,0,0-3.5,3.85,3.85,0,0,0-.77-1.3,3.34,3.34,0,0,0-1.13-.81,3.46,3.46,0,0,0-1.4-.28,3.89,3.89,0,0,0-1.76.43,4.61,4.61,0,0,0-1.51,1.22l-1.23-.5Z" style="fill: #abb2a4"/>
    <path d="M610.33,363.25q0,2.21-3,5.27l-1-.84a7.58,7.58,0,0,0,1.3-1.57,2.84,2.84,0,0,0,.52-1.37.75.75,0,0,0-.22-.52,5.86,5.86,0,0,0-.49-.46,3.23,3.23,0,0,1-.49-.52,1.06,1.06,0,0,1-.22-.66,1.63,1.63,0,0,1,.46-1.18,1.59,1.59,0,0,1,1.19-.48,1.76,1.76,0,0,1,1.32.64A2.4,2.4,0,0,1,610.33,363.25Z" style="fill: #abb2a4"/>
    <path d="M626.6,348.55a8.65,8.65,0,0,1,1.3,2.86,14.76,14.76,0,0,1,.49,4,13.52,13.52,0,0,1-.49,3.86,9,9,0,0,1-1.29,2.73,5.35,5.35,0,0,1-1.81,1.63,4.34,4.34,0,0,1-2,.53,3.8,3.8,0,0,1-2.07-.65,6.24,6.24,0,0,1-1.79-1.81,9.67,9.67,0,0,1-1.25-2.8,13.34,13.34,0,0,1-.46-3.63,13.5,13.5,0,0,1,.46-3.64,10.06,10.06,0,0,1,1.25-2.85,6.29,6.29,0,0,1,1.79-1.85,3.75,3.75,0,0,1,2.07-.66A4.71,4.71,0,0,1,626.6,348.55Zm-1,1.65a4.9,4.9,0,0,0-1.29-1.69,2.39,2.39,0,0,0-1.49-.57,2.34,2.34,0,0,0-1.39.5,4.63,4.63,0,0,0-1.22,1.4,8.1,8.1,0,0,0-.85,2.18,11.56,11.56,0,0,0-.32,2.82,13.47,13.47,0,0,0,.39,3.3Zm.64,1.87L620,359.89a5.46,5.46,0,0,0,1.42,1.82,2.45,2.45,0,0,0,1.47.56,2.42,2.42,0,0,0,1.42-.46,4,4,0,0,0,1.15-1.33,8,8,0,0,0,.79-2.11,12.21,12.21,0,0,0,.29-2.81q0-1-.08-1.84A11.22,11.22,0,0,0,626.2,352.07Z" style="fill: #abb2a4"/>
    <path d="M637.64,361.37a1.58,1.58,0,0,1,.5,1.15,1.52,1.52,0,0,1-.49,1.12,1.65,1.65,0,0,1-1.19.48,1.62,1.62,0,0,1-1.18-.46,1.58,1.58,0,0,1,0-2.29,1.63,1.63,0,0,1,1.15-.48A1.73,1.73,0,0,1,637.64,361.37Z" style="fill: #abb2a4"/>
    <path d="M646.78,346.34h8.86v1.77h-7.21l-.28,5a6.43,6.43,0,0,1,2.86-.67,5.35,5.35,0,0,1,2.09.41,4.82,4.82,0,0,1,1.68,1.18,5.4,5.4,0,0,1,1.11,1.85,7.06,7.06,0,0,1,.39,2.43,6.64,6.64,0,0,1-.42,2.42,5.37,5.37,0,0,1-1.16,1.84,5,5,0,0,1-1.74,1.15,5.87,5.87,0,0,1-2.17.39,6.37,6.37,0,0,1-3-.7,5.92,5.92,0,0,1-2.23-2l1.74-1.29a.39.39,0,0,1,.15.34,1.09,1.09,0,0,0,0,.31,2.44,2.44,0,0,0,.39.48,3.41,3.41,0,0,0,.71.53,5,5,0,0,0,1,.43,4.06,4.06,0,0,0,1.24.18,2.94,2.94,0,0,0,1.28-.29,3.29,3.29,0,0,0,1.08-.83A4.09,4.09,0,0,0,654,360a5.63,5.63,0,0,0,0-3.5,3.85,3.85,0,0,0-.77-1.3,3.34,3.34,0,0,0-1.13-.81,3.46,3.46,0,0,0-1.4-.28,3.89,3.89,0,0,0-1.76.43,4.61,4.61,0,0,0-1.51,1.22l-1.23-.5Z" style="fill: #abb2a4"/>
    <path d="M668.18,345V366.3h-8v-1.63h6.25v-18h-6.22V345Z" style="fill: #abb2a4"/>
  </g>
  <path d="M943.5,490.16a8.65,8.65,0,0,1,1.3,2.86,14.76,14.76,0,0,1,.49,4,13.52,13.52,0,0,1-.49,3.86,9,9,0,0,1-1.29,2.73,5.35,5.35,0,0,1-1.81,1.63,4.34,4.34,0,0,1-2,.53,3.8,3.8,0,0,1-2.07-.65,6.24,6.24,0,0,1-1.79-1.81,9.67,9.67,0,0,1-1.25-2.8,13.34,13.34,0,0,1-.46-3.63,13.5,13.5,0,0,1,.46-3.64,10.06,10.06,0,0,1,1.25-2.85,6.29,6.29,0,0,1,1.79-1.85,3.75,3.75,0,0,1,2.07-.66A4.71,4.71,0,0,1,943.5,490.16Zm-1,1.65a4.9,4.9,0,0,0-1.29-1.69,2.39,2.39,0,0,0-1.49-.57,2.34,2.34,0,0,0-1.39.5,4.63,4.63,0,0,0-1.22,1.4,8.1,8.1,0,0,0-.85,2.18,11.56,11.56,0,0,0-.32,2.82,13.47,13.47,0,0,0,.39,3.3Zm.64,1.87-6.17,7.82a5.46,5.46,0,0,0,1.42,1.82,2.45,2.45,0,0,0,1.47.56,2.42,2.42,0,0,0,1.42-.46,4,4,0,0,0,1.15-1.33,8,8,0,0,0,.79-2.11,12.21,12.21,0,0,0,.29-2.81q0-1-.08-1.84A11.22,11.22,0,0,0,943.11,493.68Z" style="fill: #abb2a4"/>
  <path d="M1189.37,711.92v17.5h-1.93V714.36l-3.53,1-.45-1.09,4.57-2.38Z" style="fill: #abb2a4"/>
  <path d="M1165.17,316.82a5.39,5.39,0,0,1,2.06-2.09,5.6,5.6,0,0,1,2.82-.74,5.16,5.16,0,0,1,3.59,1.43,4.87,4.87,0,0,1,1.09,1.57,4.7,4.7,0,0,1,.39,1.91,5,5,0,0,1-.24,1.54,6.89,6.89,0,0,1-.63,1.39,9.09,9.09,0,0,1-.91,1.26,12.23,12.23,0,0,1-1.08,1.11l-1.68,1.57q-.36.34-.81.8t-.88,1q-.44.53-.86,1.12a10.15,10.15,0,0,0-.73,1.18h7.32a.47.47,0,0,0,.29-.13.47.47,0,0,1,.29-.13h.08v2H1165v-1.23a19.77,19.77,0,0,1,2.24-3.53,21.94,21.94,0,0,1,2.33-2.5l1.35-1.23a10.86,10.86,0,0,0,1.14-1.19,6.08,6.08,0,0,0,.69-1.05,3.65,3.65,0,0,0,.34-1,5.28,5.28,0,0,0,.08-.94,2.92,2.92,0,0,0-.25-1.19,3.37,3.37,0,0,0-.71-1,3.61,3.61,0,0,0-1-.73,2.81,2.81,0,0,0-1.19-.27,3.76,3.76,0,0,0-1.3.21,4.58,4.58,0,0,0-1,.5,3,3,0,0,0-.69.62,1.2,1.2,0,0,0-.28.58,1.13,1.13,0,0,1-.11.34Z" style="fill: #abb2a4"/>
  <g>
    <path d="M431.29,688.2h8v1.63h-6.22v18h6.25v1.63h-8Z" style="fill: #abb2a4"/>
    <path d="M452.46,691.73a8.65,8.65,0,0,1,1.3,2.86,14.76,14.76,0,0,1,.49,4,13.52,13.52,0,0,1-.49,3.86,9,9,0,0,1-1.29,2.73,5.35,5.35,0,0,1-1.81,1.63,4.34,4.34,0,0,1-2,.53,3.8,3.8,0,0,1-2.07-.65,6.24,6.24,0,0,1-1.79-1.81,9.67,9.67,0,0,1-1.25-2.8,13.34,13.34,0,0,1-.46-3.63,13.5,13.5,0,0,1,.46-3.64,10.06,10.06,0,0,1,1.25-2.85,6.29,6.29,0,0,1,1.79-1.85,3.75,3.75,0,0,1,2.07-.66A4.71,4.71,0,0,1,452.46,691.73Zm-1,1.65a4.9,4.9,0,0,0-1.29-1.69,2.39,2.39,0,0,0-1.49-.57,2.34,2.34,0,0,0-1.39.5A4.63,4.63,0,0,0,446,693a8.1,8.1,0,0,0-.85,2.18,11.56,11.56,0,0,0-.32,2.82,13.47,13.47,0,0,0,.39,3.3Zm.64,1.87-6.17,7.82a5.46,5.46,0,0,0,1.42,1.82,2.45,2.45,0,0,0,1.47.56,2.42,2.42,0,0,0,1.42-.46,4,4,0,0,0,1.15-1.33,8,8,0,0,0,.79-2.11,12.21,12.21,0,0,0,.29-2.81q0-1-.08-1.84A11.22,11.22,0,0,0,452.07,695.25Z" style="fill: #abb2a4"/>
    <path d="M463.51,704.55a1.58,1.58,0,0,1,.5,1.15,1.52,1.52,0,0,1-.49,1.12,1.65,1.65,0,0,1-1.19.48,1.62,1.62,0,0,1-1.18-.46,1.58,1.58,0,0,1,0-2.29,1.63,1.63,0,0,1,1.15-.48A1.73,1.73,0,0,1,463.51,704.55Z" style="fill: #abb2a4"/>
    <path d="M480.5,691.73a8.65,8.65,0,0,1,1.3,2.86,14.76,14.76,0,0,1,.49,4,13.52,13.52,0,0,1-.49,3.86,9,9,0,0,1-1.29,2.73,5.35,5.35,0,0,1-1.81,1.63,4.34,4.34,0,0,1-2,.53,3.8,3.8,0,0,1-2.07-.65,6.24,6.24,0,0,1-1.79-1.81,9.67,9.67,0,0,1-1.25-2.8,13.34,13.34,0,0,1-.46-3.63,13.5,13.5,0,0,1,.46-3.64,10.06,10.06,0,0,1,1.25-2.85,6.29,6.29,0,0,1,1.79-1.85,3.75,3.75,0,0,1,2.07-.66A4.71,4.71,0,0,1,480.5,691.73Zm-1,1.65a4.9,4.9,0,0,0-1.29-1.69,2.39,2.39,0,0,0-1.49-.57,2.34,2.34,0,0,0-1.39.5,4.63,4.63,0,0,0-1.22,1.4,8.1,8.1,0,0,0-.85,2.18,11.56,11.56,0,0,0-.32,2.82,13.47,13.47,0,0,0,.39,3.3Zm.64,1.87-6.17,7.82a5.46,5.46,0,0,0,1.42,1.82,2.45,2.45,0,0,0,1.47.56,2.42,2.42,0,0,0,1.42-.46,4,4,0,0,0,1.15-1.33,8,8,0,0,0,.79-2.11,12.21,12.21,0,0,0,.29-2.81q0-1-.08-1.84A11.22,11.22,0,0,0,480.11,695.25Z" style="fill: #abb2a4"/>
    <path d="M492.28,706.43q0,2.21-3,5.27l-1-.84a7.58,7.58,0,0,0,1.3-1.57,2.84,2.84,0,0,0,.52-1.37.75.75,0,0,0-.22-.52,5.86,5.86,0,0,0-.49-.46,3.23,3.23,0,0,1-.49-.52,1.06,1.06,0,0,1-.22-.66,1.63,1.63,0,0,1,.46-1.18,1.59,1.59,0,0,1,1.19-.48,1.76,1.76,0,0,1,1.32.64A2.4,2.4,0,0,1,492.28,706.43Z" style="fill: #abb2a4"/>
    <path d="M508.54,691.73a8.65,8.65,0,0,1,1.3,2.86,14.76,14.76,0,0,1,.49,4,13.52,13.52,0,0,1-.49,3.86,9,9,0,0,1-1.29,2.73,5.35,5.35,0,0,1-1.81,1.63,4.34,4.34,0,0,1-2,.53,3.8,3.8,0,0,1-2.07-.65,6.24,6.24,0,0,1-1.79-1.81,9.67,9.67,0,0,1-1.25-2.8,13.34,13.34,0,0,1-.46-3.63,13.5,13.5,0,0,1,.46-3.64,10.06,10.06,0,0,1,1.25-2.85,6.29,6.29,0,0,1,1.79-1.85,3.75,3.75,0,0,1,2.07-.66A4.71,4.71,0,0,1,508.54,691.73Zm-1,1.65a4.9,4.9,0,0,0-1.29-1.69,2.39,2.39,0,0,0-1.49-.57,2.34,2.34,0,0,0-1.39.5,4.63,4.63,0,0,0-1.22,1.4,8.1,8.1,0,0,0-.85,2.18,11.56,11.56,0,0,0-.32,2.82,13.47,13.47,0,0,0,.39,3.3Zm.64,1.87L502,703.07a5.46,5.46,0,0,0,1.42,1.82,2.45,2.45,0,0,0,1.47.56,2.42,2.42,0,0,0,1.42-.46,4,4,0,0,0,1.15-1.33,8,8,0,0,0,.79-2.11,12.21,12.21,0,0,0,.29-2.81q0-1-.08-1.84A11.22,11.22,0,0,0,508.15,695.25Z" style="fill: #abb2a4"/>
    <path d="M519.59,704.55a1.58,1.58,0,0,1,.5,1.15,1.52,1.52,0,0,1-.49,1.12,1.65,1.65,0,0,1-1.19.48,1.62,1.62,0,0,1-1.18-.46,1.58,1.58,0,0,1,0-2.29,1.63,1.63,0,0,1,1.15-.48A1.73,1.73,0,0,1,519.59,704.55Z" style="fill: #abb2a4"/>
    <path d="M536.58,691.73a8.65,8.65,0,0,1,1.3,2.86,14.76,14.76,0,0,1,.49,4,13.52,13.52,0,0,1-.49,3.86,9,9,0,0,1-1.29,2.73,5.35,5.35,0,0,1-1.81,1.63,4.34,4.34,0,0,1-2,.53,3.8,3.8,0,0,1-2.07-.65,6.24,6.24,0,0,1-1.79-1.81,9.67,9.67,0,0,1-1.25-2.8,13.34,13.34,0,0,1-.46-3.63,13.5,13.5,0,0,1,.46-3.64,10.06,10.06,0,0,1,1.25-2.85,6.29,6.29,0,0,1,1.79-1.85,3.75,3.75,0,0,1,2.07-.66A4.71,4.71,0,0,1,536.58,691.73Zm-1,1.65a4.9,4.9,0,0,0-1.29-1.69,2.39,2.39,0,0,0-1.49-.57,2.34,2.34,0,0,0-1.39.5,4.63,4.63,0,0,0-1.22,1.4,8.1,8.1,0,0,0-.85,2.18A11.56,11.56,0,0,0,529,698a13.47,13.47,0,0,0,.39,3.3Zm.64,1.87L530,703.07a5.46,5.46,0,0,0,1.42,1.82,2.45,2.45,0,0,0,1.47.56,2.42,2.42,0,0,0,1.42-.46,4,4,0,0,0,1.15-1.33,8,8,0,0,0,.79-2.11,12.21,12.21,0,0,0,.29-2.81q0-1-.08-1.84A11.22,11.22,0,0,0,536.19,695.25Z" style="fill: #abb2a4"/>
    <path d="M550.12,688.2v21.28h-8v-1.63h6.25v-18h-6.22V688.2Z" style="fill: #abb2a4"/>
  </g>
  <g>
    <path d="M674,688.2h8v1.63h-6.22v18h6.25v1.63h-8Z" style="fill: #abb2a4"/>
    <path d="M692.78,689.49V707h-1.93V691.93l-3.53,1-.45-1.09,4.57-2.38Z" style="fill: #abb2a4"/>
    <path d="M706.26,704.55a1.58,1.58,0,0,1,.5,1.15,1.52,1.52,0,0,1-.49,1.12,1.65,1.65,0,0,1-1.19.48,1.62,1.62,0,0,1-1.18-.46,1.58,1.58,0,0,1,0-2.29,1.63,1.63,0,0,1,1.15-.48A1.73,1.73,0,0,1,706.26,704.55Z" style="fill: #abb2a4"/>
    <path d="M723.26,691.73a8.65,8.65,0,0,1,1.3,2.86,14.76,14.76,0,0,1,.49,4,13.52,13.52,0,0,1-.49,3.86,9,9,0,0,1-1.29,2.73,5.35,5.35,0,0,1-1.81,1.63,4.34,4.34,0,0,1-2,.53,3.8,3.8,0,0,1-2.07-.65,6.24,6.24,0,0,1-1.79-1.81,9.67,9.67,0,0,1-1.25-2.8,13.34,13.34,0,0,1-.46-3.63,13.5,13.5,0,0,1,.46-3.64,10.06,10.06,0,0,1,1.25-2.85,6.29,6.29,0,0,1,1.79-1.85,3.75,3.75,0,0,1,2.07-.66A4.71,4.71,0,0,1,723.26,691.73Zm-1,1.65a4.9,4.9,0,0,0-1.29-1.69,2.39,2.39,0,0,0-1.49-.57,2.34,2.34,0,0,0-1.39.5,4.63,4.63,0,0,0-1.22,1.4,8.1,8.1,0,0,0-.85,2.18,11.56,11.56,0,0,0-.32,2.82,13.47,13.47,0,0,0,.39,3.3Zm.64,1.87-6.17,7.82a5.46,5.46,0,0,0,1.42,1.82,2.45,2.45,0,0,0,1.47.56A2.42,2.42,0,0,0,721,705a4,4,0,0,0,1.15-1.33,8,8,0,0,0,.79-2.11,12.21,12.21,0,0,0,.29-2.81q0-1-.08-1.84A11.22,11.22,0,0,0,722.86,695.25Z" style="fill: #abb2a4"/>
    <path d="M735,706.43q0,2.21-3,5.27l-1-.84a7.58,7.58,0,0,0,1.3-1.57,2.84,2.84,0,0,0,.52-1.37.75.75,0,0,0-.22-.52,5.86,5.86,0,0,0-.49-.46,3.23,3.23,0,0,1-.49-.52,1.06,1.06,0,0,1-.22-.66,1.63,1.63,0,0,1,.46-1.18,1.59,1.59,0,0,1,1.19-.48,1.76,1.76,0,0,1,1.32.64A2.4,2.4,0,0,1,735,706.43Z" style="fill: #abb2a4"/>
    <path d="M751.29,691.73a8.65,8.65,0,0,1,1.3,2.86,14.76,14.76,0,0,1,.49,4,13.52,13.52,0,0,1-.49,3.86,9,9,0,0,1-1.29,2.73,5.35,5.35,0,0,1-1.81,1.63,4.34,4.34,0,0,1-2,.53,3.8,3.8,0,0,1-2.07-.65,6.24,6.24,0,0,1-1.79-1.81,9.67,9.67,0,0,1-1.25-2.8,13.34,13.34,0,0,1-.46-3.63,13.5,13.5,0,0,1,.46-3.64,10.06,10.06,0,0,1,1.25-2.85,6.29,6.29,0,0,1,1.79-1.85,3.75,3.75,0,0,1,2.07-.66A4.71,4.71,0,0,1,751.29,691.73Zm-1,1.65a4.9,4.9,0,0,0-1.29-1.69,2.39,2.39,0,0,0-1.49-.57,2.34,2.34,0,0,0-1.39.5,4.63,4.63,0,0,0-1.22,1.4,8.1,8.1,0,0,0-.85,2.18,11.56,11.56,0,0,0-.32,2.82,13.47,13.47,0,0,0,.39,3.3Zm.64,1.87-6.17,7.82a5.46,5.46,0,0,0,1.42,1.82,2.45,2.45,0,0,0,1.47.56A2.42,2.42,0,0,0,749,705a4,4,0,0,0,1.15-1.33,8,8,0,0,0,.79-2.11,12.21,12.21,0,0,0,.29-2.81q0-1-.08-1.84A11.22,11.22,0,0,0,750.9,695.25Z" style="fill: #abb2a4"/>
    <path d="M762.34,704.55a1.58,1.58,0,0,1,.5,1.15,1.52,1.52,0,0,1-.49,1.12,1.65,1.65,0,0,1-1.19.48,1.62,1.62,0,0,1-1.18-.46,1.58,1.58,0,0,1,0-2.29,1.63,1.63,0,0,1,1.15-.48A1.73,1.73,0,0,1,762.34,704.55Z" style="fill: #abb2a4"/>
    <path d="M779.33,691.73a8.65,8.65,0,0,1,1.3,2.86,14.76,14.76,0,0,1,.49,4,13.52,13.52,0,0,1-.49,3.86,9,9,0,0,1-1.29,2.73,5.35,5.35,0,0,1-1.81,1.63,4.34,4.34,0,0,1-2,.53,3.8,3.8,0,0,1-2.07-.65,6.24,6.24,0,0,1-1.79-1.81,9.67,9.67,0,0,1-1.25-2.8,13.34,13.34,0,0,1-.46-3.63,13.5,13.5,0,0,1,.46-3.64,10.06,10.06,0,0,1,1.25-2.85,6.29,6.29,0,0,1,1.79-1.85,3.75,3.75,0,0,1,2.07-.66A4.71,4.71,0,0,1,779.33,691.73Zm-1,1.65a4.9,4.9,0,0,0-1.29-1.69,2.39,2.39,0,0,0-1.49-.57,2.34,2.34,0,0,0-1.39.5,4.63,4.63,0,0,0-1.22,1.4,8.1,8.1,0,0,0-.85,2.18,11.56,11.56,0,0,0-.32,2.82,13.47,13.47,0,0,0,.39,3.3Zm.64,1.87-6.17,7.82a5.46,5.46,0,0,0,1.42,1.82,2.45,2.45,0,0,0,1.47.56,2.42,2.42,0,0,0,1.42-.46,4,4,0,0,0,1.15-1.33,8,8,0,0,0,.79-2.11,12.21,12.21,0,0,0,.29-2.81q0-1-.08-1.84A11.22,11.22,0,0,0,778.94,695.25Z" style="fill: #abb2a4"/>
    <path d="M792.88,688.2v21.28h-8v-1.63h6.25v-18h-6.22V688.2Z" style="fill: #abb2a4"/>
  </g>
  <circle cx="1149.67" cy="360.21" r="8.67" transform="translate(378.11 1285.51) rotate(-67.57)" style="fill: #fff"/>
  <circle cx="965.62" cy="527.24" r="8.67" transform="translate(109.88 1218.69) rotate(-67.57)" style="fill: #fff"/>
  <circle cx="1175.66" cy="686.46" r="8.67" transform="translate(92.61 1511.32) rotate(-67.57)" style="fill: #fff"/>
  <g>
    <g>
      <polyline points="1629.07 379.28 1628.6 373.3 1624.15 377.33" style="fill: none;stroke: #abb2a4;stroke-miterlimit: 10;stroke-width: 3px"/>
      <line x1="1614.93" y1="385.7" x2="1453.6" y2="532.11" style="fill: none;stroke: #abb2a4;stroke-miterlimit: 10;stroke-width: 3px;stroke-dasharray: 12.449332237243652,12.449332237243652"/>
      <polyline points="1448.99 536.29 1444.55 540.32 1449.33 543.95" style="fill: none;stroke: #abb2a4;stroke-miterlimit: 10;stroke-width: 3px"/>
      <line x1="1458.88" y1="551.18" x2="1645.03" y2="692.3" style="fill: none;stroke: #abb2a4;stroke-miterlimit: 10;stroke-width: 3px;stroke-dasharray: 11.97939682006836,11.97939682006836"/>
      <polyline points="1649.81 695.92 1654.59 699.54 1654.11 693.56" style="fill: none;stroke: #abb2a4;stroke-miterlimit: 10;stroke-width: 3px"/>
      <line x1="1653.18" y1="681.92" x2="1629.53" y2="385.1" style="fill: none;stroke: #abb2a4;stroke-miterlimit: 10;stroke-width: 3px;stroke-dasharray: 11.677010536193848,11.677010536193848"/>
    </g>
    <circle cx="1628.59" cy="373.3" r="8.67" transform="translate(662.23 1736.31) rotate(-67.57)" style="fill: #fff"/>
    <circle cx="1444.55" cy="540.32" r="8.67" transform="translate(394 1669.49) rotate(-67.57)" style="fill: #fff"/>
    <circle cx="1654.59" cy="699.54" r="8.67" transform="translate(376.73 1962.12) rotate(-67.57)" style="fill: #fff"/>
  </g>
  <g>
    <circle cx="1467.78" cy="447.43" r="2.11" style="fill: #878787"/>
    <circle cx="1408.8" cy="447.43" r="2.11" style="fill: #878787"/>
    <circle cx="1526.77" cy="447.43" r="2.11" style="fill: #878787"/>
    <circle cx="1526.77" cy="388.45" r="2.11" style="fill: #878787"/>
    <circle cx="1585.75" cy="447.43" r="2.11" style="fill: #fff"/>
    <circle cx="1585.75" cy="388.45" r="2.11" style="fill: #878787"/>
    <circle cx="1644.74" cy="447.43" r="2.11" style="fill: #878787"/>
    <circle cx="1644.74" cy="388.45" r="2.11" style="fill: #878787"/>
    <circle cx="1703.72" cy="447.43" r="2.11" style="fill: #878787"/>
    <circle cx="1703.72" cy="388.45" r="2.11" style="fill: #878787"/>
    <circle cx="1467.78" cy="388.45" r="2.11" style="fill: #878787"/>
    <circle cx="1408.8" cy="388.45" r="2.11" style="fill: #878787"/>
    <circle cx="1467.78" cy="329.46" r="2.11" style="fill: #878787"/>
    <circle cx="1408.8" cy="329.46" r="2.11" style="fill: #878787"/>
    <circle cx="1526.77" cy="329.46" r="2.11" style="fill: #878787"/>
    <circle cx="1585.75" cy="329.46" r="2.11" style="fill: #878787"/>
    <circle cx="1644.74" cy="329.46" r="2.11" style="fill: #878787"/>
    <circle cx="1703.72" cy="329.46" r="2.11" style="fill: #878787"/>
    <circle cx="1762.72" cy="447.43" r="2.11" style="fill: #878787"/>
    <circle cx="1762.72" cy="388.45" r="2.11" style="fill: #878787"/>
    <circle cx="1467.78" cy="565.4" r="2.11" style="fill: #878787"/>
    <circle cx="1408.8" cy="565.4" r="2.11" style="fill: #878787"/>
    <circle cx="1526.77" cy="565.4" r="2.11" style="fill: #fff"/>
    <circle cx="1526.77" cy="506.42" r="2.11" style="fill: #fff"/>
    <circle cx="1585.75" cy="565.4" r="2.11" style="fill: #fff"/>
    <circle cx="1585.75" cy="506.42" r="2.11" style="fill: #fff"/>
    <circle cx="1644.74" cy="565.4" r="2.11" style="fill: #878787"/>
    <circle cx="1644.74" cy="506.42" r="2.11" style="fill: #878787"/>
    <circle cx="1703.72" cy="565.4" r="2.11" style="fill: #878787"/>
    <circle cx="1703.72" cy="506.42" r="2.11" style="fill: #878787"/>
    <circle cx="1467.78" cy="506.42" r="2.11" style="fill: #878787"/>
    <circle cx="1408.8" cy="506.42" r="2.11" style="fill: #878787"/>
    <circle cx="1762.72" cy="565.4" r="2.11" style="fill: #878787"/>
    <circle cx="1762.72" cy="506.42" r="2.11" style="fill: #878787"/>
    <circle cx="1467.78" cy="683.37" r="2.11" style="fill: #878787"/>
    <circle cx="1408.8" cy="683.37" r="2.11" style="fill: #878787"/>
    <circle cx="1526.77" cy="683.37" r="2.11" style="fill: #878787"/>
    <circle cx="1526.77" cy="624.38" r="2.11" style="fill: #878787"/>
    <circle cx="1585.75" cy="683.37" r="2.11" style="fill: #878787"/>
    <circle cx="1585.75" cy="624.38" r="2.11" style="fill: #fff"/>
    <circle cx="1644.74" cy="683.37" r="2.11" style="fill: #fff"/>
    <circle cx="1644.74" cy="624.38" r="2.11" style="fill: #fff"/>
    <circle cx="1703.72" cy="683.37" r="2.11" style="fill: #878787"/>
    <circle cx="1703.72" cy="624.38" r="2.11" style="fill: #878787"/>
    <circle cx="1467.78" cy="624.38" r="2.11" style="fill: #878787"/>
    <circle cx="1408.8" cy="624.38" r="2.11" style="fill: #878787"/>
    <circle cx="1762.72" cy="683.37" r="2.11" style="fill: #878787"/>
    <circle cx="1762.72" cy="624.38" r="2.11" style="fill: #878787"/>
    <circle cx="1526.77" cy="742.35" r="2.11" style="fill: #878787"/>
    <circle cx="1585.75" cy="742.35" r="2.11" style="fill: #878787"/>
    <circle cx="1644.74" cy="742.35" r="2.11" style="fill: #878787"/>
    <circle cx="1703.72" cy="742.35" r="2.11" style="fill: #878787"/>
    <circle cx="1467.78" cy="742.35" r="2.11" style="fill: #878787"/>
    <circle cx="1408.8" cy="742.35" r="2.11" style="fill: #878787"/>
    <circle cx="1762.72" cy="742.35" r="2.11" style="fill: #878787"/>
    <circle cx="1762.72" cy="329.46" r="2.11" style="fill: #878787"/>
  </g>
  <g>
    <polygon points="92.5 281.89 98.5 271.5 86.5 271.5 92.5 281.89" style="fill: #abb2a4"/>
    <line x1="92.5" y1="271.5" x2="92.5" y2="254" style="fill: none;stroke: #abb2a4;stroke-miterlimit: 10"/>
  </g>
  <g>
    <polygon points="92.5 456.89 98.5 446.5 86.5 446.5 92.5 456.89" style="fill: #abb2a4"/>
    <line x1="92.5" y1="446.5" x2="92.5" y2="429" style="fill: none;stroke: #abb2a4;stroke-miterlimit: 10"/>
  </g>
  <g>
    <polygon points="92.5 640.89 98.5 630.5 86.5 630.5 92.5 640.89" style="fill: #abb2a4"/>
    <line x1="92.5" y1="630.5" x2="92.5" y2="613" style="fill: none;stroke: #abb2a4;stroke-miterlimit: 10"/>
  </g>
  <g>
    <polygon points="92.5 825.89 98.5 815.5 86.5 815.5 92.5 825.89" style="fill: #abb2a4"/>
    <line x1="92.5" y1="815.5" x2="92.5" y2="798" style="fill: none;stroke: #abb2a4;stroke-miterlimit: 10"/>
  </g>
</svg>
