<svg id="Layer_1" data-name="Layer 1" xmlns="http://www.w3.org/2000/svg" xmlns:xlink="http://www.w3.org/1999/xlink" viewBox="0 0 1920 1080">
  <defs>
    <linearGradient id="linear-gradient" x1="677.49" y1="776.96" x2="1106.53" y2="533.94" gradientUnits="userSpaceOnUse">
      <stop offset="0" stop-color="#021bfb"/>
      <stop offset="1" stop-color="#021bfb" stop-opacity="0"/>
    </linearGradient>
    <linearGradient id="linear-gradient-2" x1="1226.59" y1="768.71" x2="809.55" y2="531.69" gradientUnits="userSpaceOnUse">
      <stop offset="0" stop-color="#08f05a"/>
      <stop offset="1" stop-color="#08f05a" stop-opacity="0"/>
    </linearGradient>
    <linearGradient id="linear-gradient-3" x1="960" y1="324.54" x2="960" y2="771.83" gradientUnits="userSpaceOnUse">
      <stop offset="0" stop-color="#f114e2"/>
      <stop offset="1" stop-color="#f114e2" stop-opacity="0"/>
    </linearGradient>
  </defs>
  <title>vertex-attributes</title>
  <rect width="1920" height="1080" style="fill: #1e1f21"/>
  <rect x="1254.27" y="802.76" width="285.73" height="142.59" style="fill: none;stroke: #fff;stroke-miterlimit: 10"/>
  <rect x="790.79" y="124.15" width="334.21" height="142.59" style="fill: none;stroke: #fff;stroke-miterlimit: 10"/>
  <rect x="355.14" y="802.76" width="290.97" height="142.59" style="fill: none;stroke: #fff;stroke-miterlimit: 10"/>
  <g>
    <polygon points="960 304.74 688.35 775.26 1231.65 775.26 960 304.74" style="fill: url(#linear-gradient)"/>
    <polygon points="960 304.74 688.35 775.26 1231.65 775.26 960 304.74" style="fill: url(#linear-gradient-2)"/>
    <polygon points="960 304.74 688.35 775.26 1231.65 775.26 960 304.74" style="fill: url(#linear-gradient-3)"/>
  </g>
  <g>
    <path d="M1280,830.94h2.3l5.15,15.33,4.83-15.3h2.21L1287.81,851h-1Z" style="fill: #fff"/>
    <path d="M1303.47,835.93a6.22,6.22,0,0,1,2.24.42,5.19,5.19,0,0,1,1.9,1.26,6.26,6.26,0,0,1,1.31,2.16,8.76,8.76,0,0,1,.5,3.1c0,.17,0,.35,0,.53s0,.36,0,.53H1299a7,7,0,0,0,.53,2.58,4.94,4.94,0,0,0,1.17,1.68,4.17,4.17,0,0,0,1.57.91,5.75,5.75,0,0,0,1.73.27,4.92,4.92,0,0,0,3.78-1.63L1309,849a6.29,6.29,0,0,1-5.12,2.24,8.32,8.32,0,0,1-2.93-.5,6,6,0,0,1-2.26-1.46,6.57,6.57,0,0,1-1.44-2.38,10.55,10.55,0,0,1,0-6.54,7,7,0,0,1,1.44-2.42,6.15,6.15,0,0,1,2.13-1.49A6.7,6.7,0,0,1,1303.47,835.93Zm-4.42,6.14h8a1.65,1.65,0,0,1,0-.24,1.89,1.89,0,0,0,0-.27,3.76,3.76,0,0,0-.3-1.5,4,4,0,0,0-.82-1.23,4,4,0,0,0-1.2-.84,3.53,3.53,0,0,0-1.49-.32,4,4,0,0,0-2.72,1.06A5.19,5.19,0,0,0,1299.06,842.08Z" style="fill: #fff"/>
    <path d="M1314.35,836.29h2.37l-.06,2.82a4.86,4.86,0,0,1,2.13-2.35,6.32,6.32,0,0,1,3.13-.82,5.21,5.21,0,0,1,3.92,1.6l-1.06,2.21q-.35-.48-.64-.8a3.34,3.34,0,0,0-.63-.54,3,3,0,0,0-.74-.35,3.26,3.26,0,0,0-1-.13,4.18,4.18,0,0,0-2,.5,5.49,5.49,0,0,0-1.62,1.31,6.68,6.68,0,0,0-1.11,1.87,6,6,0,0,0-.42,2.21v7.14h-2.3Z" style="fill: #fff"/>
    <path d="M1333.2,832.38l2.5-.42a1.54,1.54,0,0,1-.08.51c-.05.15-.09.27-.11.35l-.38,3.46h4.8v1.86h-4.8a53.77,53.77,0,0,0-.29,5.38q0,1.55.06,2.61a4.94,4.94,0,0,0,.34,1.67,2.15,2.15,0,0,0,.79.95,2.49,2.49,0,0,0,1.38.34,5.68,5.68,0,0,0,3.28-1.34l.71,1.82a7.56,7.56,0,0,1-4.54,1.63,3.94,3.94,0,0,1-3.36-1.4,7.24,7.24,0,0,1-1-4.54q0-1.15.06-3t.26-4.17h-3.42v-1.86h3.52Z" style="fill: #fff"/>
    <path d="M1351.47,835.93a6.22,6.22,0,0,1,2.24.42,5.19,5.19,0,0,1,1.9,1.26,6.26,6.26,0,0,1,1.31,2.16,8.76,8.76,0,0,1,.5,3.1c0,.17,0,.35,0,.53s0,.36,0,.53H1347a7,7,0,0,0,.53,2.58,4.94,4.94,0,0,0,1.17,1.68,4.17,4.17,0,0,0,1.57.91,5.75,5.75,0,0,0,1.73.27,4.92,4.92,0,0,0,3.78-1.63L1357,849a6.29,6.29,0,0,1-5.12,2.24,8.32,8.32,0,0,1-2.93-.5,6,6,0,0,1-2.26-1.46,6.57,6.57,0,0,1-1.44-2.38,10.55,10.55,0,0,1,0-6.54,7,7,0,0,1,1.44-2.42,6.15,6.15,0,0,1,2.13-1.49A6.7,6.7,0,0,1,1351.47,835.93Zm-4.42,6.14h8a1.65,1.65,0,0,1,0-.24,1.89,1.89,0,0,0,0-.27,3.76,3.76,0,0,0-.3-1.5,4,4,0,0,0-.82-1.23,4,4,0,0,0-1.2-.84,3.53,3.53,0,0,0-1.49-.32,4,4,0,0,0-2.72,1.06A5.19,5.19,0,0,0,1347.06,842.08Z" style="fill: #fff"/>
    <path d="M1370.77,836.29h2.37l-4.74,7.1,5.38,7.52h-2.62l-4-5.7-3.81,5.7h-2.62l5.15-7.42-5.06-7.2h2.53l3.81,5.41Z" style="fill: #fff"/>
    <path d="M1393.68,834.08a6.16,6.16,0,0,1,2.35-2.38,6.38,6.38,0,0,1,3.22-.85,5.89,5.89,0,0,1,4.1,1.63,5.54,5.54,0,0,1,1.25,1.79,5.36,5.36,0,0,1,.45,2.18,5.62,5.62,0,0,1-.27,1.76,7.85,7.85,0,0,1-.72,1.58,10.26,10.26,0,0,1-1,1.44,13.75,13.75,0,0,1-1.23,1.26l-1.92,1.79q-.42.38-.93.91t-1,1.14q-.5.61-1,1.28a11.52,11.52,0,0,0-.83,1.34h8.35a.54.54,0,0,0,.34-.14.54.54,0,0,1,.34-.14h.1v2.24h-11.71V849.5a22.61,22.61,0,0,1,2.56-4,25.31,25.31,0,0,1,2.66-2.85l1.54-1.41a12.22,12.22,0,0,0,1.3-1.36,6.9,6.9,0,0,0,.78-1.2,4.1,4.1,0,0,0,.38-1.1,5.93,5.93,0,0,0,.1-1.07,3.36,3.36,0,0,0-.29-1.36,3.86,3.86,0,0,0-.82-1.18,4.09,4.09,0,0,0-1.18-.83,3.19,3.19,0,0,0-1.36-.3,4.3,4.3,0,0,0-1.49.24,5.29,5.29,0,0,0-1.15.58,3.42,3.42,0,0,0-.78.7,1.37,1.37,0,0,0-.32.66,1.3,1.3,0,0,1-.13.38Z" style="fill: #fff"/>
    <path d="M1280.84,867.09h5.61a7.18,7.18,0,0,1,2.48.38,4.3,4.3,0,0,1,2.66,2.65A6.73,6.73,0,0,1,1292,872a6.58,6.58,0,0,1-.38,1.89,4.22,4.22,0,0,1-1,1.53,4.46,4.46,0,0,1-1.63,1,6.86,6.86,0,0,1-2.43.38h-3.73v7.71h-2Zm2,1.85v6.17h3.5a3.66,3.66,0,0,0,2.71-.83,3.34,3.34,0,0,0,.88-2.2,4.74,4.74,0,0,0-.27-1.22,2.71,2.71,0,0,0-.63-1,3,3,0,0,0-1.08-.67,4.44,4.44,0,0,0-1.58-.25Z" style="fill: #abb2a4"/>
    <path d="M1300.33,871.46a5.49,5.49,0,0,1,2.23.46,5.37,5.37,0,0,1,1.84,1.33,6.49,6.49,0,0,1,1.25,2.12,8,8,0,0,1,.46,2.79,8.17,8.17,0,0,1-.45,2.8,6.49,6.49,0,0,1-1.23,2.12,5.25,5.25,0,0,1-1.85,1.35,5.64,5.64,0,0,1-2.27.46,5.4,5.4,0,0,1-2.31-.5,6,6,0,0,1-1.89-1.39,6.58,6.58,0,0,1-1.29-2.12,7.66,7.66,0,0,1,0-5.36,6.59,6.59,0,0,1,1.32-2.15,6.33,6.33,0,0,1,1.92-1.4A5.24,5.24,0,0,1,1300.33,871.46Zm3.76,6.76a6.59,6.59,0,0,0-.32-2.14,5,5,0,0,0-.86-1.58,3.65,3.65,0,0,0-1.22-1,3.26,3.26,0,0,0-2.89,0,3.52,3.52,0,0,0-1.21,1,5,5,0,0,0-.83,1.56,7,7,0,0,0,0,4.11,5.35,5.35,0,0,0,.83,1.6,3.66,3.66,0,0,0,1.22,1,3.17,3.17,0,0,0,1.49.36,3.41,3.41,0,0,0,1.47-.32,3.45,3.45,0,0,0,1.21-1,4.64,4.64,0,0,0,.81-1.56A6.93,6.93,0,0,0,1304.08,878.22Z" style="fill: #abb2a4"/>
    <path d="M1319.34,873.45l-1.18,1.77c-.09,0-.14-.09-.14-.22a.52.52,0,0,0-.06-.28,5.07,5.07,0,0,0-1.44-1.19,4.12,4.12,0,0,0-2.12-.55,4.17,4.17,0,0,0-1,.13,3.37,3.37,0,0,0-.88.35,1.8,1.8,0,0,0-.61.58,1.44,1.44,0,0,0-.23.8,1.1,1.1,0,0,0,.17.6,1.89,1.89,0,0,0,.54.52,5,5,0,0,0,1,.5q.67.25,1.74.56a8.71,8.71,0,0,1,3.43,1.53,2.78,2.78,0,0,1,1,2.17,3.65,3.65,0,0,1-.36,1.6,3.79,3.79,0,0,1-1.07,1.32,5.32,5.32,0,0,1-1.68.88,7.08,7.08,0,0,1-2.21.32,7.68,7.68,0,0,1-5.41-2l1.15-2a.49.49,0,0,1,.11.27,1.17,1.17,0,0,0,.2.44,2.5,2.5,0,0,0,.62.59,7.4,7.4,0,0,0,1.38.73,3.55,3.55,0,0,0,1,.29,6.73,6.73,0,0,0,1.07.09,4.79,4.79,0,0,0,1.14-.14,4,4,0,0,0,1-.41,2.41,2.41,0,0,0,.75-.65,1.41,1.41,0,0,0,.28-.86,1.51,1.51,0,0,0-.68-1.24,8.54,8.54,0,0,0-2.49-1q-1.24-.37-1.64-.51a8.5,8.5,0,0,1-1.47-.69,4.16,4.16,0,0,1-.82-.7,3.39,3.39,0,0,1-.59-.93,2.83,2.83,0,0,1-.23-1.14,2.52,2.52,0,0,1,.36-1.29,3.66,3.66,0,0,1,1-1.1,5.61,5.61,0,0,1,1.57-.77,6.37,6.37,0,0,1,2-.3A6.12,6.12,0,0,1,1319.34,873.45Z" style="fill: #abb2a4"/>
    <path d="M1324.22,871.74h5.13v11.19h3v1.63H1324v-1.63h3.28v-9.56h-3.11Zm3.14-5.16a1.38,1.38,0,0,1,1-.42,1.48,1.48,0,0,1,1.46,1.46,1.36,1.36,0,0,1-.43,1,1.42,1.42,0,0,1-1,.42,1.44,1.44,0,0,1-1.43-1.43A1.41,1.41,0,0,1,1327.36,866.58Z" style="fill: #abb2a4"/>
    <path d="M1340.54,868.32l2.19-.36a1.35,1.35,0,0,1-.07.45c0,.13-.08.23-.1.31l-.34,3h4.21v1.63h-4.21a47,47,0,0,0-.25,4.71q0,1.35.06,2.29a4.29,4.29,0,0,0,.3,1.47,1.88,1.88,0,0,0,.69.83,2.17,2.17,0,0,0,1.21.3,5,5,0,0,0,2.87-1.18l.62,1.6a6.63,6.63,0,0,1-4,1.43,3.45,3.45,0,0,1-2.94-1.22,6.35,6.35,0,0,1-.84-4q0-1,.06-2.59t.22-3.65h-3v-1.63h3.08Z" style="fill: #abb2a4"/>
    <path d="M1352.26,871.74h5.13v11.19h3v1.63h-8.3v-1.63h3.28v-9.56h-3.11Zm3.14-5.16a1.38,1.38,0,0,1,1-.42,1.48,1.48,0,0,1,1.46,1.46,1.36,1.36,0,0,1-.43,1,1.42,1.42,0,0,1-1,.42,1.44,1.44,0,0,1-1.43-1.43A1.41,1.41,0,0,1,1355.4,866.58Z" style="fill: #abb2a4"/>
    <path d="M1370.42,871.46a5.49,5.49,0,0,1,2.23.46,5.37,5.37,0,0,1,1.84,1.33,6.51,6.51,0,0,1,1.25,2.12,8,8,0,0,1,.46,2.79,8.17,8.17,0,0,1-.45,2.8,6.5,6.5,0,0,1-1.23,2.12,5.24,5.24,0,0,1-1.85,1.35,5.63,5.63,0,0,1-2.27.46,5.4,5.4,0,0,1-2.31-.5,6,6,0,0,1-1.89-1.39,6.61,6.61,0,0,1-1.29-2.12,7.65,7.65,0,0,1,0-5.36,6.58,6.58,0,0,1,1.32-2.15,6.32,6.32,0,0,1,1.92-1.4A5.24,5.24,0,0,1,1370.42,871.46Zm3.76,6.76a6.62,6.62,0,0,0-.32-2.14,5,5,0,0,0-.86-1.58,3.66,3.66,0,0,0-1.22-1,3.26,3.26,0,0,0-2.89,0,3.51,3.51,0,0,0-1.21,1,5,5,0,0,0-.83,1.56,7,7,0,0,0,0,4.11,5.4,5.4,0,0,0,.83,1.6,3.66,3.66,0,0,0,1.22,1,3.17,3.17,0,0,0,1.49.36,3.41,3.41,0,0,0,1.47-.32,3.46,3.46,0,0,0,1.21-1,4.64,4.64,0,0,0,.81-1.56A6.93,6.93,0,0,0,1374.18,878.22Z" style="fill: #abb2a4"/>
    <path d="M1379.23,884.56V871.74h2V874a5.71,5.71,0,0,1,1.88-1.88,4.42,4.42,0,0,1,2.33-.7,4.23,4.23,0,0,1,1.58.29,3.18,3.18,0,0,1,1.27.94,4.57,4.57,0,0,1,.83,1.65,8.88,8.88,0,0,1,.3,2.47v7.77h-2v-7.71a4.44,4.44,0,0,0-.69-2.83,2.13,2.13,0,0,0-1.68-.81,3.44,3.44,0,0,0-1.32.28,4,4,0,0,0-1.23.8,4.24,4.24,0,0,0-.9,1.25,3.76,3.76,0,0,0-.35,1.65v7.37Z" style="fill: #abb2a4"/>
    <path d="M1406.62,872.27h11.52V874h-11.52Zm0,5.8h11.52v1.71h-11.52Z" style="fill: #abb2a4"/>
    <path d="M1437.07,865.77h8v1.63h-6.22v18h6.25v1.63h-8Z" style="fill: #abb2a4"/>
    <path d="M1455.8,867.06v17.5h-1.93V869.5l-3.53,1-.45-1.09,4.57-2.38Z" style="fill: #abb2a4"/>
    <path d="M1470,884q0,2.21-3,5.27l-1-.84a7.61,7.61,0,0,0,1.3-1.57,2.84,2.84,0,0,0,.52-1.37.75.75,0,0,0-.22-.52,5.85,5.85,0,0,0-.49-.46,3.24,3.24,0,0,1-.49-.52,1.06,1.06,0,0,1-.22-.66,1.63,1.63,0,0,1,.46-1.18,1.59,1.59,0,0,1,1.19-.48,1.76,1.76,0,0,1,1.32.64A2.4,2.4,0,0,1,1470,884Z" style="fill: #abb2a4"/>
    <path d="M1486.28,869.3a8.65,8.65,0,0,1,1.3,2.86,14.76,14.76,0,0,1,.49,4,13.52,13.52,0,0,1-.49,3.86,9,9,0,0,1-1.29,2.73,5.36,5.36,0,0,1-1.81,1.63,4.34,4.34,0,0,1-2,.53,3.8,3.8,0,0,1-2.08-.65,6.23,6.23,0,0,1-1.79-1.81,9.68,9.68,0,0,1-1.25-2.8,13.34,13.34,0,0,1-.46-3.63,13.5,13.5,0,0,1,.46-3.64,10.07,10.07,0,0,1,1.25-2.85,6.29,6.29,0,0,1,1.79-1.85,3.75,3.75,0,0,1,2.08-.66A4.7,4.7,0,0,1,1486.28,869.3Zm-1,1.65a4.89,4.89,0,0,0-1.29-1.69,2.39,2.39,0,0,0-1.49-.57,2.34,2.34,0,0,0-1.39.5,4.64,4.64,0,0,0-1.22,1.4,8.12,8.12,0,0,0-.85,2.18,11.54,11.54,0,0,0-.32,2.82,13.44,13.44,0,0,0,.39,3.3Zm.64,1.87-6.17,7.82a5.45,5.45,0,0,0,1.42,1.82,2.45,2.45,0,0,0,1.47.56,2.42,2.42,0,0,0,1.42-.46,4,4,0,0,0,1.15-1.33,8,8,0,0,0,.79-2.11,12.21,12.21,0,0,0,.29-2.81q0-1-.08-1.84A11.28,11.28,0,0,0,1485.89,872.82Z" style="fill: #abb2a4"/>
    <path d="M1499.82,865.77v21.28h-8v-1.63h6.25v-18h-6.22v-1.63Z" style="fill: #abb2a4"/>
    <path d="M1290.35,904.69a1.12,1.12,0,0,0-.08-.5,4.27,4.27,0,0,0-1.46-1.44,3.66,3.66,0,0,0-1.91-.54,3.51,3.51,0,0,0-1.79.49,4.68,4.68,0,0,0-1.49,1.43,7.44,7.44,0,0,0-1,2.29,12.83,12.83,0,0,0,0,6.07,7.58,7.58,0,0,0,1,2.33,5,5,0,0,0,1.54,1.5,3.6,3.6,0,0,0,1.89.53,3.8,3.8,0,0,0,2-.59,4.5,4.5,0,0,0,1.56-1.6l1.46,1a5.44,5.44,0,0,1-1,1.23,6.67,6.67,0,0,1-1.25.9,6,6,0,0,1-1.32.55,5,5,0,0,1-1.33.18,6.52,6.52,0,0,1-2.68-.52,6.25,6.25,0,0,1-2.13-1.61,7.57,7.57,0,0,1-1.5-2.78,13.35,13.35,0,0,1-.53-4,12.91,12.91,0,0,1,.62-4.3,7.53,7.53,0,0,1,1.63-2.76,6,6,0,0,1,2.15-1.47,6.15,6.15,0,0,1,2.2-.43,5.76,5.76,0,0,1,1.7.25,6.41,6.41,0,0,1,1.54.7,5.9,5.9,0,0,1,1.28,1.08,5.19,5.19,0,0,1,.9,1.42l-1.88.92A.32.32,0,0,1,1290.35,904.69Z" style="fill: #abb2a4"/>
    <path d="M1300.33,905.11a5.49,5.49,0,0,1,2.23.46,5.37,5.37,0,0,1,1.84,1.33,6.49,6.49,0,0,1,1.25,2.12,8,8,0,0,1,.46,2.79,8.17,8.17,0,0,1-.45,2.8,6.49,6.49,0,0,1-1.23,2.12,5.25,5.25,0,0,1-1.85,1.35,5.64,5.64,0,0,1-2.27.46,5.4,5.4,0,0,1-2.31-.5,6,6,0,0,1-1.89-1.39,6.58,6.58,0,0,1-1.29-2.12,7.66,7.66,0,0,1,0-5.36,6.59,6.59,0,0,1,1.32-2.15,6.33,6.33,0,0,1,1.92-1.4A5.24,5.24,0,0,1,1300.33,905.11Zm3.76,6.76a6.59,6.59,0,0,0-.32-2.14,5,5,0,0,0-.86-1.58,3.65,3.65,0,0,0-1.22-1,3.26,3.26,0,0,0-2.89,0,3.52,3.52,0,0,0-1.21,1,5,5,0,0,0-.83,1.56,7,7,0,0,0,0,4.11,5.35,5.35,0,0,0,.83,1.6,3.66,3.66,0,0,0,1.22,1,3.17,3.17,0,0,0,1.49.36,3.41,3.41,0,0,0,1.47-.32,3.45,3.45,0,0,0,1.21-1,4.64,4.64,0,0,0,.81-1.56A6.93,6.93,0,0,0,1304.08,911.87Z" style="fill: #abb2a4"/>
    <path d="M1309.61,899.56h5.64v17H1319v1.63h-9.56v-1.63h3.79V901.18h-3.62Z" style="fill: #abb2a4"/>
    <path d="M1328.37,905.11a5.49,5.49,0,0,1,2.23.46,5.37,5.37,0,0,1,1.84,1.33,6.49,6.49,0,0,1,1.25,2.12,8,8,0,0,1,.46,2.79,8.17,8.17,0,0,1-.45,2.8,6.49,6.49,0,0,1-1.23,2.12,5.25,5.25,0,0,1-1.85,1.35,5.64,5.64,0,0,1-2.27.46,5.4,5.4,0,0,1-2.31-.5,6,6,0,0,1-1.89-1.39,6.58,6.58,0,0,1-1.29-2.12,7.66,7.66,0,0,1,0-5.36,6.59,6.59,0,0,1,1.32-2.15,6.33,6.33,0,0,1,1.92-1.4A5.24,5.24,0,0,1,1328.37,905.11Zm3.76,6.76a6.59,6.59,0,0,0-.32-2.14,5,5,0,0,0-.86-1.58,3.65,3.65,0,0,0-1.22-1,3.26,3.26,0,0,0-2.89,0,3.52,3.52,0,0,0-1.21,1,5,5,0,0,0-.83,1.56,7,7,0,0,0,0,4.11,5.35,5.35,0,0,0,.83,1.6,3.66,3.66,0,0,0,1.22,1,3.17,3.17,0,0,0,1.49.36,3.41,3.41,0,0,0,1.47-.32,3.45,3.45,0,0,0,1.21-1,4.64,4.64,0,0,0,.81-1.56A6.93,6.93,0,0,0,1332.12,911.87Z" style="fill: #abb2a4"/>
    <path d="M1337,905.39h2v7.15a8,8,0,0,0,.23,2.06,3.6,3.6,0,0,0,.63,1.33,2.43,2.43,0,0,0,.93.73,2.85,2.85,0,0,0,1.14.22,3.91,3.91,0,0,0,1.3-.34,3.55,3.55,0,0,0,1.11-.8,3.63,3.63,0,0,0,.77-1.33,6,6,0,0,0,.28-2v-7.07h2v11.66a4.29,4.29,0,0,0,.14,1.15h-2.1c0-.13,0-.28-.05-.43a2.55,2.55,0,0,1,0-.55l0-1a4.47,4.47,0,0,1-1.67,1.67,4.6,4.6,0,0,1-2.32.6,4.31,4.31,0,0,1-1.77-.35,4.07,4.07,0,0,1-1.42-1.08,4.82,4.82,0,0,1-1-1.85,9.84,9.84,0,0,1-.32-2.69Z" style="fill: #abb2a4"/>
    <path d="M1352.06,905.39h2.07l-.06,2.47a4.26,4.26,0,0,1,1.87-2.06,5.54,5.54,0,0,1,2.74-.71,4.56,4.56,0,0,1,3.43,1.4l-.92,1.93q-.31-.42-.56-.7a2.92,2.92,0,0,0-.55-.48,2.6,2.6,0,0,0-.65-.31,2.87,2.87,0,0,0-.86-.11,3.67,3.67,0,0,0-1.75.43,4.81,4.81,0,0,0-1.42,1.15,5.82,5.82,0,0,0-1,1.64,5.21,5.21,0,0,0-.37,1.93v6.25h-2Z" style="fill: #abb2a4"/>
    <path d="M1378.58,905.92h11.52v1.71h-11.52Zm0,5.8h11.52v1.71h-11.52Z" style="fill: #abb2a4"/>
    <path d="M1409,899.42h8V901h-6.22v18h6.25v1.63h-8Z" style="fill: #abb2a4"/>
    <path d="M1430.2,902.95a8.65,8.65,0,0,1,1.3,2.86,14.76,14.76,0,0,1,.49,4,13.52,13.52,0,0,1-.49,3.86,9,9,0,0,1-1.29,2.73,5.36,5.36,0,0,1-1.81,1.63,4.34,4.34,0,0,1-2,.53,3.8,3.8,0,0,1-2.08-.65,6.23,6.23,0,0,1-1.79-1.81,9.68,9.68,0,0,1-1.25-2.8,13.34,13.34,0,0,1-.46-3.63,13.5,13.5,0,0,1,.46-3.64,10.07,10.07,0,0,1,1.25-2.85,6.29,6.29,0,0,1,1.79-1.85,3.75,3.75,0,0,1,2.08-.66A4.7,4.7,0,0,1,1430.2,902.95Zm-1,1.65a4.89,4.89,0,0,0-1.29-1.69,2.39,2.39,0,0,0-1.49-.57,2.34,2.34,0,0,0-1.39.5,4.64,4.64,0,0,0-1.22,1.4,8.12,8.12,0,0,0-.85,2.18,11.54,11.54,0,0,0-.32,2.82,13.44,13.44,0,0,0,.39,3.3Zm.64,1.87-6.17,7.82a5.45,5.45,0,0,0,1.42,1.82,2.45,2.45,0,0,0,1.47.56,2.42,2.42,0,0,0,1.42-.46,4,4,0,0,0,1.15-1.33,8,8,0,0,0,.79-2.11,12.21,12.21,0,0,0,.29-2.81q0-1-.08-1.84A11.28,11.28,0,0,0,1429.81,906.47Z" style="fill: #abb2a4"/>
    <path d="M1442,917.64q0,2.21-3,5.27l-1-.84a7.61,7.61,0,0,0,1.3-1.57,2.84,2.84,0,0,0,.52-1.37.75.75,0,0,0-.22-.52,5.85,5.85,0,0,0-.49-.46,3.24,3.24,0,0,1-.49-.52,1.06,1.06,0,0,1-.22-.66,1.63,1.63,0,0,1,.46-1.18,1.59,1.59,0,0,1,1.19-.48,1.76,1.76,0,0,1,1.32.64A2.4,2.4,0,0,1,1442,917.64Z" style="fill: #abb2a4"/>
    <path d="M1455.8,900.71v17.5h-1.93V903.15l-3.53,1-.45-1.09,4.57-2.38Z" style="fill: #abb2a4"/>
    <path d="M1470,917.64q0,2.21-3,5.27l-1-.84a7.61,7.61,0,0,0,1.3-1.57,2.84,2.84,0,0,0,.52-1.37.75.75,0,0,0-.22-.52,5.85,5.85,0,0,0-.49-.46,3.24,3.24,0,0,1-.49-.52,1.06,1.06,0,0,1-.22-.66,1.63,1.63,0,0,1,.46-1.18,1.59,1.59,0,0,1,1.19-.48,1.76,1.76,0,0,1,1.32.64A2.4,2.4,0,0,1,1470,917.64Z" style="fill: #abb2a4"/>
    <path d="M1486.28,902.95a8.65,8.65,0,0,1,1.3,2.86,14.76,14.76,0,0,1,.49,4,13.52,13.52,0,0,1-.49,3.86,9,9,0,0,1-1.29,2.73,5.36,5.36,0,0,1-1.81,1.63,4.34,4.34,0,0,1-2,.53,3.8,3.8,0,0,1-2.08-.65,6.23,6.23,0,0,1-1.79-1.81,9.68,9.68,0,0,1-1.25-2.8,13.34,13.34,0,0,1-.46-3.63,13.5,13.5,0,0,1,.46-3.64,10.07,10.07,0,0,1,1.25-2.85,6.29,6.29,0,0,1,1.79-1.85,3.75,3.75,0,0,1,2.08-.66A4.7,4.7,0,0,1,1486.28,902.95Zm-1,1.65a4.89,4.89,0,0,0-1.29-1.69,2.39,2.39,0,0,0-1.49-.57,2.34,2.34,0,0,0-1.39.5,4.64,4.64,0,0,0-1.22,1.4,8.12,8.12,0,0,0-.85,2.18,11.54,11.54,0,0,0-.32,2.82,13.44,13.44,0,0,0,.39,3.3Zm.64,1.87-6.17,7.82a5.45,5.45,0,0,0,1.42,1.82,2.45,2.45,0,0,0,1.47.56,2.42,2.42,0,0,0,1.42-.46,4,4,0,0,0,1.15-1.33,8,8,0,0,0,.79-2.11,12.21,12.21,0,0,0,.29-2.81q0-1-.08-1.84A11.28,11.28,0,0,0,1485.89,906.47Z" style="fill: #abb2a4"/>
    <path d="M1499.82,899.42V920.7h-8v-1.63h6.25V901h-6.22v-1.63Z" style="fill: #abb2a4"/>
  </g>
  <g>
    <path d="M385.51,830.94h2.3L393,846.27,397.8,831H400L393.32,851h-1Z" style="fill: #fff"/>
    <path d="M409,835.93a6.22,6.22,0,0,1,2.24.42,5.18,5.18,0,0,1,1.9,1.26,6.27,6.27,0,0,1,1.31,2.16,8.77,8.77,0,0,1,.5,3.1c0,.17,0,.35,0,.53s0,.36,0,.53h-10.4a7,7,0,0,0,.53,2.58,4.94,4.94,0,0,0,1.17,1.68,4.17,4.17,0,0,0,1.57.91,5.75,5.75,0,0,0,1.73.27,4.92,4.92,0,0,0,3.78-1.63l1.28,1.25a6.29,6.29,0,0,1-5.12,2.24,8.32,8.32,0,0,1-2.93-.5,6,6,0,0,1-2.26-1.46,6.57,6.57,0,0,1-1.44-2.38,10.55,10.55,0,0,1,0-6.54,7,7,0,0,1,1.44-2.42,6.14,6.14,0,0,1,2.13-1.49A6.7,6.7,0,0,1,409,835.93Zm-4.42,6.14h8a1.64,1.64,0,0,1,0-.24,1.89,1.89,0,0,0,0-.27,3.77,3.77,0,0,0-.3-1.5,4,4,0,0,0-.82-1.23,4,4,0,0,0-1.2-.84,3.53,3.53,0,0,0-1.49-.32,4,4,0,0,0-2.72,1.06A5.19,5.19,0,0,0,404.57,842.08Z" style="fill: #fff"/>
    <path d="M419.87,836.29h2.37l-.06,2.82a4.86,4.86,0,0,1,2.14-2.35,6.32,6.32,0,0,1,3.13-.82,5.21,5.21,0,0,1,3.92,1.6l-1.06,2.21q-.35-.48-.64-.8a3.33,3.33,0,0,0-.63-.54,3,3,0,0,0-.74-.35,3.27,3.27,0,0,0-1-.13,4.18,4.18,0,0,0-2,.5,5.49,5.49,0,0,0-1.62,1.31,6.66,6.66,0,0,0-1.11,1.87,5.94,5.94,0,0,0-.42,2.21v7.14h-2.3Z" style="fill: #fff"/>
    <path d="M438.71,832.38l2.5-.42a1.54,1.54,0,0,1-.08.51q-.08.22-.11.35l-.38,3.46h4.8v1.86h-4.8q-.29,2.86-.29,5.38,0,1.55.06,2.61a4.93,4.93,0,0,0,.34,1.67,2.15,2.15,0,0,0,.79.95,2.49,2.49,0,0,0,1.38.34,5.68,5.68,0,0,0,3.28-1.34l.71,1.82a7.57,7.57,0,0,1-4.54,1.63,3.94,3.94,0,0,1-3.36-1.4,7.24,7.24,0,0,1-1-4.54q0-1.15.06-3t.26-4.17h-3.42v-1.86h3.52Z" style="fill: #fff"/>
    <path d="M457,835.93a6.22,6.22,0,0,1,2.24.42,5.18,5.18,0,0,1,1.9,1.26,6.27,6.27,0,0,1,1.31,2.16,8.77,8.77,0,0,1,.5,3.1c0,.17,0,.35,0,.53s0,.36,0,.53h-10.4a7,7,0,0,0,.53,2.58,4.94,4.94,0,0,0,1.17,1.68,4.17,4.17,0,0,0,1.57.91,5.75,5.75,0,0,0,1.73.27,4.92,4.92,0,0,0,3.78-1.63l1.28,1.25a6.29,6.29,0,0,1-5.12,2.24,8.32,8.32,0,0,1-2.93-.5,6,6,0,0,1-2.26-1.46,6.57,6.57,0,0,1-1.44-2.38,10.55,10.55,0,0,1,0-6.54,7,7,0,0,1,1.44-2.42,6.14,6.14,0,0,1,2.13-1.49A6.7,6.7,0,0,1,457,835.93Zm-4.42,6.14h8a1.64,1.64,0,0,1,0-.24,1.89,1.89,0,0,0,0-.27,3.77,3.77,0,0,0-.3-1.5,4,4,0,0,0-.82-1.23,4,4,0,0,0-1.2-.84,3.53,3.53,0,0,0-1.49-.32,4,4,0,0,0-2.72,1.06A5.19,5.19,0,0,0,452.57,842.08Z" style="fill: #fff"/>
    <path d="M476.28,836.29h2.37l-4.74,7.1,5.38,7.52h-2.62l-4-5.7-3.81,5.7H466.2l5.15-7.42-5.06-7.2h2.53l3.81,5.41Z" style="fill: #fff"/>
    <path d="M506.27,830.94v20h-2.21V833.73l-4,1.18-.51-1.25,5.22-2.72Z" style="fill: #fff"/>
    <path d="M386.35,867.09H392a7.19,7.19,0,0,1,2.48.38,4.3,4.3,0,0,1,2.66,2.65,6.73,6.73,0,0,1,.38,1.91,6.58,6.58,0,0,1-.38,1.89,4.23,4.23,0,0,1-1,1.53,4.46,4.46,0,0,1-1.63,1,6.86,6.86,0,0,1-2.43.38h-3.73v7.71h-2Zm2,1.85v6.17h3.5a3.66,3.66,0,0,0,2.71-.83,3.34,3.34,0,0,0,.88-2.2,4.74,4.74,0,0,0-.27-1.22,2.7,2.7,0,0,0-.63-1,3,3,0,0,0-1.08-.67,4.44,4.44,0,0,0-1.58-.25Z" style="fill: #abb2a4"/>
    <path d="M405.84,871.46a5.49,5.49,0,0,1,2.23.46,5.37,5.37,0,0,1,1.84,1.33,6.5,6.5,0,0,1,1.25,2.12,8,8,0,0,1,.46,2.79,8.17,8.17,0,0,1-.45,2.8,6.5,6.5,0,0,1-1.23,2.12,5.25,5.25,0,0,1-1.85,1.35,5.64,5.64,0,0,1-2.27.46,5.4,5.4,0,0,1-2.31-.5,6,6,0,0,1-1.89-1.39,6.6,6.6,0,0,1-1.29-2.12,7.65,7.65,0,0,1,0-5.36,6.58,6.58,0,0,1,1.32-2.15,6.32,6.32,0,0,1,1.92-1.4A5.24,5.24,0,0,1,405.84,871.46Zm3.76,6.76a6.6,6.6,0,0,0-.32-2.14,5,5,0,0,0-.86-1.58,3.66,3.66,0,0,0-1.22-1,3.26,3.26,0,0,0-2.89,0,3.52,3.52,0,0,0-1.21,1,5,5,0,0,0-.83,1.56,7,7,0,0,0,0,4.11,5.38,5.38,0,0,0,.83,1.6,3.66,3.66,0,0,0,1.22,1,3.17,3.17,0,0,0,1.49.36,3.41,3.41,0,0,0,1.47-.32,3.45,3.45,0,0,0,1.21-1,4.64,4.64,0,0,0,.81-1.56A6.93,6.93,0,0,0,409.6,878.22Z" style="fill: #abb2a4"/>
    <path d="M424.85,873.45l-1.18,1.77c-.09,0-.14-.09-.14-.22a.52.52,0,0,0-.06-.28,5.08,5.08,0,0,0-1.44-1.19,4.12,4.12,0,0,0-2.12-.55,4.17,4.17,0,0,0-1,.13,3.36,3.36,0,0,0-.88.35,1.8,1.8,0,0,0-.61.58,1.44,1.44,0,0,0-.23.8,1.1,1.1,0,0,0,.17.6,1.89,1.89,0,0,0,.54.52,5,5,0,0,0,1,.5q.66.25,1.74.56a8.71,8.71,0,0,1,3.43,1.53,2.79,2.79,0,0,1,1,2.17,3.64,3.64,0,0,1-.36,1.6,3.79,3.79,0,0,1-1.07,1.32,5.32,5.32,0,0,1-1.68.88,7.08,7.08,0,0,1-2.21.32,7.68,7.68,0,0,1-5.41-2l1.15-2a.49.49,0,0,1,.11.27,1.17,1.17,0,0,0,.2.44,2.52,2.52,0,0,0,.62.59,7.4,7.4,0,0,0,1.38.73,3.55,3.55,0,0,0,1,.29,6.74,6.74,0,0,0,1.07.09,4.79,4.79,0,0,0,1.14-.14,4,4,0,0,0,1-.41,2.41,2.41,0,0,0,.75-.65,1.41,1.41,0,0,0,.28-.86,1.51,1.51,0,0,0-.68-1.24,8.55,8.55,0,0,0-2.48-1q-1.24-.37-1.64-.51a8.5,8.5,0,0,1-1.47-.69,4.16,4.16,0,0,1-.82-.7,3.4,3.4,0,0,1-.59-.93,2.83,2.83,0,0,1-.23-1.14,2.52,2.52,0,0,1,.36-1.29,3.66,3.66,0,0,1,1-1.1,5.6,5.6,0,0,1,1.57-.77,6.36,6.36,0,0,1,2-.3A6.12,6.12,0,0,1,424.85,873.45Z" style="fill: #abb2a4"/>
    <path d="M429.73,871.74h5.13v11.19h3v1.63h-8.3v-1.63h3.28v-9.56h-3.11Zm3.14-5.16a1.38,1.38,0,0,1,1-.42,1.48,1.48,0,0,1,1.46,1.46,1.36,1.36,0,0,1-.43,1,1.42,1.42,0,0,1-1,.42,1.44,1.44,0,0,1-1.43-1.43A1.41,1.41,0,0,1,432.87,866.58Z" style="fill: #abb2a4"/>
    <path d="M446,868.32l2.19-.36a1.34,1.34,0,0,1-.07.45c0,.13-.08.23-.1.31l-.34,3h4.21v1.63h-4.21q-.25,2.51-.25,4.71,0,1.35.06,2.29a4.31,4.31,0,0,0,.3,1.47,1.89,1.89,0,0,0,.69.83,2.17,2.17,0,0,0,1.21.3,5,5,0,0,0,2.87-1.18l.62,1.6a6.63,6.63,0,0,1-4,1.43,3.45,3.45,0,0,1-2.94-1.22,6.34,6.34,0,0,1-.84-4q0-1,.06-2.59t.22-3.65h-3v-1.63h3.08Z" style="fill: #abb2a4"/>
    <path d="M457.77,871.74h5.13v11.19h3v1.63h-8.3v-1.63h3.28v-9.56h-3.11Zm3.14-5.16a1.38,1.38,0,0,1,1-.42,1.48,1.48,0,0,1,1.46,1.46,1.36,1.36,0,0,1-.43,1,1.42,1.42,0,0,1-1,.42,1.44,1.44,0,0,1-1.43-1.43A1.41,1.41,0,0,1,460.91,866.58Z" style="fill: #abb2a4"/>
    <path d="M475.94,871.46a5.49,5.49,0,0,1,2.23.46,5.37,5.37,0,0,1,1.84,1.33,6.5,6.5,0,0,1,1.25,2.12,8,8,0,0,1,.46,2.79,8.17,8.17,0,0,1-.45,2.8,6.5,6.5,0,0,1-1.23,2.12,5.25,5.25,0,0,1-1.85,1.35,5.64,5.64,0,0,1-2.27.46,5.4,5.4,0,0,1-2.31-.5A6,6,0,0,1,471.7,883a6.6,6.6,0,0,1-1.29-2.12,7.65,7.65,0,0,1,0-5.36,6.58,6.58,0,0,1,1.32-2.15,6.32,6.32,0,0,1,1.92-1.4A5.24,5.24,0,0,1,475.94,871.46Zm3.76,6.76a6.6,6.6,0,0,0-.32-2.14,5,5,0,0,0-.86-1.58,3.66,3.66,0,0,0-1.22-1,3.26,3.26,0,0,0-2.89,0,3.52,3.52,0,0,0-1.21,1,5,5,0,0,0-.83,1.56,7,7,0,0,0,0,4.11,5.38,5.38,0,0,0,.83,1.6,3.66,3.66,0,0,0,1.22,1,3.17,3.17,0,0,0,1.49.36,3.41,3.41,0,0,0,1.47-.32,3.45,3.45,0,0,0,1.21-1,4.64,4.64,0,0,0,.81-1.56A6.93,6.93,0,0,0,479.69,878.22Z" style="fill: #abb2a4"/>
    <path d="M484.74,884.56V871.74h2V874a5.71,5.71,0,0,1,1.88-1.88,4.41,4.41,0,0,1,2.33-.7,4.23,4.23,0,0,1,1.58.29,3.18,3.18,0,0,1,1.27.94,4.57,4.57,0,0,1,.83,1.65,8.86,8.86,0,0,1,.3,2.47v7.77h-2v-7.71a4.44,4.44,0,0,0-.69-2.83,2.13,2.13,0,0,0-1.68-.81,3.44,3.44,0,0,0-1.32.28,4,4,0,0,0-1.23.8,4.23,4.23,0,0,0-.9,1.25,3.75,3.75,0,0,0-.35,1.65v7.37Z" style="fill: #abb2a4"/>
    <path d="M512.13,872.27h11.52V874H512.13Zm0,5.8h11.52v1.71H512.13Z" style="fill: #abb2a4"/>
    <path d="M542.58,865.77h8v1.63h-6.22v18h6.25v1.63h-8Z" style="fill: #abb2a4"/>
    <path d="M563.75,869.3a8.65,8.65,0,0,1,1.3,2.86,14.76,14.76,0,0,1,.49,4,13.52,13.52,0,0,1-.49,3.86,9,9,0,0,1-1.29,2.73,5.35,5.35,0,0,1-1.81,1.63,4.34,4.34,0,0,1-2,.53,3.8,3.8,0,0,1-2.07-.65,6.24,6.24,0,0,1-1.79-1.81,9.67,9.67,0,0,1-1.25-2.8,13.34,13.34,0,0,1-.46-3.63,13.5,13.5,0,0,1,.46-3.64,10.06,10.06,0,0,1,1.25-2.85,6.29,6.29,0,0,1,1.79-1.85,3.75,3.75,0,0,1,2.07-.66A4.71,4.71,0,0,1,563.75,869.3Zm-1,1.65a4.9,4.9,0,0,0-1.29-1.69,2.39,2.39,0,0,0-1.49-.57,2.34,2.34,0,0,0-1.39.5,4.63,4.63,0,0,0-1.22,1.4,8.1,8.1,0,0,0-.85,2.18,11.56,11.56,0,0,0-.32,2.82,13.47,13.47,0,0,0,.39,3.3Zm.64,1.87-6.17,7.82a5.46,5.46,0,0,0,1.42,1.82,2.45,2.45,0,0,0,1.47.56,2.42,2.42,0,0,0,1.42-.46,4,4,0,0,0,1.15-1.33,8,8,0,0,0,.79-2.11,12.21,12.21,0,0,0,.29-2.81q0-1-.08-1.84A11.22,11.22,0,0,0,563.36,872.82Z" style="fill: #abb2a4"/>
    <path d="M575.53,884q0,2.21-3,5.27l-1-.84a7.58,7.58,0,0,0,1.3-1.57,2.84,2.84,0,0,0,.52-1.37.75.75,0,0,0-.22-.52,5.86,5.86,0,0,0-.49-.46,3.23,3.23,0,0,1-.49-.52,1.06,1.06,0,0,1-.22-.66,1.63,1.63,0,0,1,.46-1.18,1.59,1.59,0,0,1,1.19-.48,1.76,1.76,0,0,1,1.32.64A2.4,2.4,0,0,1,575.53,884Z" style="fill: #abb2a4"/>
    <path d="M591.79,869.3a8.65,8.65,0,0,1,1.3,2.86,14.76,14.76,0,0,1,.49,4,13.52,13.52,0,0,1-.49,3.86,9,9,0,0,1-1.29,2.73,5.35,5.35,0,0,1-1.81,1.63,4.34,4.34,0,0,1-2,.53,3.8,3.8,0,0,1-2.07-.65,6.24,6.24,0,0,1-1.79-1.81,9.67,9.67,0,0,1-1.25-2.8,13.34,13.34,0,0,1-.46-3.63,13.5,13.5,0,0,1,.46-3.64,10.06,10.06,0,0,1,1.25-2.85,6.29,6.29,0,0,1,1.79-1.85,3.75,3.75,0,0,1,2.07-.66A4.71,4.71,0,0,1,591.79,869.3Zm-1,1.65a4.9,4.9,0,0,0-1.29-1.69,2.39,2.39,0,0,0-1.49-.57,2.34,2.34,0,0,0-1.39.5,4.63,4.63,0,0,0-1.22,1.4,8.1,8.1,0,0,0-.85,2.18,11.56,11.56,0,0,0-.32,2.82,13.47,13.47,0,0,0,.39,3.3Zm.64,1.87-6.17,7.82a5.46,5.46,0,0,0,1.42,1.82,2.45,2.45,0,0,0,1.47.56,2.42,2.42,0,0,0,1.42-.46,4,4,0,0,0,1.15-1.33,8,8,0,0,0,.79-2.11,12.21,12.21,0,0,0,.29-2.81q0-1-.08-1.84A11.22,11.22,0,0,0,591.4,872.82Z" style="fill: #abb2a4"/>
    <path d="M605.33,865.77v21.28h-8v-1.63h6.25v-18h-6.22v-1.63Z" style="fill: #abb2a4"/>
    <path d="M395.86,904.69a1.13,1.13,0,0,0-.08-.5,4.27,4.27,0,0,0-1.46-1.44,3.66,3.66,0,0,0-1.91-.54,3.5,3.5,0,0,0-1.79.49,4.68,4.68,0,0,0-1.49,1.43,7.44,7.44,0,0,0-1,2.29,12.81,12.81,0,0,0,0,6.07,7.57,7.57,0,0,0,1,2.33,5,5,0,0,0,1.54,1.5,3.6,3.6,0,0,0,1.89.53,3.8,3.8,0,0,0,2-.59,4.5,4.5,0,0,0,1.56-1.6l1.46,1a5.42,5.42,0,0,1-1,1.23,6.68,6.68,0,0,1-1.25.9,6,6,0,0,1-1.32.55,5,5,0,0,1-1.33.18A6.52,6.52,0,0,1,390,918a6.24,6.24,0,0,1-2.13-1.61,7.57,7.57,0,0,1-1.5-2.78,13.36,13.36,0,0,1-.53-4,12.9,12.9,0,0,1,.62-4.3,7.52,7.52,0,0,1,1.63-2.76,6,6,0,0,1,2.15-1.47,6.15,6.15,0,0,1,2.2-.43,5.76,5.76,0,0,1,1.7.25,6.4,6.4,0,0,1,1.54.7,5.9,5.9,0,0,1,1.28,1.08,5.19,5.19,0,0,1,.9,1.42L396,905A.32.32,0,0,1,395.86,904.69Z" style="fill: #abb2a4"/>
    <path d="M405.84,905.11a5.49,5.49,0,0,1,2.23.46,5.37,5.37,0,0,1,1.84,1.33,6.5,6.5,0,0,1,1.25,2.12,8,8,0,0,1,.46,2.79,8.17,8.17,0,0,1-.45,2.8,6.5,6.5,0,0,1-1.23,2.12,5.25,5.25,0,0,1-1.85,1.35,5.64,5.64,0,0,1-2.27.46,5.4,5.4,0,0,1-2.31-.5,6,6,0,0,1-1.89-1.39,6.6,6.6,0,0,1-1.29-2.12,7.65,7.65,0,0,1,0-5.36,6.58,6.58,0,0,1,1.32-2.15,6.32,6.32,0,0,1,1.92-1.4A5.24,5.24,0,0,1,405.84,905.11Zm3.76,6.76a6.6,6.6,0,0,0-.32-2.14,5,5,0,0,0-.86-1.58,3.66,3.66,0,0,0-1.22-1,3.26,3.26,0,0,0-2.89,0,3.52,3.52,0,0,0-1.21,1,5,5,0,0,0-.83,1.56,7,7,0,0,0,0,4.11,5.38,5.38,0,0,0,.83,1.6,3.66,3.66,0,0,0,1.22,1,3.17,3.17,0,0,0,1.49.36,3.41,3.41,0,0,0,1.47-.32,3.45,3.45,0,0,0,1.21-1,4.64,4.64,0,0,0,.81-1.56A6.93,6.93,0,0,0,409.6,911.87Z" style="fill: #abb2a4"/>
    <path d="M415.12,899.56h5.64v17h3.76v1.63H415v-1.63h3.79V901.18h-3.62Z" style="fill: #abb2a4"/>
    <path d="M433.88,905.11a5.49,5.49,0,0,1,2.23.46,5.37,5.37,0,0,1,1.84,1.33,6.5,6.5,0,0,1,1.25,2.12,8,8,0,0,1,.46,2.79,8.17,8.17,0,0,1-.45,2.8,6.5,6.5,0,0,1-1.23,2.12,5.25,5.25,0,0,1-1.85,1.35,5.64,5.64,0,0,1-2.27.46,5.4,5.4,0,0,1-2.31-.5,6,6,0,0,1-1.89-1.39,6.6,6.6,0,0,1-1.29-2.12,7.65,7.65,0,0,1,0-5.36,6.58,6.58,0,0,1,1.32-2.15,6.32,6.32,0,0,1,1.92-1.4A5.24,5.24,0,0,1,433.88,905.11Zm3.76,6.76a6.6,6.6,0,0,0-.32-2.14,5,5,0,0,0-.86-1.58,3.66,3.66,0,0,0-1.22-1,3.26,3.26,0,0,0-2.89,0,3.52,3.52,0,0,0-1.21,1,5,5,0,0,0-.83,1.56,7,7,0,0,0,0,4.11,5.38,5.38,0,0,0,.83,1.6,3.66,3.66,0,0,0,1.22,1,3.17,3.17,0,0,0,1.49.36,3.41,3.41,0,0,0,1.47-.32,3.45,3.45,0,0,0,1.21-1,4.64,4.64,0,0,0,.81-1.56A6.93,6.93,0,0,0,437.63,911.87Z" style="fill: #abb2a4"/>
    <path d="M442.54,905.39h2v7.15a8,8,0,0,0,.23,2.06,3.6,3.6,0,0,0,.63,1.33,2.43,2.43,0,0,0,.93.73,2.85,2.85,0,0,0,1.14.22,3.91,3.91,0,0,0,1.3-.34,3.54,3.54,0,0,0,1.11-.8,3.63,3.63,0,0,0,.77-1.33,6,6,0,0,0,.28-2v-7.07h2v11.66a4.29,4.29,0,0,0,.14,1.15H451c0-.13,0-.28-.06-.43a2.61,2.61,0,0,1,0-.55l0-1a4.48,4.48,0,0,1-1.67,1.67,4.6,4.6,0,0,1-2.32.6,4.32,4.32,0,0,1-1.77-.35,4.07,4.07,0,0,1-1.42-1.08,4.82,4.82,0,0,1-1-1.85,9.82,9.82,0,0,1-.32-2.69Z" style="fill: #abb2a4"/>
    <path d="M457.57,905.39h2.07l-.06,2.47a4.27,4.27,0,0,1,1.87-2.06,5.54,5.54,0,0,1,2.74-.71,4.56,4.56,0,0,1,3.43,1.4l-.93,1.93q-.31-.42-.56-.7a3,3,0,0,0-.55-.48,2.6,2.6,0,0,0-.65-.31,2.87,2.87,0,0,0-.86-.11,3.67,3.67,0,0,0-1.75.43,4.81,4.81,0,0,0-1.42,1.15,5.82,5.82,0,0,0-1,1.64,5.21,5.21,0,0,0-.37,1.93v6.25h-2Z" style="fill: #abb2a4"/>
    <path d="M484.09,905.92h11.52v1.71H484.09Zm0,5.8h11.52v1.71H484.09Z" style="fill: #abb2a4"/>
    <path d="M514.54,899.42h8V901h-6.22v18h6.25v1.63h-8Z" style="fill: #abb2a4"/>
    <path d="M535.71,902.95a8.65,8.65,0,0,1,1.3,2.86,14.76,14.76,0,0,1,.49,4,13.52,13.52,0,0,1-.49,3.86,9,9,0,0,1-1.29,2.73,5.35,5.35,0,0,1-1.81,1.63,4.34,4.34,0,0,1-2,.53,3.8,3.8,0,0,1-2.07-.65,6.24,6.24,0,0,1-1.79-1.81,9.67,9.67,0,0,1-1.25-2.8,13.34,13.34,0,0,1-.46-3.63,13.5,13.5,0,0,1,.46-3.64,10.06,10.06,0,0,1,1.25-2.85,6.29,6.29,0,0,1,1.79-1.85,3.75,3.75,0,0,1,2.07-.66A4.71,4.71,0,0,1,535.71,902.95Zm-1,1.65a4.9,4.9,0,0,0-1.29-1.69,2.39,2.39,0,0,0-1.49-.57,2.34,2.34,0,0,0-1.39.5,4.63,4.63,0,0,0-1.22,1.4,8.1,8.1,0,0,0-.85,2.18,11.56,11.56,0,0,0-.32,2.82,13.47,13.47,0,0,0,.39,3.3Zm.64,1.87-6.17,7.82a5.46,5.46,0,0,0,1.42,1.82,2.45,2.45,0,0,0,1.47.56,2.42,2.42,0,0,0,1.42-.46,4,4,0,0,0,1.15-1.33,8,8,0,0,0,.79-2.11,12.21,12.21,0,0,0,.29-2.81q0-1-.08-1.84A11.22,11.22,0,0,0,535.32,906.47Z" style="fill: #abb2a4"/>
    <path d="M547.49,917.64q0,2.21-3,5.27l-1-.84a7.58,7.58,0,0,0,1.3-1.57,2.84,2.84,0,0,0,.52-1.37.75.75,0,0,0-.22-.52,5.86,5.86,0,0,0-.49-.46,3.23,3.23,0,0,1-.49-.52,1.06,1.06,0,0,1-.22-.66,1.63,1.63,0,0,1,.46-1.18,1.59,1.59,0,0,1,1.19-.48,1.76,1.76,0,0,1,1.32.64A2.4,2.4,0,0,1,547.49,917.64Z" style="fill: #abb2a4"/>
    <path d="M563.75,902.95a8.65,8.65,0,0,1,1.3,2.86,14.76,14.76,0,0,1,.49,4,13.52,13.52,0,0,1-.49,3.86,9,9,0,0,1-1.29,2.73A5.35,5.35,0,0,1,562,918a4.34,4.34,0,0,1-2,.53,3.8,3.8,0,0,1-2.07-.65,6.24,6.24,0,0,1-1.79-1.81,9.67,9.67,0,0,1-1.25-2.8,13.34,13.34,0,0,1-.46-3.63,13.5,13.5,0,0,1,.46-3.64,10.06,10.06,0,0,1,1.25-2.85,6.29,6.29,0,0,1,1.79-1.85,3.75,3.75,0,0,1,2.07-.66A4.71,4.71,0,0,1,563.75,902.95Zm-1,1.65a4.9,4.9,0,0,0-1.29-1.69,2.39,2.39,0,0,0-1.49-.57,2.34,2.34,0,0,0-1.39.5,4.63,4.63,0,0,0-1.22,1.4,8.1,8.1,0,0,0-.85,2.18,11.56,11.56,0,0,0-.32,2.82,13.47,13.47,0,0,0,.39,3.3Zm.64,1.87-6.17,7.82a5.46,5.46,0,0,0,1.42,1.82,2.45,2.45,0,0,0,1.47.56,2.42,2.42,0,0,0,1.42-.46,4,4,0,0,0,1.15-1.33,8,8,0,0,0,.79-2.11,12.21,12.21,0,0,0,.29-2.81q0-1-.08-1.84A11.22,11.22,0,0,0,563.36,906.47Z" style="fill: #abb2a4"/>
    <path d="M575.53,917.64q0,2.21-3,5.27l-1-.84a7.58,7.58,0,0,0,1.3-1.57,2.84,2.84,0,0,0,.52-1.37.75.75,0,0,0-.22-.52,5.86,5.86,0,0,0-.49-.46,3.23,3.23,0,0,1-.49-.52A1.06,1.06,0,0,1,572,917a1.63,1.63,0,0,1,.46-1.18,1.59,1.59,0,0,1,1.19-.48,1.76,1.76,0,0,1,1.32.64A2.4,2.4,0,0,1,575.53,917.64Z" style="fill: #abb2a4"/>
    <path d="M589.35,900.71v17.5h-1.93V903.15l-3.53,1-.45-1.09,4.57-2.38Z" style="fill: #abb2a4"/>
    <path d="M605.33,899.42V920.7h-8v-1.63h6.25V901h-6.22v-1.63Z" style="fill: #abb2a4"/>
  </g>
  <g>
    <path d="M819,151.82h2.3l5.15,15.33,4.83-15.3h2.21l-6.69,20.06h-1Z" style="fill: #fff"/>
    <path d="M842.47,156.81a6.22,6.22,0,0,1,2.24.42,5.19,5.19,0,0,1,1.9,1.26,6.26,6.26,0,0,1,1.31,2.16,8.76,8.76,0,0,1,.5,3.1c0,.17,0,.35,0,.53s0,.36,0,.53H838a7,7,0,0,0,.53,2.58,4.94,4.94,0,0,0,1.17,1.68,4.17,4.17,0,0,0,1.57.91,5.75,5.75,0,0,0,1.73.27,4.92,4.92,0,0,0,3.78-1.63l1.28,1.25a6.29,6.29,0,0,1-5.12,2.24,8.32,8.32,0,0,1-2.93-.5,6,6,0,0,1-2.26-1.46,6.57,6.57,0,0,1-1.44-2.38,10.55,10.55,0,0,1,0-6.54,7,7,0,0,1,1.44-2.42,6.15,6.15,0,0,1,2.13-1.49A6.7,6.7,0,0,1,842.47,156.81ZM838.06,163h8a1.65,1.65,0,0,1,0-.24,1.89,1.89,0,0,0,0-.27,3.76,3.76,0,0,0-.3-1.5,4,4,0,0,0-.82-1.23,4,4,0,0,0-1.2-.84,3.53,3.53,0,0,0-1.49-.32,4,4,0,0,0-2.72,1.06A5.19,5.19,0,0,0,838.06,163Z" style="fill: #fff"/>
    <path d="M853.35,157.16h2.37l-.06,2.82a4.86,4.86,0,0,1,2.13-2.35,6.32,6.32,0,0,1,3.13-.82,5.21,5.21,0,0,1,3.92,1.6l-1.06,2.21q-.35-.48-.64-.8a3.34,3.34,0,0,0-.63-.54,3,3,0,0,0-.74-.35,3.26,3.26,0,0,0-1-.13,4.18,4.18,0,0,0-2,.5,5.49,5.49,0,0,0-1.62,1.31,6.68,6.68,0,0,0-1.11,1.87,6,6,0,0,0-.42,2.21v7.14h-2.3Z" style="fill: #fff"/>
    <path d="M872.2,153.26l2.5-.42a1.54,1.54,0,0,1-.08.51c-.05.15-.09.27-.11.35l-.38,3.46h4.8V159h-4.8a53.77,53.77,0,0,0-.29,5.38q0,1.55.06,2.61a4.94,4.94,0,0,0,.34,1.67,2.15,2.15,0,0,0,.79.95,2.49,2.49,0,0,0,1.38.34,5.68,5.68,0,0,0,3.28-1.34l.71,1.82a7.56,7.56,0,0,1-4.54,1.63,3.94,3.94,0,0,1-3.36-1.4,7.24,7.24,0,0,1-1-4.54q0-1.15.06-3t.26-4.17h-3.42v-1.86h3.52Z" style="fill: #fff"/>
    <path d="M890.47,156.81a6.22,6.22,0,0,1,2.24.42,5.19,5.19,0,0,1,1.9,1.26,6.26,6.26,0,0,1,1.31,2.16,8.76,8.76,0,0,1,.5,3.1c0,.17,0,.35,0,.53s0,.36,0,.53H886a7,7,0,0,0,.53,2.58,4.94,4.94,0,0,0,1.17,1.68,4.17,4.17,0,0,0,1.57.91,5.75,5.75,0,0,0,1.73.27,4.92,4.92,0,0,0,3.78-1.63l1.28,1.25a6.29,6.29,0,0,1-5.12,2.24,8.32,8.32,0,0,1-2.93-.5,6,6,0,0,1-2.26-1.46,6.57,6.57,0,0,1-1.44-2.38,10.55,10.55,0,0,1,0-6.54,7,7,0,0,1,1.44-2.42,6.15,6.15,0,0,1,2.13-1.49A6.7,6.7,0,0,1,890.47,156.81ZM886.06,163h8a1.65,1.65,0,0,1,0-.24,1.89,1.89,0,0,0,0-.27,3.76,3.76,0,0,0-.3-1.5,4,4,0,0,0-.82-1.23,4,4,0,0,0-1.2-.84,3.53,3.53,0,0,0-1.49-.32,4,4,0,0,0-2.72,1.06A5.19,5.19,0,0,0,886.06,163Z" style="fill: #fff"/>
    <path d="M909.77,157.16h2.37l-4.74,7.1,5.38,7.52h-2.62l-4-5.7-3.81,5.7h-2.62l5.15-7.42-5.06-7.2h2.53l3.81,5.41Z" style="fill: #fff"/>
    <path d="M942.54,154.38a9.87,9.87,0,0,1,1.49,3.26,16.86,16.86,0,0,1,.56,4.51,15.43,15.43,0,0,1-.56,4.4,10.2,10.2,0,0,1-1.47,3.12,6.13,6.13,0,0,1-2.06,1.86,5,5,0,0,1-2.34.61,4.34,4.34,0,0,1-2.37-.74,7.11,7.11,0,0,1-2-2.06,11.07,11.07,0,0,1-1.42-3.2,15.26,15.26,0,0,1-.53-4.14,15.44,15.44,0,0,1,.53-4.16,11.54,11.54,0,0,1,1.42-3.25,7.19,7.19,0,0,1,2-2.11,4.27,4.27,0,0,1,2.37-.75A5.37,5.37,0,0,1,942.54,154.38Zm-1.18,1.88a5.6,5.6,0,0,0-1.47-1.93,2.73,2.73,0,0,0-1.7-.65,2.66,2.66,0,0,0-1.58.57,5.3,5.3,0,0,0-1.39,1.59,9.23,9.23,0,0,0-1,2.49,13.23,13.23,0,0,0-.37,3.22,15.39,15.39,0,0,0,.45,3.76Zm.74,2.14-7,8.92a6.22,6.22,0,0,0,1.62,2.07,2.8,2.8,0,0,0,1.68.64,2.76,2.76,0,0,0,1.62-.53,4.52,4.52,0,0,0,1.31-1.51,9.21,9.21,0,0,0,.9-2.41,14,14,0,0,0,.34-3.2q0-1.11-.1-2.1A12.84,12.84,0,0,0,942.09,158.39Z" style="fill: #fff"/>
    <path d="M819.84,188h5.61a7.18,7.18,0,0,1,2.48.38,4.3,4.3,0,0,1,2.66,2.65,6.73,6.73,0,0,1,.38,1.91,6.58,6.58,0,0,1-.38,1.89,4.22,4.22,0,0,1-1,1.53,4.46,4.46,0,0,1-1.63,1,6.86,6.86,0,0,1-2.43.38h-3.73v7.71h-2Zm2,1.85V196h3.5a3.66,3.66,0,0,0,2.71-.83A3.34,3.34,0,0,0,829,193a4.74,4.74,0,0,0-.27-1.22,2.71,2.71,0,0,0-.63-1,3,3,0,0,0-1.08-.67,4.44,4.44,0,0,0-1.58-.25Z" style="fill: #abb2a4"/>
    <path d="M839.33,192.34a5.49,5.49,0,0,1,2.23.46,5.37,5.37,0,0,1,1.84,1.33,6.49,6.49,0,0,1,1.25,2.12,8,8,0,0,1,.46,2.79,8.17,8.17,0,0,1-.45,2.8,6.49,6.49,0,0,1-1.23,2.12,5.25,5.25,0,0,1-1.85,1.35,5.64,5.64,0,0,1-2.27.46,5.4,5.4,0,0,1-2.31-.5,6,6,0,0,1-1.89-1.39,6.58,6.58,0,0,1-1.29-2.12,7.66,7.66,0,0,1,0-5.36,6.59,6.59,0,0,1,1.32-2.15,6.33,6.33,0,0,1,1.92-1.4A5.24,5.24,0,0,1,839.33,192.34Zm3.76,6.76a6.59,6.59,0,0,0-.32-2.14,5,5,0,0,0-.86-1.58,3.65,3.65,0,0,0-1.22-1,3.26,3.26,0,0,0-2.89,0,3.52,3.52,0,0,0-1.21,1,5,5,0,0,0-.83,1.56,7,7,0,0,0,0,4.11,5.35,5.35,0,0,0,.83,1.6,3.66,3.66,0,0,0,1.22,1,3.17,3.17,0,0,0,1.49.36,3.41,3.41,0,0,0,1.47-.32,3.45,3.45,0,0,0,1.21-1,4.64,4.64,0,0,0,.81-1.56A6.93,6.93,0,0,0,843.08,199.1Z" style="fill: #abb2a4"/>
    <path d="M858.34,194.33l-1.18,1.77c-.09,0-.14-.09-.14-.22a.52.52,0,0,0-.06-.28,5.07,5.07,0,0,0-1.44-1.19,4.12,4.12,0,0,0-2.12-.55,4.17,4.17,0,0,0-1,.13,3.37,3.37,0,0,0-.88.35,1.8,1.8,0,0,0-.61.58,1.44,1.44,0,0,0-.23.8,1.1,1.1,0,0,0,.17.6,1.89,1.89,0,0,0,.54.52,5,5,0,0,0,1,.5q.67.25,1.74.56a8.71,8.71,0,0,1,3.43,1.53,2.78,2.78,0,0,1,1,2.17,3.65,3.65,0,0,1-.36,1.6,3.79,3.79,0,0,1-1.07,1.32,5.32,5.32,0,0,1-1.68.88,7.08,7.08,0,0,1-2.21.32,7.68,7.68,0,0,1-5.41-2l1.15-2a.49.49,0,0,1,.11.27,1.17,1.17,0,0,0,.2.44,2.5,2.5,0,0,0,.62.59,7.4,7.4,0,0,0,1.38.73,3.55,3.55,0,0,0,1,.29,6.73,6.73,0,0,0,1.07.09,4.79,4.79,0,0,0,1.14-.14,4,4,0,0,0,1-.41,2.41,2.41,0,0,0,.75-.65,1.41,1.41,0,0,0,.28-.86,1.51,1.51,0,0,0-.68-1.24,8.54,8.54,0,0,0-2.49-1q-1.24-.37-1.64-.51a8.5,8.5,0,0,1-1.47-.69,4.16,4.16,0,0,1-.82-.7,3.39,3.39,0,0,1-.59-.93,2.83,2.83,0,0,1-.23-1.14,2.52,2.52,0,0,1,.36-1.29,3.66,3.66,0,0,1,1-1.1,5.61,5.61,0,0,1,1.57-.77,6.37,6.37,0,0,1,2-.3A6.12,6.12,0,0,1,858.34,194.33Z" style="fill: #abb2a4"/>
    <path d="M863.22,192.62h5.13v11.19h3v1.63H863v-1.63h3.28v-9.56h-3.11Zm3.14-5.16a1.38,1.38,0,0,1,1-.42,1.48,1.48,0,0,1,1.46,1.46,1.36,1.36,0,0,1-.43,1,1.42,1.42,0,0,1-1,.42,1.44,1.44,0,0,1-1.43-1.43A1.41,1.41,0,0,1,866.36,187.46Z" style="fill: #abb2a4"/>
    <path d="M879.54,189.2l2.19-.36a1.35,1.35,0,0,1-.07.45c0,.13-.08.23-.1.31l-.34,3h4.21v1.63h-4.21A47,47,0,0,0,881,199q0,1.35.06,2.29a4.29,4.29,0,0,0,.3,1.47,1.88,1.88,0,0,0,.69.83,2.17,2.17,0,0,0,1.21.3,5,5,0,0,0,2.87-1.18l.62,1.6a6.63,6.63,0,0,1-4,1.43,3.45,3.45,0,0,1-2.94-1.22,6.35,6.35,0,0,1-.84-4q0-1,.06-2.59t.22-3.65h-3v-1.63h3.08Z" style="fill: #abb2a4"/>
    <path d="M891.26,192.62h5.13v11.19h3v1.63h-8.3v-1.63h3.28v-9.56h-3.11Zm3.14-5.16a1.38,1.38,0,0,1,1-.42,1.48,1.48,0,0,1,1.46,1.46,1.36,1.36,0,0,1-.43,1,1.42,1.42,0,0,1-1,.42A1.44,1.44,0,0,1,894,188.5,1.41,1.41,0,0,1,894.4,187.46Z" style="fill: #abb2a4"/>
    <path d="M909.42,192.34a5.49,5.49,0,0,1,2.23.46,5.37,5.37,0,0,1,1.84,1.33,6.51,6.51,0,0,1,1.25,2.12,8,8,0,0,1,.46,2.79,8.17,8.17,0,0,1-.45,2.8,6.5,6.5,0,0,1-1.23,2.12,5.24,5.24,0,0,1-1.85,1.35,5.63,5.63,0,0,1-2.27.46,5.4,5.4,0,0,1-2.31-.5,6,6,0,0,1-1.89-1.39,6.61,6.61,0,0,1-1.29-2.12,7.65,7.65,0,0,1,0-5.36,6.58,6.58,0,0,1,1.32-2.15,6.32,6.32,0,0,1,1.92-1.4A5.24,5.24,0,0,1,909.42,192.34Zm3.76,6.76a6.62,6.62,0,0,0-.32-2.14,5,5,0,0,0-.86-1.58,3.66,3.66,0,0,0-1.22-1,3.26,3.26,0,0,0-2.89,0,3.51,3.51,0,0,0-1.21,1,5,5,0,0,0-.83,1.56,7,7,0,0,0,0,4.11,5.4,5.4,0,0,0,.83,1.6,3.66,3.66,0,0,0,1.22,1,3.17,3.17,0,0,0,1.49.36,3.41,3.41,0,0,0,1.47-.32,3.46,3.46,0,0,0,1.21-1,4.64,4.64,0,0,0,.81-1.56A6.93,6.93,0,0,0,913.18,199.1Z" style="fill: #abb2a4"/>
    <path d="M918.23,205.43V192.62h2v2.27a5.71,5.71,0,0,1,1.88-1.88,4.42,4.42,0,0,1,2.33-.7,4.23,4.23,0,0,1,1.58.29,3.18,3.18,0,0,1,1.27.94,4.57,4.57,0,0,1,.83,1.65,8.88,8.88,0,0,1,.3,2.47v7.77h-2v-7.71a4.44,4.44,0,0,0-.69-2.83,2.13,2.13,0,0,0-1.68-.81,3.44,3.44,0,0,0-1.32.28,4,4,0,0,0-1.23.8,4.24,4.24,0,0,0-.9,1.25,3.76,3.76,0,0,0-.35,1.65v7.37Z" style="fill: #abb2a4"/>
    <path d="M945.62,193.15h11.52v1.71H945.62Zm0,5.8h11.52v1.71H945.62Z" style="fill: #abb2a4"/>
    <path d="M976.07,186.65h8v1.63h-6.22v18h6.25v1.63h-8Z" style="fill: #abb2a4"/>
    <path d="M997.24,190.18a8.65,8.65,0,0,1,1.3,2.86,14.76,14.76,0,0,1,.49,4,13.52,13.52,0,0,1-.49,3.86,8.94,8.94,0,0,1-1.29,2.73,5.35,5.35,0,0,1-1.81,1.63,4.34,4.34,0,0,1-2,.53,3.8,3.8,0,0,1-2.07-.65,6.24,6.24,0,0,1-1.79-1.81,9.65,9.65,0,0,1-1.25-2.8,13.34,13.34,0,0,1-.46-3.63,13.5,13.5,0,0,1,.46-3.64,10,10,0,0,1,1.25-2.85,6.3,6.3,0,0,1,1.79-1.85,3.75,3.75,0,0,1,2.07-.66A4.71,4.71,0,0,1,997.24,190.18Zm-1,1.65a4.92,4.92,0,0,0-1.29-1.69,2.39,2.39,0,0,0-1.49-.57,2.34,2.34,0,0,0-1.39.5,4.63,4.63,0,0,0-1.22,1.4,8.09,8.09,0,0,0-.86,2.18,11.58,11.58,0,0,0-.32,2.82,13.49,13.49,0,0,0,.39,3.3Zm.64,1.87-6.17,7.82a5.47,5.47,0,0,0,1.42,1.82,2.45,2.45,0,0,0,1.47.56,2.42,2.42,0,0,0,1.42-.46,4,4,0,0,0,1.15-1.33,8.06,8.06,0,0,0,.79-2.11,12.21,12.21,0,0,0,.29-2.81q0-1-.08-1.84A11.16,11.16,0,0,0,996.85,193.7Z" style="fill: #abb2a4"/>
    <path d="M1008.29,203a1.58,1.58,0,0,1,.5,1.15,1.52,1.52,0,0,1-.49,1.12,1.65,1.65,0,0,1-1.19.48,1.62,1.62,0,0,1-1.18-.46,1.58,1.58,0,0,1,0-2.29,1.63,1.63,0,0,1,1.15-.48A1.73,1.73,0,0,1,1008.29,203Z" style="fill: #abb2a4"/>
    <path d="M1017.43,188h8.86v1.77h-7.21l-.28,5a6.43,6.43,0,0,1,2.86-.67,5.35,5.35,0,0,1,2.09.41,4.82,4.82,0,0,1,1.68,1.18,5.4,5.4,0,0,1,1.11,1.85,7.06,7.06,0,0,1,.39,2.43,6.64,6.64,0,0,1-.42,2.42,5.37,5.37,0,0,1-1.16,1.84,5,5,0,0,1-1.74,1.15,5.87,5.87,0,0,1-2.17.39,6.37,6.37,0,0,1-3-.7,5.92,5.92,0,0,1-2.23-2l1.74-1.29a.38.38,0,0,1,.15.34,1.11,1.11,0,0,0,0,.31,2.46,2.46,0,0,0,.39.48,3.4,3.4,0,0,0,.71.53,5,5,0,0,0,1,.43,4.06,4.06,0,0,0,1.24.18,2.93,2.93,0,0,0,1.28-.29,3.28,3.28,0,0,0,1.08-.83,4.09,4.09,0,0,0,.74-1.3,5.64,5.64,0,0,0,0-3.5,3.84,3.84,0,0,0-.77-1.3,3.34,3.34,0,0,0-1.13-.81,3.46,3.46,0,0,0-1.4-.28,3.89,3.89,0,0,0-1.76.43,4.62,4.62,0,0,0-1.51,1.22l-1.23-.5Z" style="fill: #abb2a4"/>
    <path d="M1037.06,204.87q0,2.21-3,5.27l-1-.84a7.61,7.61,0,0,0,1.3-1.57,2.84,2.84,0,0,0,.52-1.37.75.75,0,0,0-.22-.52,5.85,5.85,0,0,0-.49-.46,3.24,3.24,0,0,1-.49-.52,1.06,1.06,0,0,1-.22-.66A1.63,1.63,0,0,1,1034,203a1.59,1.59,0,0,1,1.19-.48,1.76,1.76,0,0,1,1.32.64A2.4,2.4,0,0,1,1037.06,204.87Z" style="fill: #abb2a4"/>
    <path d="M1050.88,187.94v17.5h-1.93V190.38l-3.53,1-.45-1.09,4.57-2.38Z" style="fill: #abb2a4"/>
    <path d="M1064.37,203a1.58,1.58,0,0,1,.5,1.15,1.52,1.52,0,0,1-.49,1.12,1.65,1.65,0,0,1-1.19.48,1.62,1.62,0,0,1-1.18-.46,1.58,1.58,0,0,1,0-2.29,1.63,1.63,0,0,1,1.15-.48A1.73,1.73,0,0,1,1064.37,203Z" style="fill: #abb2a4"/>
    <path d="M1081.36,190.18a8.65,8.65,0,0,1,1.3,2.86,14.76,14.76,0,0,1,.49,4,13.52,13.52,0,0,1-.49,3.86,9,9,0,0,1-1.29,2.73,5.36,5.36,0,0,1-1.81,1.63,4.34,4.34,0,0,1-2,.53,3.8,3.8,0,0,1-2.08-.65,6.23,6.23,0,0,1-1.79-1.81,9.68,9.68,0,0,1-1.25-2.8,13.34,13.34,0,0,1-.46-3.63,13.5,13.5,0,0,1,.46-3.64,10.07,10.07,0,0,1,1.25-2.85,6.29,6.29,0,0,1,1.79-1.85,3.75,3.75,0,0,1,2.08-.66A4.7,4.7,0,0,1,1081.36,190.18Zm-1,1.65a4.89,4.89,0,0,0-1.29-1.69,2.39,2.39,0,0,0-1.49-.57,2.34,2.34,0,0,0-1.39.5,4.64,4.64,0,0,0-1.22,1.4,8.12,8.12,0,0,0-.85,2.18,11.54,11.54,0,0,0-.32,2.82,13.44,13.44,0,0,0,.39,3.3Zm.64,1.87-6.17,7.82a5.45,5.45,0,0,0,1.42,1.82,2.45,2.45,0,0,0,1.47.56,2.42,2.42,0,0,0,1.42-.46,4,4,0,0,0,1.15-1.33A8,8,0,0,0,1081,200a12.21,12.21,0,0,0,.29-2.81q0-1-.08-1.84A11.28,11.28,0,0,0,1081,193.7Z" style="fill: #abb2a4"/>
    <path d="M1094.9,186.65v21.28h-8V206.3h6.25v-18h-6.22v-1.63Z" style="fill: #abb2a4"/>
    <path d="M829.35,225.57a1.12,1.12,0,0,0-.08-.5,4.27,4.27,0,0,0-1.46-1.44,3.66,3.66,0,0,0-1.91-.54,3.51,3.51,0,0,0-1.79.49,4.68,4.68,0,0,0-1.49,1.43,7.44,7.44,0,0,0-1,2.29,12.83,12.83,0,0,0,0,6.07,7.58,7.58,0,0,0,1,2.33,5,5,0,0,0,1.54,1.5,3.6,3.6,0,0,0,1.89.53,3.8,3.8,0,0,0,2-.59,4.5,4.5,0,0,0,1.56-1.6l1.46,1a5.44,5.44,0,0,1-1,1.23,6.67,6.67,0,0,1-1.25.9,6,6,0,0,1-1.32.55,5,5,0,0,1-1.33.18,6.52,6.52,0,0,1-2.68-.52,6.25,6.25,0,0,1-2.13-1.61,7.57,7.57,0,0,1-1.5-2.78,13.35,13.35,0,0,1-.53-4,12.91,12.91,0,0,1,.62-4.3,7.53,7.53,0,0,1,1.63-2.76,6,6,0,0,1,2.15-1.47,6.15,6.15,0,0,1,2.2-.43,5.76,5.76,0,0,1,1.7.25,6.41,6.41,0,0,1,1.54.7,5.9,5.9,0,0,1,1.28,1.08,5.19,5.19,0,0,1,.9,1.42l-1.88.92A.32.32,0,0,1,829.35,225.57Z" style="fill: #abb2a4"/>
    <path d="M839.33,226a5.49,5.49,0,0,1,2.23.46,5.37,5.37,0,0,1,1.84,1.33,6.49,6.49,0,0,1,1.25,2.12,8,8,0,0,1,.46,2.79,8.17,8.17,0,0,1-.45,2.8,6.49,6.49,0,0,1-1.23,2.12,5.25,5.25,0,0,1-1.85,1.35,5.64,5.64,0,0,1-2.27.46,5.4,5.4,0,0,1-2.31-.5,6,6,0,0,1-1.89-1.39,6.58,6.58,0,0,1-1.29-2.12,7.66,7.66,0,0,1,0-5.36,6.59,6.59,0,0,1,1.32-2.15,6.33,6.33,0,0,1,1.92-1.4A5.24,5.24,0,0,1,839.33,226Zm3.76,6.76a6.59,6.59,0,0,0-.32-2.14,5,5,0,0,0-.86-1.58,3.65,3.65,0,0,0-1.22-1,3.26,3.26,0,0,0-2.89,0,3.52,3.52,0,0,0-1.21,1,5,5,0,0,0-.83,1.56,7,7,0,0,0,0,4.11,5.35,5.35,0,0,0,.83,1.6,3.66,3.66,0,0,0,1.22,1,3.17,3.17,0,0,0,1.49.36,3.41,3.41,0,0,0,1.47-.32,3.45,3.45,0,0,0,1.21-1,4.64,4.64,0,0,0,.81-1.56A6.93,6.93,0,0,0,843.08,232.74Z" style="fill: #abb2a4"/>
    <path d="M848.61,220.43h5.64v17H858v1.63h-9.56v-1.63h3.79V222.06h-3.62Z" style="fill: #abb2a4"/>
    <path d="M867.37,226a5.49,5.49,0,0,1,2.23.46,5.37,5.37,0,0,1,1.84,1.33,6.49,6.49,0,0,1,1.25,2.12,8,8,0,0,1,.46,2.79,8.17,8.17,0,0,1-.45,2.8,6.49,6.49,0,0,1-1.23,2.12,5.25,5.25,0,0,1-1.85,1.35,5.64,5.64,0,0,1-2.27.46,5.4,5.4,0,0,1-2.31-.5,6,6,0,0,1-1.89-1.39,6.58,6.58,0,0,1-1.29-2.12,7.66,7.66,0,0,1,0-5.36,6.59,6.59,0,0,1,1.32-2.15,6.33,6.33,0,0,1,1.92-1.4A5.24,5.24,0,0,1,867.37,226Zm3.76,6.76a6.59,6.59,0,0,0-.32-2.14,5,5,0,0,0-.86-1.58,3.65,3.65,0,0,0-1.22-1,3.26,3.26,0,0,0-2.89,0,3.52,3.52,0,0,0-1.21,1,5,5,0,0,0-.83,1.56,7,7,0,0,0,0,4.11,5.35,5.35,0,0,0,.83,1.6,3.66,3.66,0,0,0,1.22,1,3.17,3.17,0,0,0,1.49.36,3.41,3.41,0,0,0,1.47-.32,3.45,3.45,0,0,0,1.21-1,4.64,4.64,0,0,0,.81-1.56A6.93,6.93,0,0,0,871.12,232.74Z" style="fill: #abb2a4"/>
    <path d="M876,226.27h2v7.15a8,8,0,0,0,.23,2.06,3.6,3.6,0,0,0,.63,1.33,2.43,2.43,0,0,0,.93.73,2.85,2.85,0,0,0,1.14.22,3.91,3.91,0,0,0,1.3-.34,3.55,3.55,0,0,0,1.11-.8,3.63,3.63,0,0,0,.77-1.33,6,6,0,0,0,.28-2v-7.07h2v11.66a4.29,4.29,0,0,0,.14,1.15h-2.1c0-.13,0-.28-.05-.43a2.55,2.55,0,0,1,0-.55l0-1a4.47,4.47,0,0,1-1.67,1.67,4.6,4.6,0,0,1-2.32.6,4.31,4.31,0,0,1-1.77-.35,4.07,4.07,0,0,1-1.42-1.08,4.82,4.82,0,0,1-1-1.85,9.84,9.84,0,0,1-.32-2.69Z" style="fill: #abb2a4"/>
    <path d="M891.06,226.27h2.07l-.06,2.47a4.26,4.26,0,0,1,1.87-2.06,5.54,5.54,0,0,1,2.74-.71,4.56,4.56,0,0,1,3.43,1.4l-.92,1.93q-.31-.42-.56-.7a2.92,2.92,0,0,0-.55-.48,2.6,2.6,0,0,0-.65-.31,2.87,2.87,0,0,0-.86-.11,3.67,3.67,0,0,0-1.75.43,4.81,4.81,0,0,0-1.42,1.15,5.82,5.82,0,0,0-1,1.64,5.21,5.21,0,0,0-.37,1.93v6.25h-2Z" style="fill: #abb2a4"/>
    <path d="M917.58,226.8h11.52v1.71H917.58Zm0,5.8h11.52v1.71H917.58Z" style="fill: #abb2a4"/>
    <path d="M948,220.29h8v1.63h-6.22v18h6.25v1.63h-8Z" style="fill: #abb2a4"/>
    <path d="M966.76,221.58v17.5h-1.93V224l-3.53,1-.45-1.09,4.57-2.38Z" style="fill: #abb2a4"/>
    <path d="M981,238.52q0,2.21-3,5.27l-1-.84a7.61,7.61,0,0,0,1.3-1.57,2.84,2.84,0,0,0,.52-1.37.75.75,0,0,0-.22-.52,5.85,5.85,0,0,0-.49-.46,3.24,3.24,0,0,1-.49-.52,1.06,1.06,0,0,1-.22-.66,1.63,1.63,0,0,1,.46-1.18,1.59,1.59,0,0,1,1.19-.48,1.76,1.76,0,0,1,1.32.64A2.4,2.4,0,0,1,981,238.52Z" style="fill: #abb2a4"/>
    <path d="M997.24,223.83a8.65,8.65,0,0,1,1.3,2.86,14.76,14.76,0,0,1,.49,4,13.52,13.52,0,0,1-.49,3.86,8.94,8.94,0,0,1-1.29,2.73,5.35,5.35,0,0,1-1.81,1.63,4.34,4.34,0,0,1-2,.53,3.8,3.8,0,0,1-2.07-.65,6.24,6.24,0,0,1-1.79-1.81,9.65,9.65,0,0,1-1.25-2.8,13.34,13.34,0,0,1-.46-3.63,13.5,13.5,0,0,1,.46-3.64,10,10,0,0,1,1.25-2.85,6.3,6.3,0,0,1,1.79-1.85,3.75,3.75,0,0,1,2.07-.66A4.71,4.71,0,0,1,997.24,223.83Zm-1,1.65a4.92,4.92,0,0,0-1.29-1.69,2.39,2.39,0,0,0-1.49-.57,2.34,2.34,0,0,0-1.39.5,4.63,4.63,0,0,0-1.22,1.4,8.09,8.09,0,0,0-.86,2.18,11.58,11.58,0,0,0-.32,2.82,13.49,13.49,0,0,0,.39,3.3Zm.64,1.87-6.17,7.82A5.47,5.47,0,0,0,992.1,237a2.45,2.45,0,0,0,1.47.56,2.42,2.42,0,0,0,1.42-.46,4,4,0,0,0,1.15-1.33,8.06,8.06,0,0,0,.79-2.11,12.21,12.21,0,0,0,.29-2.81q0-1-.08-1.84A11.16,11.16,0,0,0,996.85,227.34Z" style="fill: #abb2a4"/>
    <path d="M1009,238.52q0,2.21-3,5.27l-1-.84a7.61,7.61,0,0,0,1.3-1.57,2.84,2.84,0,0,0,.52-1.37.75.75,0,0,0-.22-.52,5.85,5.85,0,0,0-.49-.46,3.24,3.24,0,0,1-.49-.52,1.06,1.06,0,0,1-.22-.66,1.63,1.63,0,0,1,.46-1.18,1.59,1.59,0,0,1,1.19-.48,1.76,1.76,0,0,1,1.32.64A2.4,2.4,0,0,1,1009,238.52Z" style="fill: #abb2a4"/>
    <path d="M1022.84,221.58v17.5h-1.93V224l-3.53,1-.45-1.09,4.57-2.38Z" style="fill: #abb2a4"/>
    <path d="M1038.82,220.29v21.28h-8v-1.63h6.25v-18h-6.22v-1.63Z" style="fill: #abb2a4"/>
  </g>
  <circle cx="958.15" cy="306.53" r="7.38" style="fill: #fff"/>
  <circle cx="1231.65" cy="775.26" r="7.38" style="fill: #fff"/>
  <circle cx="688.35" cy="775.26" r="7.38" style="fill: #fff"/>
</svg>
